<svg width="16" height="16" viewBox="0 0 16 16" fill="none" xmlns="http://www.w3.org/2000/svg">
<g clip-path="url(#clip0_9633_4615)">
<path d="M1.66079 11.0397L4.96079 14.3397L3.98345 15.3171C3.54585 15.7547 2.95232 16.0005 2.33345 16.0005C1.71458 16.0005 1.12106 15.7547 0.683452 15.3171C0.245845 14.8794 0 14.2859 0 13.6671C0 13.0482 0.245845 12.4547 0.683452 12.0171L1.66079 11.0397ZM15.9888 8.83972L15.5695 9.25972C12.8428 11.9871 9.42545 13.1224 6.31479 13.8057L2.19212 9.68572C2.87545 6.57572 4.01012 3.15905 6.73812 0.431052L7.15745 0.0117188L7.62412 0.379052C7.69079 0.433052 8.29945 0.912385 8.60279 1.21839C8.84869 1.47012 9.02788 1.77923 9.12412 2.11772C9.43864 2.0052 9.77534 1.96881 10.1066 2.01154C10.4379 2.05427 10.7544 2.17489 11.0301 2.36353C11.3057 2.55217 11.5328 2.80345 11.6926 3.09678C11.8524 3.39011 11.9404 3.71714 11.9495 4.05105C12.485 4.0648 12.9953 4.28224 13.3761 4.65905L13.3828 4.66572L13.3895 4.67172C13.6702 4.95309 13.8648 5.30884 13.9502 5.69706C14.0356 6.08529 14.0082 6.48983 13.8715 6.86305C14.2138 6.96478 14.5264 7.14775 14.7828 7.39639C15.0861 7.69972 15.5681 8.30705 15.6221 8.37505L15.9888 8.83972ZM11.3288 5.61172L7.64812 9.29239L8.24812 9.89239C9.72944 8.95236 11.1296 7.89022 12.4341 6.71705C12.5814 6.57034 12.6648 6.37067 12.6661 6.16276C12.6673 5.95484 12.5863 5.75486 12.4408 5.60639C12.2896 5.46525 12.09 5.38742 11.8832 5.38891C11.6764 5.3904 11.478 5.47109 11.3288 5.61439V5.61172ZM4.59545 6.24039L5.12879 6.77372C5.90708 5.5767 6.75452 4.42608 7.66679 3.32772V3.32372C7.81507 3.16608 7.89708 2.95747 7.89584 2.74105C7.8946 2.52464 7.8102 2.31698 7.66012 2.16105C7.56679 2.06705 7.41812 1.93705 7.26745 1.80972C6.11293 3.11149 5.20725 4.61418 4.59545 6.24305V6.24039ZM6.70545 8.34972L10.3881 4.66705C10.528 4.51686 10.6039 4.31815 10.5998 4.11297C10.5957 3.90779 10.512 3.71225 10.3662 3.56774C10.2205 3.42324 10.0243 3.34111 9.81908 3.33874C9.61388 3.33637 9.4158 3.41395 9.26679 3.55505C8.09453 4.85971 7.03287 6.25965 6.09279 7.74039L6.70545 8.34972ZM14.1908 8.73239C14.0641 8.58105 13.9328 8.43239 13.8395 8.33839C13.6786 8.18115 13.4643 8.09043 13.2395 8.08439C13.1412 8.07859 13.0428 8.09293 12.9503 8.12652C12.8578 8.16011 12.7731 8.21224 12.7015 8.27972C11.59 9.2069 10.4241 10.0669 9.21012 10.8551L9.75679 11.4024C11.3855 10.7915 12.8884 9.88694 14.1908 8.73372V8.73239Z" fill="#2A2A2A"/>
</g>
<defs>
<clipPath id="clip0_9633_4615">
<rect width="16" height="16" fill="white"/>
</clipPath>
</defs>
</svg>
