<svg width="16" height="17" viewBox="0 0 16 17" fill="none" xmlns="http://www.w3.org/2000/svg">
<g clip-path="url(#clip0_9449_4647)">
<path d="M10.8347 4.72267C9.84903 3.58517 9.31485 2.12567 9.33333 0.620667C10.7455 0.857928 12.0677 1.47145 13.1607 2.39667L10.8347 4.72267ZM5.168 10.3893L7.05733 8.5L1.89667 3.33933C0.67176 4.7798 -0.000569696 6.60915 3.6221e-07 8.5H0.215334C2.03701 8.52664 3.79059 9.19657 5.166 10.3913L5.168 10.3893ZM14.1033 3.33933L11.7773 5.66533C12.9243 6.63481 14.3775 7.16671 15.8793 7.16667C15.6421 5.75446 15.0286 4.43231 14.1033 3.33933ZM9.89133 5.666C8.69672 4.2905 8.02681 2.53698 8 0.715334V0.5C6.10915 0.49943 4.2798 1.17176 2.83933 2.39667L8 7.55733L9.89133 5.666ZM15.7847 8.5C13.963 8.47325 12.2095 7.80333 10.834 6.60867L8.94267 8.5L14.1033 13.6607C15.3282 12.2202 16.0006 10.3909 16 8.5H15.7847ZM6.10867 11.334C7.28211 12.7145 7.94932 14.4542 8 16.2653V16.5C9.89086 16.5006 11.7202 15.8282 13.1607 14.6033L8 9.44267L6.10867 11.334ZM5.164 12.2787L2.83933 14.6033C3.93231 15.5286 5.25446 16.1421 6.66667 16.3793C6.66811 14.8775 6.1355 13.424 5.164 12.2787ZM0.120667 9.83333C0.357928 11.2455 0.971446 12.5677 1.89667 13.6607L4.22267 11.3347C3.07807 10.3612 1.62327 9.82869 0.120667 9.83333Z" fill="#2A2A2A"/>
</g>
<defs>
<clipPath id="clip0_9449_4647">
<rect width="16" height="16" fill="white" transform="translate(0 0.5)"/>
</clipPath>
</defs>
</svg>
