<svg width="16" height="17" viewBox="0 0 16 17" fill="none" xmlns="http://www.w3.org/2000/svg">
<g clip-path="url(#clip0_9193_3908)">
<g clip-path="url(#clip1_9193_3908)">
<path d="M15.3553 0.509842C15.2689 0.494778 15.1803 0.497026 15.0948 0.516454C15.0092 0.535883 14.9284 0.572106 14.857 0.623021C14.7855 0.673937 14.7249 0.738533 14.6786 0.81306C14.6323 0.887588 14.6013 0.970564 14.5873 1.05718L13.34 8.48717L4.824 6.69451C4.24157 6.5719 3.63912 6.58081 3.06057 6.7206C2.48202 6.86038 1.94196 7.12752 1.47976 7.50253C1.01757 7.87754 0.644882 8.35097 0.388885 8.8883C0.132888 9.42563 3.09449e-05 10.0133 0 10.6085L0 12.5005C0.00105895 13.5611 0.422826 14.5779 1.17274 15.3278C1.92266 16.0777 2.93946 16.4994 4 16.5005H8.00933C9.24127 16.5008 10.4466 16.1424 11.4784 15.4692C12.5101 14.7959 13.3235 13.8369 13.8193 12.7092C14.0459 12.1743 14.1965 11.6104 14.2667 11.0338L15.9027 1.27784C15.9172 1.19147 15.9145 1.10309 15.8949 1.01774C15.8752 0.932398 15.839 0.851761 15.7881 0.780439C15.7373 0.709118 15.6729 0.648511 15.5986 0.602081C15.5244 0.555651 15.4417 0.524307 15.3553 0.509842ZM7.31933 13.4912C7.2877 13.6407 7.20567 13.7748 7.08698 13.871C6.96829 13.9672 6.82014 14.0198 6.66733 14.0198C6.62072 14.0199 6.57424 14.015 6.52867 14.0052L3.22 13.3052C3.04699 13.2686 2.89561 13.1647 2.79915 13.0165C2.70269 12.8683 2.66907 12.6879 2.70567 12.5148C2.74227 12.3418 2.84609 12.1904 2.99431 12.094C3.14253 11.9975 3.32299 11.9639 3.496 12.0005L6.80467 12.7005C6.8904 12.7186 6.97174 12.7534 7.04402 12.8029C7.11629 12.8524 7.1781 12.9157 7.2259 12.9892C7.2737 13.0626 7.30656 13.1447 7.32259 13.2309C7.33862 13.317 7.33751 13.4055 7.31933 13.4912ZM10.3293 11.3425C10.298 11.4921 10.2162 11.6265 10.0976 11.7229C9.97902 11.8194 9.83088 11.8722 9.678 11.8725C9.63187 11.8725 9.58586 11.8678 9.54067 11.8585L3.86667 10.6685C3.77581 10.6563 3.68844 10.6255 3.61003 10.578C3.53161 10.5305 3.46384 10.4674 3.41093 10.3925C3.35803 10.3176 3.32114 10.2326 3.30256 10.1429C3.28398 10.0531 3.28412 9.96045 3.30296 9.87074C3.32181 9.78102 3.35895 9.69615 3.41208 9.62144C3.46521 9.54673 3.53317 9.48377 3.61173 9.43651C3.69028 9.38926 3.77774 9.35871 3.86863 9.34678C3.95953 9.33485 4.05191 9.34179 4.14 9.36718L9.814 10.5572C9.98615 10.5936 10.1369 10.6966 10.2335 10.8437C10.33 10.9908 10.3645 11.1701 10.3293 11.3425Z" fill="#2A2A2A"/>
</g>
</g>
<defs>
<clipPath id="clip0_9193_3908">
<rect width="16" height="16" fill="white" transform="translate(0 0.5)"/>
</clipPath>
<clipPath id="clip1_9193_3908">
<rect width="16" height="16" fill="white" transform="translate(0 0.5)"/>
</clipPath>
</defs>
</svg>
