<svg width="17" height="17" viewBox="0 0 17 17" fill="none" xmlns="http://www.w3.org/2000/svg">
<g clip-path="url(#clip0_9193_3900)">
<path d="M6.16733 0.5C4.14533 0.5 2.50067 2.14467 2.50067 4.16667C2.50067 6.18867 4.14533 7.83333 6.16733 7.83333C8.18933 7.83333 9.834 6.18867 9.834 4.16667C9.834 2.14467 8.18933 0.5 6.16733 0.5ZM6.16733 5.16667C5.61533 5.16667 5.16733 4.71867 5.16733 4.16667C5.16733 3.61467 5.61533 3.16667 6.16733 3.16667C6.71933 3.16667 7.16733 3.61467 7.16733 4.16667C7.16733 4.71867 6.71933 5.16667 6.16733 5.16667ZM16.5067 13.2293C16.5067 14.012 16.052 14.7173 15.342 15.0473C14.0153 15.6647 11.622 16.5153 8.50667 16.5153C5.23667 16.5153 2.394 14.9533 1.31067 13.9187C0.789335 13.4207 0.499334 12.734 0.500001 12.0133C0.501334 10.7113 0.825334 8.61533 1.74067 6.48933C2.41067 7.76333 3.61333 8.71067 5.054 9.038C4.978 9.718 4.84933 10.3787 4.628 10.9613C4.978 10.538 6.62133 9.232 8.83933 9.182C10.2407 9.152 11.588 10.464 11.6187 10.494C11.7493 10.628 11.9227 10.6953 12.096 10.6953C12.264 10.6953 12.4313 10.632 12.5607 10.5067C12.8247 10.2493 12.83 9.82733 12.574 9.564C12.5427 9.53133 12.188 9.16733 11.6233 8.78333C12.2127 8.30067 12.996 7.83333 13.8393 7.83333C14.1367 7.83333 14.4287 7.84867 14.704 7.872C15.7287 7.96067 16.506 8.83467 16.506 9.86267V13.2293H16.5067Z" fill="#2A2A2A"/>
</g>
<defs>
<clipPath id="clip0_9193_3900">
<rect width="16" height="16" fill="white" transform="translate(0.5 0.5)"/>
</clipPath>
</defs>
</svg>
