<svg width="17" height="17" viewBox="0 0 17 17" fill="none" xmlns="http://www.w3.org/2000/svg">
<g clip-path="url(#clip0_9383_4307)">
<g clip-path="url(#clip1_9383_4307)">
<path d="M11.8333 4.16682C11.8333 3.83719 11.931 3.51496 12.1141 3.24087C12.2973 2.96679 12.5576 2.75317 12.8621 2.62703C13.1667 2.50088 13.5018 2.46787 13.8251 2.53218C14.1484 2.59649 14.4454 2.75523 14.6784 2.98831C14.9115 3.2214 15.0703 3.51837 15.1346 3.84167C15.1989 4.16498 15.1659 4.50009 15.0397 4.80463C14.9136 5.10917 14.7 5.36947 14.4259 5.55261C14.1518 5.73574 13.8296 5.83349 13.4999 5.83349C13.0579 5.83349 12.634 5.6579 12.3214 5.34534C12.0089 5.03278 11.8333 4.60885 11.8333 4.16682ZM15.3879 14.1602C15.1441 14.3793 14.8278 14.5004 14.4999 14.5002C14.2098 14.5003 13.9259 14.4165 13.6825 14.2588C13.439 14.1011 13.2464 13.8763 13.1279 13.6115C13.0818 13.4819 12.9966 13.3697 12.8842 13.2904C12.7717 13.2111 12.6375 13.1686 12.4999 13.1686C12.3623 13.1686 12.2281 13.2111 12.1157 13.2904C12.0033 13.3697 11.9181 13.4819 11.8719 13.6115C11.7534 13.8762 11.5607 14.101 11.3173 14.2587C11.0739 14.4164 10.79 14.5003 10.4999 14.5003C10.2099 14.5003 9.926 14.4164 9.68256 14.2587C9.43912 14.101 9.2465 13.8762 9.12793 13.6115C9.08175 13.4819 8.99661 13.3697 8.88417 13.2904C8.77174 13.2111 8.63752 13.1686 8.49993 13.1686C8.36234 13.1686 8.22812 13.2111 8.11569 13.2904C8.00325 13.3697 7.91811 13.4819 7.87193 13.6115C7.75336 13.8762 7.56074 14.101 7.3173 14.2587C7.07386 14.4164 6.78999 14.5003 6.49993 14.5003C6.20987 14.5003 5.926 14.4164 5.68256 14.2587C5.43912 14.101 5.2465 13.8762 5.12793 13.6115C5.08175 13.4819 4.99661 13.3697 4.88417 13.2904C4.77174 13.2111 4.63752 13.1686 4.49993 13.1686C4.36234 13.1686 4.22812 13.2111 4.11569 13.2904C4.00325 13.3697 3.91811 13.4819 3.87193 13.6115C3.75348 13.8763 3.56088 14.1011 3.31741 14.2588C3.07394 14.4165 2.79001 14.5003 2.49993 14.5002C2.1721 14.5004 1.85579 14.3793 1.61193 14.1602C1.5474 14.0984 1.47113 14.0503 1.38763 14.0186C1.30414 13.9869 1.21512 13.9723 1.12588 13.9757C1.03663 13.979 0.948977 14.0003 0.868111 14.0382C0.787245 14.0761 0.714818 14.1299 0.655131 14.1963C0.595444 14.2627 0.549713 14.3405 0.520654 14.4249C0.491594 14.5094 0.479799 14.5988 0.485967 14.6879C0.492135 14.777 0.516142 14.8639 0.556562 14.9436C0.596981 15.0232 0.65299 15.0939 0.721263 15.1515C1.20933 15.5911 1.84307 15.8341 2.49993 15.8335C3.24655 15.8273 3.96237 15.535 4.49993 15.0168C5.03404 15.5403 5.75208 15.8335 6.49993 15.8335C7.24778 15.8335 7.96582 15.5403 8.49993 15.0168C9.03404 15.5403 9.75208 15.8335 10.4999 15.8335C11.2478 15.8335 11.9658 15.5403 12.4999 15.0168C13.0375 15.535 13.7533 15.8273 14.4999 15.8335C15.1568 15.8341 15.7905 15.5911 16.2786 15.1515C16.3469 15.0939 16.4029 15.0232 16.4433 14.9436C16.4837 14.8639 16.5077 14.777 16.5139 14.6879C16.5201 14.5988 16.5083 14.5094 16.4792 14.4249C16.4501 14.3405 16.4044 14.2627 16.3447 14.1963C16.285 14.1299 16.2126 14.0761 16.1317 14.0382C16.0509 14.0003 15.9632 13.979 15.874 13.9757C15.7847 13.9723 15.6957 13.9869 15.6122 14.0186C15.5287 14.0503 15.4525 14.0984 15.3879 14.1602ZM0.721263 11.8182C1.20933 12.2578 1.84307 12.5008 2.49993 12.5002C3.24655 12.494 3.96237 12.2017 4.49993 11.6835C5.03404 12.207 5.75208 12.5002 6.49993 12.5002C7.24778 12.5002 7.96582 12.207 8.49993 11.6835C9.03404 12.207 9.75208 12.5002 10.4999 12.5002C11.2478 12.5002 11.9658 12.207 12.4999 11.6835C13.0375 12.2017 13.7533 12.494 14.4999 12.5002C15.1568 12.5008 15.7905 12.2578 16.2786 11.8182C16.3469 11.7606 16.4029 11.6899 16.4433 11.6102C16.4837 11.5306 16.5077 11.4437 16.5139 11.3546C16.5201 11.2655 16.5083 11.176 16.4792 11.0916C16.4501 11.0071 16.4044 10.9294 16.3447 10.863C16.285 10.7965 16.2126 10.7428 16.1317 10.7049C16.0509 10.667 15.9632 10.6457 15.874 10.6423C15.7847 10.639 15.6957 10.6535 15.6122 10.6852C15.5287 10.7169 15.4525 10.7651 15.3879 10.8268C15.1441 11.0459 14.8278 11.167 14.4999 11.1668C14.2098 11.167 13.9259 11.0832 13.6825 10.9255C13.439 10.7678 13.2464 10.543 13.1279 10.2782C13.0818 10.1486 12.9966 10.0364 12.8842 9.9571C12.7717 9.8778 12.6375 9.83523 12.4999 9.83523C12.3623 9.83523 12.2281 9.8778 12.1157 9.9571C12.0033 10.0364 11.9181 10.1486 11.8719 10.2782C11.7534 10.5429 11.5607 10.7676 11.3173 10.9254C11.0739 11.0831 10.79 11.167 10.4999 11.167C10.2099 11.167 9.926 11.0831 9.68256 10.9254C9.43912 10.7676 9.2465 10.5429 9.12793 10.2782C9.08175 10.1486 8.99661 10.0364 8.88417 9.9571C8.77174 9.8778 8.63752 9.83523 8.49993 9.83523C8.36234 9.83523 8.22812 9.8778 8.11569 9.9571C8.00325 10.0364 7.91811 10.1486 7.87193 10.2782C7.75336 10.5429 7.56074 10.7676 7.3173 10.9254C7.07386 11.0831 6.78999 11.167 6.49993 11.167C6.20987 11.167 5.926 11.0831 5.68256 10.9254C5.43912 10.7676 5.2465 10.5429 5.12793 10.2782C5.08175 10.1486 4.99661 10.0364 4.88417 9.9571C4.77174 9.8778 4.63752 9.83523 4.49993 9.83523C4.36234 9.83523 4.22812 9.8778 4.11569 9.9571C4.00325 10.0364 3.91811 10.1486 3.87193 10.2782C3.75348 10.543 3.56088 10.7678 3.31741 10.9255C3.07394 11.0832 2.79001 11.167 2.49993 11.1668C2.1721 11.167 1.85579 11.0459 1.61193 10.8268C1.5474 10.7651 1.47113 10.7169 1.38763 10.6852C1.30414 10.6535 1.21512 10.639 1.12588 10.6423C1.03663 10.6457 0.948977 10.667 0.868111 10.7049C0.787245 10.7428 0.714818 10.7965 0.655131 10.863C0.595444 10.9294 0.549713 11.0071 0.520654 11.0916C0.491594 11.176 0.479799 11.2655 0.485967 11.3546C0.492135 11.4437 0.516142 11.5306 0.556562 11.6102C0.596981 11.6899 0.65299 11.7606 0.721263 11.8182ZM2.5046 9.79749C2.55301 9.789 2.59871 9.76912 2.63793 9.73949C2.78376 9.36348 3.03987 9.04034 3.37264 8.81248C3.70541 8.58462 4.09929 8.46269 4.5026 8.46269C4.9059 8.46269 5.29978 8.58462 5.63255 8.81248C5.96532 9.04034 6.22143 9.36348 6.36726 9.73949C6.40711 9.76681 6.45429 9.78143 6.5026 9.78143C6.55091 9.78143 6.59809 9.76681 6.63793 9.73949C6.78376 9.36348 7.03987 9.04034 7.37264 8.81248C7.70541 8.58462 8.09929 8.46269 8.5026 8.46269C8.9059 8.46269 9.29978 8.58462 9.63255 8.81248C9.96532 9.04034 10.2214 9.36348 10.3673 9.73949C10.4071 9.76681 10.4543 9.78143 10.5026 9.78143C10.5509 9.78143 10.5981 9.76681 10.6379 9.73949C10.7834 9.36368 11.039 9.04058 11.3713 8.81253C11.7035 8.58448 12.0969 8.46212 12.4999 8.46149C12.5393 8.46149 12.5786 8.46149 12.6179 8.46549L8.50993 2.55882C8.20071 2.12226 7.78996 1.76743 7.31309 1.52493C6.83622 1.28243 6.30753 1.15953 5.7726 1.16682H2.49993C2.41449 1.16251 2.32906 1.17551 2.24877 1.20505C2.16848 1.23458 2.09499 1.28005 2.03272 1.33871C1.97045 1.39737 1.92068 1.46801 1.88641 1.54639C1.85213 1.62478 1.83405 1.70928 1.83326 1.79482C1.83326 1.97164 1.9035 2.1412 2.02852 2.26623C2.15355 2.39125 2.32312 2.46149 2.49993 2.46149H5.7726C6.0952 2.46147 6.41302 2.5395 6.69894 2.6889C6.98486 2.8383 7.23039 3.05465 7.4146 3.31949L7.91193 3.96016L0.499929 9.40016C0.838928 9.28002 1.20405 9.25352 1.55684 9.32344C1.90964 9.39337 2.23705 9.55713 2.5046 9.79749Z" fill="#2A2A2A"/>
</g>
</g>
<defs>
<clipPath id="clip0_9383_4307">
<rect width="16" height="16" fill="white" transform="translate(0.5 0.5)"/>
</clipPath>
<clipPath id="clip1_9383_4307">
<rect width="16" height="16" fill="white" transform="translate(0.5 0.5)"/>
</clipPath>
</defs>
</svg>
