<svg width="16" height="17" viewBox="0 0 16 17" fill="none" xmlns="http://www.w3.org/2000/svg">
<g clip-path="url(#clip0_9367_4356)">
<path d="M16 1.83333H15.3333V0.5H14V1.83333H2V0.5H0.666667V1.83333H0V3.16667H0.666667V4.5H2V3.16667H2.64933L6 8.04067V16.5H7.33333V13.1667H8.66667V16.5H10V8.04067L13.3507 3.16667H14V4.5H15.3333V3.16667H16V1.83333ZM8.98267 7.16667H7.018L4.268 3.16667H11.7327L8.98267 7.16667ZM6.66667 5.16667C6.66667 4.43 7.26333 3.83333 8 3.83333C8.73667 3.83333 9.33333 4.43 9.33333 5.16667C9.33333 5.90333 8.73667 6.5 8 6.5C7.26333 6.5 6.66667 5.90333 6.66667 5.16667Z" fill="#2A2A2A"/>
</g>
<defs>
<clipPath id="clip0_9367_4356">
<rect width="16" height="16" fill="white" transform="translate(0 0.5)"/>
</clipPath>
</defs>
</svg>
