<svg width="17" height="17" viewBox="0 0 17 17" fill="none" xmlns="http://www.w3.org/2000/svg">
<g clip-path="url(#clip0_9193_3896)">
<path d="M6.46393 2.5C6.46393 1.39533 7.37526 0.5 8.49993 0.5C9.62459 0.5 10.4639 1.39533 10.4639 2.5C10.4639 3.60467 9.62393 4.5 8.49993 4.5C7.37593 4.5 6.46393 3.60467 6.46393 2.5ZM16.3906 11.8647C16.1893 12.1727 15.7766 12.2593 15.4679 12.058L12.8013 10.3147C12.7193 10.2607 12.6499 10.1893 12.5979 10.106L11.6479 8.55867C11.5133 8.33933 11.3499 8.142 11.1659 7.96867V12.7433L14.5386 14.328C15.0919 14.6413 15.2999 15.232 15.0799 15.786C14.9039 16.23 14.4453 16.5 13.9673 16.5H7.83259C7.46459 16.5 7.16593 16.2013 7.16593 15.8333C7.16593 15.4653 7.46459 15.1667 7.83259 15.1667H10.2019C10.9146 15.1667 11.1299 14.1993 10.4853 13.8967C10.3966 13.8553 10.2999 13.8333 10.2019 13.8333H7.83259C6.72259 13.852 5.8326 14.7233 5.8326 15.8333C5.8326 16.5 5.16593 16.5 5.16593 16.5H3.0386C2.5586 16.5 2.09526 16.2313 1.91793 15.7853C1.6986 15.2313 1.91126 14.6387 2.4126 14.3527L5.8326 12.7433V8.06867C5.6626 8.246 5.51193 8.44533 5.38926 8.66533L4.41526 10.414C4.3626 10.508 4.28793 10.5887 4.19793 10.6473L1.53126 12.3907C1.4186 12.464 1.29193 12.4993 1.16726 12.4993C0.949929 12.4993 0.736595 12.3933 0.608595 12.1973C0.407262 11.8893 0.493929 11.476 0.801929 11.2747L3.33126 9.62133L4.22526 8.01667C4.97593 6.66867 6.39793 5.83267 7.94126 5.83267H9.16126C10.6393 5.83267 12.0119 6.6 12.7853 7.86L13.6573 9.27933L16.1986 10.9413C16.5066 11.1427 16.5933 11.556 16.3919 11.864L16.3906 11.8647Z" fill="#2A2A2A"/>
</g>
<defs>
<clipPath id="clip0_9193_3896">
<rect width="16" height="16" fill="white" transform="translate(0.5 0.5)"/>
</clipPath>
</defs>
</svg>
