<svg width="127" height="47" viewBox="0 0 127 47" fill="none" xmlns="http://www.w3.org/2000/svg">
<path d="M0 23.3947C0 11.0465 10.9341 1.52799 23.2135 2.82987C35.6788 4.15147 50.9339 5.43809 63.0819 5.43809C75.2299 5.43809 90.4849 4.15147 102.95 2.82987C115.23 1.52799 126.164 11.0465 126.164 23.3947C126.164 35.7354 115.242 45.2503 102.97 43.9502C90.4539 42.6242 75.144 41.3295 63.0819 41.3295C51.0197 41.3295 35.7098 42.6242 23.1934 43.9502C10.9214 45.2503 0 35.7354 0 23.3947Z" fill="#DFFD52"/>
<path d="M18.7303 28.2266V17.0266H23.8183C25.0343 17.0266 26.1063 17.2612 27.0343 17.7306C27.9623 18.1892 28.6877 18.8346 29.2103 19.6666C29.733 20.4986 29.9943 21.4852 29.9943 22.6266C29.9943 23.7572 29.733 24.7439 29.2103 25.5866C28.6877 26.4186 27.9623 27.0692 27.0343 27.5386C26.1063 27.9972 25.0343 28.2266 23.8183 28.2266H18.7303ZM21.3223 26.0986H23.6903C24.437 26.0986 25.0823 25.9599 25.6263 25.6826C26.181 25.3946 26.6077 24.9892 26.9063 24.4666C27.2157 23.9439 27.3703 23.3306 27.3703 22.6266C27.3703 21.9119 27.2157 21.2986 26.9063 20.7866C26.6077 20.2639 26.181 19.8639 25.6263 19.5866C25.0823 19.2986 24.437 19.1546 23.6903 19.1546H21.3223V26.0986ZM35.8691 28.3546C34.9518 28.3546 34.1358 28.1626 33.4211 27.7786C32.7171 27.3946 32.1571 26.8719 31.7411 26.2106C31.3358 25.5386 31.1331 24.7759 31.1331 23.9226C31.1331 23.0586 31.3358 22.2959 31.7411 21.6346C32.1571 20.9626 32.7171 20.4399 33.4211 20.0666C34.1358 19.6826 34.9518 19.4906 35.8691 19.4906C36.7758 19.4906 37.5864 19.6826 38.3011 20.0666C39.0158 20.4399 39.5758 20.9572 39.9811 21.6186C40.3864 22.2799 40.5891 23.0479 40.5891 23.9226C40.5891 24.7759 40.3864 25.5386 39.9811 26.2106C39.5758 26.8719 39.0158 27.3946 38.3011 27.7786C37.5864 28.1626 36.7758 28.3546 35.8691 28.3546ZM35.8691 26.3066C36.2851 26.3066 36.6584 26.2106 36.9891 26.0186C37.3198 25.8266 37.5811 25.5546 37.7731 25.2026C37.9651 24.8399 38.0611 24.4132 38.0611 23.9226C38.0611 23.4212 37.9651 22.9946 37.7731 22.6426C37.5811 22.2906 37.3198 22.0186 36.9891 21.8266C36.6584 21.6346 36.2851 21.5386 35.8691 21.5386C35.4531 21.5386 35.0798 21.6346 34.7491 21.8266C34.4184 22.0186 34.1518 22.2906 33.9491 22.6426C33.7571 22.9946 33.6611 23.4212 33.6611 23.9226C33.6611 24.4132 33.7571 24.8399 33.9491 25.2026C34.1518 25.5546 34.4184 25.8266 34.7491 26.0186C35.0798 26.2106 35.4531 26.3066 35.8691 26.3066ZM42.2575 28.2266V19.6186H44.6415V22.0026L44.1935 21.2826C44.5028 20.7066 44.9455 20.2639 45.5215 19.9546C46.0975 19.6452 46.7535 19.4906 47.4895 19.4906C48.1721 19.4906 48.7801 19.6292 49.3135 19.9066C49.8575 20.1732 50.2841 20.5892 50.5935 21.1546C50.9028 21.7092 51.0575 22.4239 51.0575 23.2986V28.2266H48.5615V23.6826C48.5615 22.9892 48.4068 22.4772 48.0975 22.1466C47.7988 21.8159 47.3721 21.6506 46.8175 21.6506C46.4228 21.6506 46.0655 21.7359 45.7455 21.9066C45.4361 22.0666 45.1908 22.3172 45.0095 22.6586C44.8388 22.9999 44.7535 23.4372 44.7535 23.9706V28.2266H42.2575ZM57.6545 28.3546C56.6731 28.3546 55.8091 28.1626 55.0625 27.7786C54.3265 27.3946 53.7558 26.8719 53.3505 26.2106C52.9451 25.5386 52.7425 24.7759 52.7425 23.9226C52.7425 23.0586 52.9398 22.2959 53.3345 21.6346C53.7398 20.9626 54.2891 20.4399 54.9825 20.0666C55.6758 19.6826 56.4598 19.4906 57.3345 19.4906C58.1771 19.4906 58.9345 19.6719 59.6065 20.0346C60.2891 20.3866 60.8278 20.8986 61.2225 21.5706C61.6171 22.2319 61.8145 23.0266 61.8145 23.9546C61.8145 24.0506 61.8091 24.1626 61.7985 24.2906C61.7878 24.4079 61.7771 24.5199 61.7665 24.6266H54.7745V23.1706H60.4545L59.4945 23.6026C59.4945 23.1546 59.4038 22.7652 59.2225 22.4346C59.0411 22.1039 58.7905 21.8479 58.4705 21.6666C58.1505 21.4746 57.7771 21.3786 57.3505 21.3786C56.9238 21.3786 56.5451 21.4746 56.2145 21.6666C55.8945 21.8479 55.6438 22.1092 55.4625 22.4506C55.2811 22.7812 55.1905 23.1759 55.1905 23.6346V24.0186C55.1905 24.4879 55.2918 24.9039 55.4945 25.2666C55.7078 25.6186 56.0011 25.8906 56.3745 26.0826C56.7585 26.2639 57.2065 26.3546 57.7185 26.3546C58.1771 26.3546 58.5771 26.2852 58.9185 26.1466C59.2705 26.0079 59.5905 25.7999 59.8785 25.5226L61.2065 26.9626C60.8118 27.4106 60.3158 27.7572 59.7185 28.0026C59.1211 28.2372 58.4331 28.3546 57.6545 28.3546Z" fill="#2A2A2A"/>
<circle cx="17.4019" cy="17.4019" r="17.4019" transform="matrix(-1 0 0 1 122.355 5.43945)" fill="#2A2A2A"/>
<path d="M106.142 28.7731L112.074 22.8407M112.074 22.8407L106.142 16.9082M112.074 22.8407H97.8363" stroke="#DFFD52" stroke-width="2" stroke-linecap="round" stroke-linejoin="round"/>
</svg>
