<svg width="20" height="20" viewBox="0 0 20 20" fill="none" xmlns="http://www.w3.org/2000/svg">
<g clip-path="url(#clip0_9026_4130)">
<path d="M16.1712 15.9242L18.4637 20H15.5954L14.1045 17.35C12.867 17.9733 11.4754 18.3333 9.99786 18.3333C8.52036 18.3333 7.1287 17.9742 5.8912 17.35L4.40036 20H1.5337L3.8262 15.9242C1.9912 14.2467 0.832031 11.8425 0.832031 9.16667C0.832031 4.1125 4.94453 0 9.9987 0C11.0395 0 12.037 0.1825 12.9704 0.504167L10.9054 2.56917C10.6079 2.52833 10.307 2.5 9.9987 2.5C6.32287 2.5 3.33203 5.49083 3.33203 9.16667C3.33203 12.8425 6.32287 15.8333 9.9987 15.8333C13.6745 15.8333 16.6654 12.8425 16.6654 9.16667C16.6654 8.85833 16.637 8.55667 16.5962 8.26L18.6612 6.195C18.9829 7.12833 19.1654 8.12583 19.1654 9.16667C19.1654 11.8425 18.0062 14.2467 16.1712 15.9242ZM12.4987 3.33333V4.89917L9.1162 8.28167C8.88953 8.50833 8.7487 8.82083 8.7487 9.16667C8.7487 9.85667 9.3087 10.4167 9.9987 10.4167C10.3445 10.4167 10.657 10.2758 10.8837 10.0492L14.2662 6.66667H15.832L18.332 4.16667H14.9987V0.833333L12.4987 3.33333ZM10.832 4.78917V4.27C9.28953 4.00667 7.65203 4.445 6.46286 5.63333C4.51286 7.58333 4.51286 10.755 6.46286 12.7042C8.41286 14.6533 11.5845 14.6542 13.5337 12.7042C14.722 11.5158 15.1612 9.8775 14.897 8.335H14.3395C12.9579 9.73167 11.8454 10.8575 11.7662 10.9358C10.7912 11.9108 9.20537 11.9108 8.23037 10.9358C7.25537 9.96083 7.25537 8.375 8.23037 7.4C8.58037 7.05 9.6312 5.99417 10.8312 4.78833L10.832 4.78917Z" fill="#DFFD52"/>
</g>
<defs>
<clipPath id="clip0_9026_4130">
<rect width="20" height="20" fill="white"/>
</clipPath>
</defs>
</svg>
