<svg width="20" height="20" viewBox="0 0 20 20" fill="none" xmlns="http://www.w3.org/2000/svg">
<g clip-path="url(#clip0_9026_4058)">
<path d="M8.33333 15C8.33333 15.8241 8.08896 16.6297 7.63112 17.3149C7.17329 18.0001 6.52254 18.5341 5.76118 18.8495C4.99982 19.1649 4.16205 19.2474 3.35379 19.0866C2.54554 18.9258 1.80311 18.529 1.22039 17.9463C0.637672 17.3636 0.240835 16.6211 0.0800632 15.8129C-0.0807085 15.0046 0.00180535 14.1668 0.317171 13.4055C0.632536 12.6441 1.16659 11.9934 1.85179 11.5355C2.537 11.0777 3.34258 10.8333 4.16667 10.8333C5.27133 10.8347 6.33037 11.2741 7.11149 12.0552C7.8926 12.8363 8.33201 13.8953 8.33333 15ZM15.8333 10.8333C15.0092 10.8333 14.2037 11.0777 13.5185 11.5355C12.8333 11.9934 12.2992 12.6441 11.9838 13.4055C11.6685 14.1668 11.586 15.0046 11.7467 15.8129C11.9075 16.6211 12.3043 17.3636 12.8871 17.9463C13.4698 18.529 14.2122 18.9258 15.0205 19.0866C15.8287 19.2474 16.6665 19.1649 17.4279 18.8495C18.1892 18.5341 18.84 18.0001 19.2978 17.3149C19.7556 16.6297 20 15.8241 20 15C19.9987 13.8953 19.5593 12.8363 18.7782 12.0552C17.997 11.2741 16.938 10.8347 15.8333 10.8333ZM10.5425 11.0342C10.6337 11.1124 10.7069 11.2094 10.7571 11.3186C10.8073 11.4278 10.8333 11.5465 10.8333 11.6667V15C10.8333 15.221 10.7455 15.433 10.5893 15.5893C10.433 15.7455 10.221 15.8333 10 15.8333C9.77899 15.8333 9.56703 15.7455 9.41075 15.5893C9.25447 15.433 9.16667 15.221 9.16667 15V12.0492L7.55167 10.6617C7.10722 10.2752 6.81405 9.74375 6.72417 9.16167C6.705 9.16667 6.68667 9.16667 6.66667 9.16667C6.00363 9.16667 5.36774 8.90327 4.8989 8.43443C4.43006 7.96559 4.16667 7.32971 4.16667 6.66667C4.16667 4.325 7.10084 3.33333 8.26917 3.33333C9.36417 3.34534 10.4294 3.69131 11.3225 4.325C11.3592 4.35167 14.7558 7.74167 14.7558 7.74167C14.8354 7.81854 14.8989 7.91049 14.9426 8.01216C14.9863 8.11383 15.0092 8.22318 15.0102 8.33383C15.0112 8.44448 14.9901 8.55421 14.9482 8.65663C14.9063 8.75904 14.8444 8.85209 14.7662 8.93033C14.6879 9.00857 14.5949 9.07045 14.4925 9.11235C14.39 9.15425 14.2803 9.17534 14.1697 9.17438C14.059 9.17341 13.9497 9.15042 13.848 9.10675C13.7463 9.06308 13.6544 8.99959 13.5775 8.92L10.805 6.15C10.805 6.15 8.735 8.05 8.59417 8.18333C8.5126 8.26338 8.4486 8.35952 8.40622 8.46565C8.36384 8.57178 8.34402 8.68557 8.34802 8.79978C8.35201 8.91398 8.37974 9.02611 8.42944 9.12902C8.47913 9.23192 8.54971 9.32336 8.63667 9.3975L10.5425 11.0342ZM15.8333 2.08333C15.8333 2.49538 15.7112 2.89817 15.4822 3.24077C15.2533 3.58337 14.9279 3.8504 14.5473 4.00808C14.1666 4.16576 13.7477 4.20702 13.3436 4.12664C12.9394 4.04625 12.5682 3.84783 12.2769 3.55647C11.9855 3.26511 11.7871 2.8939 11.7067 2.48977C11.6263 2.08564 11.6676 1.66676 11.8253 1.28608C11.9829 0.905397 12.25 0.580025 12.5926 0.351105C12.9352 0.122185 13.338 0 13.75 0C14.3025 0 14.8324 0.219493 15.2231 0.610194C15.6138 1.0009 15.8333 1.5308 15.8333 2.08333Z" fill="#DFFD52"/>
</g>
<defs>
<clipPath id="clip0_9026_4058">
<rect width="20" height="20" fill="white"/>
</clipPath>
</defs>
</svg>
