<svg width="20" height="20" viewBox="0 0 20 20" fill="none" xmlns="http://www.w3.org/2000/svg">
<g clip-path="url(#clip0_9051_3756)">
<path d="M20 2.50034V17.1762L10 20.0337L0 17.1762V3.33367C0 2.54201 0.3625 1.81451 0.995 1.33784C1.2025 1.18117 1.43083 1.07451 1.66667 0.989506V15.9195L10 18.3003L18.3333 15.9195V0.156172C18.5692 0.241172 18.7983 0.347839 19.005 0.504506C19.6375 0.981173 20 1.70867 20 2.50034ZM10.8333 2.80951V14.6953L10 14.9337L9.16667 14.6953V2.80951C9.16667 1.69951 8.42083 0.710339 7.29083 0.390339L5.9 0.0578391C4.59083 -0.254661 3.33333 0.738672 3.33333 2.08451V14.762L10 16.667L16.6667 14.762V2.11284C16.6667 0.782006 15.4358 -0.207994 14.1358 0.0778391L12.6458 0.405339C11.5783 0.710339 10.8325 1.69951 10.8325 2.80951H10.8333Z" fill="#DFFD52"/>
</g>
<defs>
<clipPath id="clip0_9051_3756">
<rect width="20" height="20" fill="white"/>
</clipPath>
</defs>
</svg>
