<svg width="127" height="47" viewBox="0 0 127 47" fill="none" xmlns="http://www.w3.org/2000/svg">
<path d="M0 23.3947C0 11.0465 10.9341 1.52799 23.2135 2.82987C35.6788 4.15147 50.9339 5.43809 63.0819 5.43809C75.2299 5.43809 90.4849 4.15147 102.95 2.82987C115.23 1.52799 126.164 11.0465 126.164 23.3947C126.164 35.7354 115.242 45.2503 102.97 43.9502C90.4539 42.6242 75.144 41.3295 63.0819 41.3295C51.0197 41.3295 35.7098 42.6242 23.1934 43.9502C10.9214 45.2503 0 35.7354 0 23.3947Z" fill="#9A9A9A"/>
<circle cx="17.4019" cy="17.4019" r="17.4019" transform="matrix(-1 0 0 1 122.355 5.43945)" fill="#2A2A2A"/>
<path d="M106.142 28.7731L112.074 22.8407M112.074 22.8407L106.142 16.9082M112.074 22.8407H97.8363" stroke="#6D6D6D" stroke-width="2" stroke-linecap="round" stroke-linejoin="round"/>
</svg>
