<svg width="21" height="20" viewBox="0 0 21 20" fill="none" xmlns="http://www.w3.org/2000/svg">
<path d="M17.168 15.0004H3.83464V13.872C3.83214 13.3345 4.00427 12.8106 4.32513 12.3793C4.64599 11.948 5.09822 11.6325 5.6138 11.4804C6.52194 11.2546 7.33746 10.7522 7.94748 10.0426C8.55751 9.33294 8.93189 8.45126 9.0188 7.51953H3.83464V6.70786C3.83645 6.20515 3.98912 5.71455 4.2729 5.29959C4.55667 4.88462 4.95848 4.5644 5.4263 4.38036C6.96797 3.75453 7.91797 2.97453 8.49547 0.651198L8.65214 0.0195312H9.30297C17.078 0.0195312 17.168 7.03203 17.168 7.10286V15.0004ZM18.8346 20.0004H2.16797V19.167C2.16797 18.504 2.43136 17.8681 2.9002 17.3993C3.36904 16.9304 4.00493 16.667 4.66797 16.667H16.3346C16.9977 16.667 17.6336 16.9304 18.1024 17.3993C18.5712 17.8681 18.8346 18.504 18.8346 19.167V20.0004Z" fill="#DFFD52"/>
</svg>
