<svg width="24" height="24" viewBox="0 0 24 24" fill="none" xmlns="http://www.w3.org/2000/svg">
<g clip-path="url(#clip0_9076_3912)">
<path d="M24 4C24 1.794 22.206 0 20 0C17.794 0 16 1.794 16 4C16 4.067 16.017 4.13 16.02 4.196L7.386 6.894C6.679 5.761 5.431 5 4 5C1.794 5 0 6.794 0 9C0 11.206 1.794 13 4 13C4.802 13 5.547 12.757 6.174 12.349L12.484 18.133C12.185 18.693 12 19.322 12 20C12 22.206 13.794 24 16 24C18.206 24 20 22.206 20 20C20 18.487 19.146 17.184 17.904 16.504L20.031 7.997C22.222 7.98 24 6.195 24 4ZM16.614 6.106C16.979 6.69 17.49 7.164 18.096 7.496L15.97 16.004C15.18 16.01 14.446 16.249 13.827 16.651L7.517 10.867C7.816 10.307 8.001 9.678 8.001 9C8.001 8.933 7.984 8.87 7.981 8.804L16.614 6.106Z" fill="#233102"/>
</g>
<defs>
<clipPath id="clip0_9076_3912">
<rect width="24" height="24" fill="white"/>
</clipPath>
</defs>
</svg>
