<svg width="21" height="20" viewBox="0 0 21 20" fill="none" xmlns="http://www.w3.org/2000/svg">
<g clip-path="url(#clip0_9044_3620)">
<path d="M19.6464 11.6675C14.6431 11.6675 12.3131 15.065 11.3356 17.2275V13.1725C12.0722 12.8617 12.5897 12.1325 12.5897 11.2825L12.1764 9.4225L13.6131 10.6742C14.6081 11.2158 15.8539 10.8475 16.3956 9.8525C16.9372 8.8575 16.5689 7.61167 15.5739 7.07L14.1689 6.66667L15.5739 6.26333C16.5689 5.72167 16.9372 4.47667 16.3956 3.48083C15.8539 2.48583 14.6089 2.1175 13.6131 2.65917L12.1764 3.91083L12.5897 2.05083C12.5897 0.918333 11.6714 0 10.5381 0C9.40474 0 8.48724 0.918333 8.48724 2.05083L8.90057 3.91083L7.46391 2.65917C6.46891 2.1175 5.22307 2.48583 4.68224 3.48083C4.14141 4.47583 4.50891 5.72167 5.50391 6.26333L6.90891 6.66667L5.50391 7.07C4.50891 7.61167 4.14057 8.85667 4.68224 9.8525C5.22391 10.8483 6.46891 11.2158 7.46391 10.6742L8.90057 9.4225L8.48724 11.2825C8.48724 12.1033 8.97307 12.8067 9.66891 13.1342V17.2275C8.69224 15.0642 6.36141 11.6675 1.35807 11.6675H0.503906L0.60974 12.6042C1.27141 18.455 6.74891 20.0008 9.55224 20.0008H11.4522C14.2564 20.0008 19.7322 18.455 20.3947 12.6042L20.5006 11.6675H19.6464ZM8.83391 6.6675C8.83391 5.74667 9.57974 5.00083 10.5006 5.00083C11.4214 5.00083 12.1672 5.74667 12.1672 6.6675C12.1672 7.58833 11.4214 8.33417 10.5006 8.33417C9.57974 8.33417 8.83391 7.58833 8.83391 6.6675Z" fill="#2A2A2A"/>
</g>
<defs>
<clipPath id="clip0_9044_3620">
<rect width="20" height="20" fill="white" transform="translate(0.5)"/>
</clipPath>
</defs>
</svg>
