<svg width="127" height="47" viewBox="0 0 127 47" fill="none" xmlns="http://www.w3.org/2000/svg">
<path d="M0 23.3947C0 11.0465 10.9341 1.52799 23.2135 2.82987C35.6788 4.15147 50.9339 5.43809 63.0819 5.43809C75.2299 5.43809 90.4849 4.15147 102.95 2.82987C115.23 1.52799 126.164 11.0465 126.164 23.3947C126.164 35.7354 115.242 45.2503 102.97 43.9502C90.4539 42.6242 75.144 41.3295 63.0819 41.3295C51.0197 41.3295 35.7098 42.6242 23.1934 43.9502C10.9214 45.2503 0 35.7354 0 23.3947Z" fill="#DFFD52"/>
<path d="M22.7303 17.0426C24.725 17.0426 26.2557 17.5332 27.3223 18.5146C28.389 19.4852 28.9223 20.8399 28.9223 22.5786C28.9223 24.3172 28.3997 25.6932 27.3543 26.7066C26.3197 27.7199 24.7357 28.2266 22.6023 28.2266H18.7783V17.0426H22.7303ZM22.8583 26.0186C23.9997 26.0186 24.8743 25.7306 25.4823 25.1546C26.101 24.5786 26.4103 23.7412 26.4103 22.6426C26.4103 21.5439 26.101 20.7012 25.4823 20.1146C24.8743 19.5172 23.9357 19.2186 22.6663 19.2186H21.2743V26.0186H22.8583ZM32.7552 23.9226C32.7552 24.6266 32.9526 25.2026 33.3472 25.6506C33.7526 26.0879 34.2646 26.3066 34.8832 26.3066C35.5126 26.3066 36.0246 26.0879 36.4192 25.6506C36.8246 25.2026 37.0272 24.6266 37.0272 23.9226C37.0272 23.2186 36.8246 22.6426 36.4192 22.1946C36.0246 21.7466 35.5126 21.5226 34.8832 21.5226C34.2646 21.5226 33.7526 21.7466 33.3472 22.1946C32.9526 22.6426 32.7552 23.2186 32.7552 23.9226ZM39.4432 23.9226C39.4432 25.1706 39.0112 26.2212 38.1472 27.0746C37.2832 27.9279 36.1952 28.3546 34.8832 28.3546C33.5819 28.3546 32.4992 27.9279 31.6352 27.0746C30.7712 26.2212 30.3392 25.1706 30.3392 23.9226C30.3392 22.6746 30.7712 21.6239 31.6352 20.7706C32.4992 19.9066 33.5819 19.4746 34.8832 19.4746C36.1952 19.4746 37.2832 19.9066 38.1472 20.7706C39.0112 21.6239 39.4432 22.6746 39.4432 23.9226ZM43.6258 23.4266V28.2266H41.2258V19.6186H43.6258V20.5786C44.3512 19.8426 45.1672 19.4746 46.0738 19.4746C46.9805 19.4746 47.7378 19.7946 48.3458 20.4346C48.9645 21.0746 49.2738 21.9279 49.2738 22.9946V28.2266H46.8738V23.3626C46.8738 22.0399 46.3885 21.3786 45.4178 21.3786C44.9378 21.3786 44.5165 21.5546 44.1538 21.9066C43.8018 22.2479 43.6258 22.7546 43.6258 23.4266ZM58.9006 26.9786C57.9299 27.8959 56.7886 28.3546 55.4766 28.3546C54.1753 28.3546 53.0979 27.9546 52.2446 27.1546C51.3913 26.3439 50.9646 25.2612 50.9646 23.9066C50.9646 22.5519 51.3966 21.4746 52.2606 20.6746C53.1353 19.8746 54.1646 19.4746 55.3486 19.4746C56.5326 19.4746 57.5353 19.8319 58.3566 20.5466C59.1886 21.2612 59.6046 22.2426 59.6046 23.4906V24.7706H53.3326C53.4073 25.2399 53.6526 25.6239 54.0686 25.9226C54.4846 26.2212 54.9539 26.3706 55.4766 26.3706C56.3193 26.3706 57.0126 26.0879 57.5566 25.5226L58.9006 26.9786ZM57.1726 23.0586C57.1193 22.5466 56.9273 22.1519 56.5966 21.8746C56.2659 21.5972 55.8606 21.4586 55.3806 21.4586C54.9113 21.4586 54.4793 21.6026 54.0846 21.8906C53.6899 22.1786 53.4606 22.5679 53.3966 23.0586H57.1726Z" fill="black"/>
<circle cx="17.4019" cy="17.4019" r="17.4019" transform="matrix(-1 0 0 1 121.355 5.43945)" fill="#2A2A2A"/>
<path d="M105.142 28.7731L111.074 22.8407M111.074 22.8407L105.142 16.9082M111.074 22.8407H96.8363" stroke="#DFFD52" stroke-width="2" stroke-linecap="round" stroke-linejoin="round"/>
</svg>
