<svg width="21" height="20" viewBox="0 0 21 20" fill="none" xmlns="http://www.w3.org/2000/svg">
<g clip-path="url(#clip0_9026_4078)">
<path d="M7.75214 0C5.22464 0 3.1688 2.05583 3.1688 4.58333C3.1688 7.11083 5.22464 9.16667 7.75214 9.16667C10.2796 9.16667 12.3355 7.11083 12.3355 4.58333C12.3355 2.05583 10.2796 0 7.75214 0ZM7.75214 5.83333C7.06214 5.83333 6.50214 5.27333 6.50214 4.58333C6.50214 3.89333 7.06214 3.33333 7.75214 3.33333C8.44214 3.33333 9.00214 3.89333 9.00214 4.58333C9.00214 5.27333 8.44214 5.83333 7.75214 5.83333ZM20.6763 15.9117C20.6763 16.89 20.108 17.7717 19.2205 18.1842C17.5621 18.9558 14.5705 20.0192 10.6763 20.0192C6.5888 20.0192 3.03547 18.0667 1.6813 16.7733C1.02964 16.1508 0.667137 15.2925 0.66797 14.3917C0.669637 12.7642 1.07464 10.1442 2.2188 7.48667C3.0563 9.07917 4.55964 10.2633 6.36047 10.6725C6.26547 11.5225 6.10464 12.3483 5.82797 13.0767C6.26547 12.5475 8.31964 10.915 11.0921 10.8525C12.8438 10.815 14.528 12.455 14.5663 12.4925C14.7296 12.66 14.9463 12.7442 15.163 12.7442C15.373 12.7442 15.5821 12.665 15.7438 12.5083C16.0738 12.1867 16.0805 11.6592 15.7605 11.33C15.7213 11.2892 15.278 10.8342 14.5721 10.3542C15.3088 9.75083 16.288 9.16667 17.3421 9.16667C17.7138 9.16667 18.0788 9.18583 18.423 9.215C19.7038 9.32583 20.6755 10.4183 20.6755 11.7033V15.9117H20.6763Z" fill="#DFFD52"/>
</g>
<defs>
<clipPath id="clip0_9026_4078">
<rect width="20" height="20" fill="white" transform="translate(0.667969)"/>
</clipPath>
</defs>
</svg>
