<svg width="14" height="15" viewBox="0 0 14 15" fill="none" xmlns="http://www.w3.org/2000/svg">
<path d="M12.6766 1.8234C12.3894 1.53629 12 1.375 11.5939 1.375C11.1878 1.375 10.7984 1.53629 10.5112 1.8234L9.83631 2.49832L12.0016 4.66365L12.6766 3.98874C12.9637 3.70158 13.125 3.31214 13.125 2.90607C13.125 2.5 12.9637 2.11056 12.6766 1.8234ZM11.3827 5.28257L9.2174 3.11724L2.1299 10.2047C1.76989 10.5646 1.50525 11.0084 1.3599 11.4962L0.893232 13.0625C0.870701 13.1381 0.869021 13.2183 0.888369 13.2948C0.907716 13.3713 0.947372 13.4411 1.00314 13.4968C1.05891 13.5526 1.12872 13.5923 1.20517 13.6116C1.28163 13.6309 1.3619 13.6293 1.43748 13.6067L3.00373 13.1401C3.49153 12.9947 3.93541 12.7301 4.29523 12.3701L11.3827 5.28257Z" fill="#233102"/>
</svg>
