<svg width="120" height="120" viewBox="0 0 120 120" fill="none" xmlns="http://www.w3.org/2000/svg">
<g clip-path="url(#clip0_9144_3932)">
<path d="M120 56.5908V63.607C119.638 65.0563 119.704 66.6375 119.506 68.1197C116.377 92.0341 98.3258 112.16 75.0044 118.09L63.6401 119.934C61.3343 119.835 58.9297 120.066 56.6239 119.934C1.779 116.739 -20.159 46.6759 23.4205 12.7807C61.4002 -16.7664 117.365 8.99264 120 56.5908ZM79.9124 37.9468C79.9124 27.0108 71.0516 18.1499 60.1155 18.1499C49.1795 18.1499 40.3187 27.0108 40.3187 37.9468C40.3187 48.8828 49.1795 57.7437 60.1155 57.7437C71.0516 57.7437 79.9124 48.8828 79.9124 37.9468ZM47.2031 67.3951C38.2435 68.1197 30.4038 74.6748 28.8226 83.6344C27.6697 90.2553 29.6791 92.6929 34.7518 96.2833C49.9371 106.89 70.0634 106.923 85.2816 96.3822C90.8155 92.5611 92.726 89.6954 91.112 82.7121C89.1026 74.016 81.3947 67.9221 72.5998 67.3292C65.5177 66.8351 54.2193 66.8021 47.1702 67.3951H47.2031Z" fill="#2A2A2A"/>
</g>
<defs>
<clipPath id="clip0_9144_3932">
<rect width="120" height="120" fill="white"/>
</clipPath>
</defs>
</svg>
