<svg width="20" height="20" viewBox="0 0 20 20" fill="none" xmlns="http://www.w3.org/2000/svg">
<g clip-path="url(#clip0_9042_3606)">
<path d="M13.3333 1.66667C13.3333 0.745833 14.0792 0 15 0C15.9208 0 16.6667 0.745833 16.6667 1.66667C16.6667 2.5875 15.9208 3.33333 15 3.33333C14.0792 3.33333 13.3333 2.5875 13.3333 1.66667ZM7.91667 4.16667C8.60667 4.16667 9.16667 3.60667 9.16667 2.91667C9.16667 2.22667 8.60667 1.66667 7.91667 1.66667C7.22667 1.66667 6.66667 2.22667 6.66667 2.91667C6.66667 3.60667 7.22667 4.16667 7.91667 4.16667ZM4.99167 15.5617L4.71167 15.8417C4.41083 16.1642 4.16667 16.4617 4.16667 16.9417V17.0825C4.16667 17.7717 3.60583 18.3325 2.91667 18.3325C2.2275 18.3325 1.66667 17.7717 1.66667 17.0825V0.833333C1.66667 0.3725 1.29333 0 0.833333 0C0.373333 0 0 0.3725 0 0.833333V17.0833C0 18.6917 1.30833 20 2.91667 20C4.53667 20.0058 5.8075 18.6717 5.83333 17.0833V15.9108C5.83333 15.4717 5.30167 15.2517 4.99167 15.5617ZM19.3625 10.4167C19.9208 11.1983 20.0817 11.9475 19.9633 12.7525C19.8242 13.6967 18.6758 14.0858 18.0008 13.4108L16.095 11.505C15.7908 11.8483 15.355 12.3 14.8092 12.77L15.0742 13.04C15.5733 13.5392 15.52 14.295 14.955 14.7192C14.3925 15.1408 13.6058 15.085 13.1083 14.5883C13.1083 14.5883 12.9292 14.405 12.7242 14.1958C11.8083 14.6667 10.7758 15 9.6675 15C7.44167 15 5.5075 13.6683 4.2775 12.5517C3.6775 12.0083 3.33333 11.2292 3.33333 10.4167C3.33333 9.60417 3.6775 8.825 4.2775 8.28083C5.42583 7.24 7.18917 6.02667 9.22583 5.86583C10.7308 4.77333 12.8908 4.68917 14.4183 5.79417C15.1133 6.28417 15.1833 7.28 14.6192 7.90333C15.2533 8.42917 15.7558 8.94667 16.095 9.32917L18.0008 7.42333C18.6758 6.74833 19.825 7.1375 19.9633 8.08167C20.0817 8.88583 19.9208 9.63583 19.3625 10.4175V10.4167ZM5.3975 11.3175C5.91 11.7825 6.56417 12.2917 7.30333 12.6825C7.40167 12.16 7.5 11.395 7.5 10.4167C7.5 9.42333 7.39833 8.6625 7.29917 8.1525C6.56167 8.5425 5.90917 9.05083 5.3975 9.515C5.14083 9.7475 5 10.0675 5 10.4167C5 10.7658 5.14083 11.0858 5.3975 11.3175ZM14.8317 10.4167C13.9817 9.46833 11.945 7.5 9.66833 7.5C9.40167 7.5 9.14083 7.535 8.8825 7.58417C9.0175 8.19167 9.1675 9.14 9.1675 10.4167C9.1675 11.6783 9.02167 12.6325 8.88833 13.25C9.145 13.2983 9.40417 13.3333 9.66917 13.3333C11.9467 13.3333 13.9825 11.3658 14.8317 10.4167Z" fill="#DFFD52"/>
</g>
<defs>
<clipPath id="clip0_9042_3606">
<rect width="20" height="20" fill="white"/>
</clipPath>
</defs>
</svg>
