<svg width="21" height="20" viewBox="0 0 21 20" fill="none" xmlns="http://www.w3.org/2000/svg">
<g clip-path="url(#clip0_9046_3665)">
<path d="M19.6667 4.16602H18.8333C18.3733 4.16602 18 4.53935 18 4.99935V9.16602C18 9.62518 17.6258 9.99935 17.1667 9.99935H16.3333V5.83268C16.3333 3.53518 14.4642 1.66602 12.1667 1.66602H4.66667C2.36917 1.66602 0.5 3.53518 0.5 5.83268V14.166C0.5 16.4635 2.36917 18.3327 4.66667 18.3327H12.1667C14.4642 18.3327 16.3333 16.4635 16.3333 14.166V11.666H17.1667C18.545 11.666 19.6667 10.5443 19.6667 9.16602V5.83268C20.1267 5.83268 20.5 5.45935 20.5 4.99935C20.5 4.53935 20.1267 4.16602 19.6667 4.16602ZM6.33333 14.166H5.5V14.9993C5.5 15.4602 5.12667 15.8327 4.66667 15.8327C4.20667 15.8327 3.83333 15.4602 3.83333 14.9993V14.166H3C2.54 14.166 2.16667 13.7935 2.16667 13.3327C2.16667 12.8718 2.54 12.4993 3 12.4993H3.83333V11.666C3.83333 11.206 4.20667 10.8327 4.66667 10.8327C5.12667 10.8327 5.5 11.206 5.5 11.666V12.4993H6.33333C6.79333 12.4993 7.16667 12.8718 7.16667 13.3327C7.16667 13.7935 6.79333 14.166 6.33333 14.166ZM10.0833 14.5827C9.39333 14.5827 8.83333 14.0227 8.83333 13.3327C8.83333 12.6427 9.39333 12.0827 10.0833 12.0827C10.7733 12.0827 11.3333 12.6427 11.3333 13.3327C11.3333 14.0227 10.7733 14.5827 10.0833 14.5827ZM4.25 9.16602C3.56083 9.16602 3 8.60518 3 7.91602V5.41602C3 4.72685 3.56083 4.16602 4.25 4.16602H12.5833C13.2725 4.16602 13.8333 4.72685 13.8333 5.41602V7.91602C13.8333 8.60518 13.2725 9.16602 12.5833 9.16602H4.25ZM13.4167 14.5827C12.7267 14.5827 12.1667 14.0227 12.1667 13.3327C12.1667 12.6427 12.7267 12.0827 13.4167 12.0827C14.1067 12.0827 14.6667 12.6427 14.6667 13.3327C14.6667 14.0227 14.1067 14.5827 13.4167 14.5827ZM4.66667 5.83268H12.1667V7.49935H4.66667V5.83268Z" fill="#2A2A2A"/>
</g>
<defs>
<clipPath id="clip0_9046_3665">
<rect width="20" height="20" fill="white" transform="translate(0.5)"/>
</clipPath>
</defs>
</svg>
