<svg width="21" height="20" viewBox="0 0 21 20" fill="none" xmlns="http://www.w3.org/2000/svg">
<path d="M7.33594 20.0011C6.6401 19.9157 5.95208 19.7793 5.28438 19.5339C3.48542 18.8735 1.88542 17.3688 1.16406 15.5959C5.80729 16.8756 10.6547 17.2168 15.4349 16.5251C16.901 16.3131 18.351 15.9866 19.7771 15.5949C19.8302 15.5918 19.8531 15.5907 19.8349 15.6527C19.7599 15.9079 19.4802 16.3537 19.3292 16.5907C18.1115 18.5058 15.9568 19.8459 13.6641 20.0011H7.33594Z" fill="#2A2A2A"/>
<path d="M20.3828 11.6193L18.7057 10.6229C18.5198 10.5271 18.301 10.5271 18.1156 10.6229L15.7875 12.001L13.4323 10.6229C13.2464 10.5271 13.0276 10.5271 12.8422 10.6229L10.5141 12.001L8.15885 10.6229C7.97292 10.5271 7.75417 10.5271 7.56875 10.6229L5.24063 12.001L2.88542 10.6229C2.70729 10.5307 2.50313 10.5286 2.32031 10.6094L0.617188 11.5995C0.791667 10.5031 1.20365 9.4401 1.83594 8.52708C1.93802 8.37969 2.41146 7.73906 2.55313 7.71979C3.27292 7.87083 3.9875 8.04635 4.71198 8.17656C9.24896 8.99114 13.9448 8.83958 18.4125 7.71875C18.5656 7.72344 18.813 8.06615 18.9141 8.19271C19.6901 9.16614 20.1938 10.3901 20.3828 11.6193Z" fill="#2A2A2A"/>
<path d="M20.3 14.2243C19.837 14.3473 19.3802 14.4952 18.9172 14.6181C12.9656 16.203 6.6026 16.0457 0.723438 14.2332L0.539062 13.0822L2.59219 11.8145L5.09427 13.254C5.41875 13.3061 5.6151 13.1368 5.88021 12.9905C6.55208 12.6197 7.18958 12.179 7.86563 11.8145L10.3677 13.254C10.6922 13.3061 10.8885 13.1368 11.1536 12.9905C11.8255 12.6197 12.463 12.179 13.1391 11.8145L15.6089 13.2478C15.8469 13.2973 15.9542 13.2421 16.1536 13.1462C16.9125 12.7816 17.6505 12.1936 18.4125 11.8145L20.4453 13.0233L20.3 14.2243Z" fill="#2A2A2A"/>
<path d="M15.8083 3.63177C15.9573 4.87344 16.6859 5.85833 17.5698 6.68801C16.7349 6.91822 15.8599 7.07812 14.9995 7.20208C11.1563 7.75572 7.20417 7.59635 3.42969 6.70676C4.31406 5.83958 5.0224 4.88541 5.21146 3.625L15.8083 3.63125V3.63177Z" fill="#2A2A2A"/>
<path d="M4.71224 0.0514323L16.2242 0.0410156C17.6945 0.227994 17.7013 2.26393 16.2242 2.45716H4.77943C3.33985 2.27278 3.28933 0.304557 4.71172 0.0514323H4.71224Z" fill="#2A2A2A"/>
</svg>
