<svg width="20" height="20" viewBox="0 0 20 20" fill="none" xmlns="http://www.w3.org/2000/svg">
<path d="M3.33375 10.5565C3.24875 11.369 3.20708 12.1815 3.20708 12.9815C3.20708 12.9932 3.20708 13.004 3.20708 13.0157H16.7921C16.7921 13.004 16.7921 12.9932 16.7921 12.9815C16.7921 12.179 16.7496 11.3657 16.6671 10.5557C17.8796 9.91565 18.6554 8.66148 18.6554 7.25232C18.6554 5.18898 16.9704 3.51065 14.8987 3.51065C14.6812 3.51065 14.4671 3.52898 14.2562 3.56482C13.5121 1.92232 11.8671 0.833984 9.99958 0.833984C8.13208 0.833984 6.48625 1.92232 5.74292 3.56482C5.53208 3.52898 5.31792 3.51065 5.10042 3.51065C3.02958 3.51065 1.34375 5.18898 1.34375 7.25232C1.34375 8.66315 2.12042 9.91732 3.33375 10.5565Z" fill="#DFFD52"/>
<path d="M3.27734 14.6816C3.46068 16.8483 3.94651 17.9158 3.97151 17.97C4.07234 18.1866 4.26234 18.35 4.49151 18.4175C4.59568 18.4483 7.07484 19.1675 10.0007 19.1675C12.9265 19.1675 15.4048 18.4483 15.509 18.4175C15.7407 18.3491 15.9323 18.1841 16.0323 17.965C16.0573 17.91 16.5398 16.8316 16.7232 14.6825L3.27734 14.6816Z" fill="#DFFD52"/>
</svg>
