<svg width="20" height="20" viewBox="0 0 20 20" fill="none" xmlns="http://www.w3.org/2000/svg">
<g clip-path="url(#clip0_9026_4068)">
<path d="M7.45491 2.5C7.45491 1.11917 8.59408 0 9.99991 0C11.4057 0 12.4549 1.11917 12.4549 2.5C12.4549 3.88083 11.4049 5 9.99991 5C8.59491 5 7.45491 3.88083 7.45491 2.5ZM19.8632 14.2058C19.6116 14.5908 19.0957 14.6992 18.7099 14.4475L15.3766 12.2683C15.2741 12.2008 15.1874 12.1117 15.1224 12.0075L13.9349 10.0733C13.7666 9.79917 13.5624 9.5525 13.3324 9.33583V15.3042L17.5482 17.285C18.2399 17.6767 18.4999 18.415 18.2249 19.1075C18.0049 19.6625 17.4316 20 16.8341 20H9.16574C8.70574 20 8.33241 19.6267 8.33241 19.1667C8.33241 18.7067 8.70574 18.3333 9.16574 18.3333H12.1274C13.0182 18.3333 13.2874 17.1242 12.4816 16.7458C12.3707 16.6942 12.2499 16.6667 12.1274 16.6667H9.16574C7.77824 16.69 6.66574 17.7792 6.66574 19.1667C6.66574 20 5.83241 20 5.83241 20H3.17324C2.57324 20 1.99408 19.6642 1.77241 19.1067C1.49824 18.4142 1.76408 17.6733 2.39074 17.3158L6.66574 15.3042V9.46083C6.45324 9.6825 6.26491 9.93167 6.11158 10.2067L4.89408 12.3925C4.82824 12.51 4.73491 12.6108 4.62241 12.6842L1.28908 14.8633C1.14824 14.955 0.989911 14.9992 0.834078 14.9992C0.562411 14.9992 0.295744 14.8667 0.135744 14.6217C-0.115922 14.2367 -0.00758909 13.72 0.377411 13.4683L3.53908 11.4017L4.65658 9.39583C5.59491 7.71083 7.37241 6.66583 9.30158 6.66583H10.8266C12.6741 6.66583 14.3899 7.625 15.3566 9.2L16.4466 10.9742L19.6232 13.0517C20.0082 13.3033 20.1166 13.82 19.8649 14.205L19.8632 14.2058Z" fill="#DFFD52"/>
</g>
<defs>
<clipPath id="clip0_9026_4068">
<rect width="20" height="20" fill="white"/>
</clipPath>
</defs>
</svg>
