<svg width="20" height="20" viewBox="0 0 20 20" fill="none" xmlns="http://www.w3.org/2000/svg">
<path fill-rule="evenodd" clip-rule="evenodd" d="M4.4475 18.0983C4.29868 18.0837 4.1505 18.0632 4.00333 18.0367C3.89524 18.0173 3.79417 17.9698 3.71028 17.8989C3.62639 17.8281 3.56265 17.7364 3.52547 17.633C3.4883 17.5297 3.479 17.4184 3.49852 17.3104C3.51805 17.2023 3.56569 17.1013 3.63667 17.0175C3.97855 16.6145 4.21201 16.1309 4.315 15.6125C4.33417 15.5167 4.29667 15.3483 4.10333 15.16C2.72833 13.8225 1.875 12.0083 1.875 10C1.875 5.80833 5.565 2.5 10 2.5C14.435 2.5 18.125 5.80833 18.125 10C18.125 14.1917 14.435 17.5 10 17.5C9.30583 17.5 8.63083 17.4192 7.98583 17.2675C6.93154 17.9301 5.68651 18.2224 4.4475 18.0983Z" fill="#233102"/>
</svg>
