<svg width="21" height="20" viewBox="0 0 21 20" fill="none" xmlns="http://www.w3.org/2000/svg">
<g clip-path="url(#clip0_9046_3675)">
<path d="M17.2153 14.0002L17.2986 14.0835C17.4878 14.2743 17.7222 14.4142 17.9799 14.4901C18.2377 14.566 18.5104 14.5755 18.7728 14.5177C19.031 14.4635 19.2714 14.3453 19.4719 14.1739C19.6724 14.0025 19.8266 13.7835 19.9203 13.5369C20.3804 12.3288 20.6004 11.0425 20.5678 9.75021C20.474 7.21188 19.43 4.80144 17.6426 2.99665C15.8553 1.19186 13.4551 0.124467 10.9178 0.00603998C9.57614 -0.0406115 8.2388 0.183365 6.98554 0.664617C5.73227 1.14587 4.58874 1.87454 3.62312 2.80719C2.65749 3.73985 1.88954 4.85738 1.36506 6.09318C0.840571 7.32897 0.570285 8.65772 0.570313 10.0002C0.5734 12.6514 1.62796 15.1932 3.50266 17.0679C5.37735 18.9426 7.9191 19.9971 10.5703 20.0002C10.852 20.0002 11.1286 19.9819 11.4036 19.9585C11.6123 19.941 11.8067 19.8454 11.9481 19.691C12.0896 19.5366 12.1677 19.3346 12.167 19.1252L12.1403 16.1352C12.1336 15.5444 12.3031 14.9649 12.6272 14.4708C12.9513 13.9767 13.4153 13.5905 13.96 13.3613C14.5046 13.1322 15.1052 13.0706 15.6851 13.1844C16.2649 13.2982 16.7976 13.5822 17.2153 14.0002ZM14.7636 6.70854C15.0026 6.64514 15.255 6.65401 15.4889 6.73403C15.7228 6.81405 15.9277 6.96163 16.0777 7.15811C16.2277 7.35459 16.3161 7.59114 16.3317 7.83786C16.3473 8.08458 16.2894 8.33038 16.1653 8.54419C16.0413 8.758 15.8566 8.93021 15.6346 9.03905C15.4126 9.14789 15.1634 9.18848 14.9184 9.15568C14.6733 9.12287 14.4435 9.01815 14.258 8.85476C14.0725 8.69136 13.9396 8.47663 13.8761 8.23771C13.834 8.07903 13.8235 7.91359 13.8453 7.75086C13.8671 7.58813 13.9207 7.43128 14.0031 7.28927C14.0855 7.14727 14.1951 7.0229 14.3256 6.92325C14.4561 6.82361 14.605 6.75065 14.7636 6.70854ZM7.07198 14.1252C6.83304 14.1886 6.58066 14.1797 6.34676 14.0997C6.11286 14.0197 5.90794 13.8721 5.75791 13.6756C5.60788 13.4792 5.51948 13.2426 5.50388 12.9959C5.48828 12.7492 5.54619 12.5034 5.67028 12.2896C5.79437 12.0758 5.97907 11.9035 6.20103 11.7947C6.42299 11.6859 6.67224 11.6453 6.91726 11.6781C7.16229 11.7109 7.39208 11.8156 7.57759 11.979C7.7631 12.1424 7.896 12.3571 7.95948 12.596C8.00164 12.7547 8.01213 12.9202 7.99034 13.0829C7.96855 13.2456 7.91492 13.4025 7.8325 13.5445C7.75009 13.6865 7.6405 13.8109 7.51001 13.9105C7.37952 14.0101 7.23067 14.0831 7.07198 14.1252ZM7.07198 9.12521C6.83304 9.18861 6.58066 9.17974 6.34676 9.09972C6.11286 9.01969 5.90794 8.87211 5.75791 8.67564C5.60788 8.47916 5.51948 8.24261 5.50388 7.99589C5.48828 7.74917 5.54619 7.50337 5.67028 7.28956C5.79437 7.07575 5.97907 6.90354 6.20103 6.7947C6.42299 6.68585 6.67224 6.64527 6.91726 6.67807C7.16229 6.71087 7.39208 6.81559 7.57759 6.97899C7.7631 7.14239 7.896 7.35712 7.95948 7.59604C8.00164 7.75472 8.01213 7.92015 7.99034 8.08289C7.96855 8.24562 7.91492 8.40247 7.8325 8.54447C7.75009 8.68647 7.6405 8.81085 7.51001 8.91049C7.37952 9.01014 7.23067 9.0831 7.07198 9.12521ZM11.2386 6.62521C10.9997 6.68861 10.7473 6.67974 10.5134 6.59972C10.2795 6.51969 10.0746 6.37211 9.92458 6.17563C9.77455 5.97916 9.68615 5.7426 9.67055 5.49589C9.65495 5.24917 9.71286 5.00337 9.83695 4.78956C9.96104 4.57575 10.1457 4.40354 10.3677 4.2947C10.5897 4.18585 10.8389 4.14527 11.0839 4.17807C11.329 4.21087 11.5587 4.31559 11.7443 4.47899C11.9298 4.64239 12.0627 4.85712 12.1261 5.09604C12.1683 5.25472 12.1788 5.42015 12.157 5.58289C12.1352 5.74562 12.0816 5.90247 11.9992 6.04447C11.9168 6.18648 11.8072 6.31085 11.6767 6.41049C11.5462 6.51014 11.3973 6.5831 11.2386 6.62521Z" fill="#2A2A2A"/>
</g>
<defs>
<clipPath id="clip0_9046_3675">
<rect width="20" height="20" fill="white" transform="translate(0.5)"/>
</clipPath>
</defs>
</svg>
