<svg width="20" height="20" viewBox="0 0 20 20" fill="none" xmlns="http://www.w3.org/2000/svg">
<g clip-path="url(#clip0_9110_3227)">
<path d="M2.07598 13.7987L6.20098 17.9237L4.97932 19.1453C4.43231 19.6923 3.6904 19.9997 2.91682 19.9997C2.14323 19.9997 1.40132 19.6923 0.854316 19.1453C0.307306 18.5983 0 17.8564 0 17.0828C0 16.3093 0.307306 15.5673 0.854316 15.0203L2.07598 13.7987ZM19.986 11.0487L19.4618 11.5737C16.0535 14.9828 11.7818 16.402 7.89348 17.2562L2.74015 12.1062C3.59432 8.21867 5.01265 3.94784 8.42265 0.537839L8.94682 0.0136719L9.53015 0.472839C9.61348 0.540339 10.3743 1.13951 10.7535 1.52201C11.0609 1.83667 11.2848 2.22306 11.4051 2.64617C11.7983 2.50552 12.2192 2.46004 12.6333 2.51345C13.0474 2.56686 13.443 2.71764 13.7876 2.95344C14.1322 3.18924 14.416 3.50334 14.6157 3.87C14.8155 4.23666 14.9255 4.64544 14.9368 5.06284C15.6063 5.08003 16.2441 5.35182 16.7201 5.82284L16.7285 5.83117L16.7368 5.83867C17.0878 6.19039 17.331 6.63507 17.4377 7.12035C17.5444 7.60563 17.5103 8.11131 17.3393 8.57784C17.7672 8.70499 18.158 8.93371 18.4785 9.2445C18.8577 9.62367 19.4602 10.3828 19.5277 10.4678L19.986 11.0487ZM14.161 7.01367L9.56015 11.6145L10.3101 12.3645C12.1618 11.1895 13.9121 9.8618 15.5426 8.39534C15.7268 8.21195 15.831 7.96237 15.8326 7.70247C15.8341 7.44258 15.7329 7.1926 15.551 7.00701C15.362 6.83059 15.1125 6.7333 14.854 6.73516C14.5954 6.73702 14.3474 6.83789 14.161 7.017V7.01367ZM5.74432 7.79951L6.41098 8.46617C7.38386 6.96989 8.44315 5.53162 9.58348 4.15867V4.15367C9.76884 3.95663 9.87135 3.69586 9.8698 3.42534C9.86825 3.15482 9.76275 2.89525 9.57515 2.70034C9.45848 2.58284 9.27265 2.42034 9.08432 2.26117C7.64117 3.88838 6.50906 5.76675 5.74432 7.80284V7.79951ZM8.38181 10.4362L12.9851 5.83284C13.16 5.6451 13.2549 5.39671 13.2498 5.14023C13.2447 4.88376 13.1399 4.63933 12.9578 4.4587C12.7757 4.27807 12.5304 4.17541 12.2739 4.17245C12.0173 4.16949 11.7698 4.26646 11.5835 4.44284C10.1182 6.07366 8.79108 7.82359 7.61598 9.67451L8.38181 10.4362ZM17.7385 10.9145C17.5802 10.7253 17.416 10.5395 17.2993 10.422C17.0982 10.2255 16.8304 10.1121 16.5493 10.1045C16.4265 10.0973 16.3035 10.1152 16.1879 10.1572C16.0722 10.1992 15.9664 10.2643 15.8768 10.3487C14.4875 11.5076 13.0302 12.5826 11.5126 13.5678L12.196 14.252C14.2319 13.4884 16.1105 12.3577 17.7385 10.9162V10.9145Z" fill="#DFFD52"/>
</g>
<defs>
<clipPath id="clip0_9110_3227">
<rect width="20" height="20" fill="white"/>
</clipPath>
</defs>
</svg>
