<svg width="20" height="20" viewBox="0 0 20 20" fill="none" xmlns="http://www.w3.org/2000/svg">
<g clip-path="url(#clip0_9026_4120)">
<path d="M10.9316 0.0482292C13.2514 0.261993 15.4234 1.28089 17.0707 2.92824C18.7181 4.57559 19.737 6.74752 19.9507 9.0674C18.7239 9.25014 17.4714 9.14318 16.2934 8.75509C15.1153 8.36699 14.0445 7.70853 13.1666 6.8324C12.2902 5.9546 11.6316 4.88378 11.2435 3.7057C10.8554 2.52762 10.7486 1.27502 10.9316 0.0482292ZM18.7932 10.8324C17.4311 10.833 16.0844 10.544 14.8425 9.98443C13.6005 9.42489 12.4918 8.60767 11.5898 7.58698C10.6878 6.56628 10.0131 5.36545 9.61055 4.06414C9.208 2.76283 9.08677 1.3908 9.2549 0.0390625C6.86488 0.21019 4.61688 1.23797 2.92386 2.93359C1.23084 4.62921 0.206518 6.87879 0.0390625 9.26906C1.4901 9.06761 2.96808 9.20528 4.35695 9.67126C5.74581 10.1372 7.00775 10.9188 8.04367 11.9547C9.07959 12.9905 9.86128 14.2524 10.3274 15.6412C10.7934 17.03 10.9312 18.508 10.7299 19.9591C13.1185 19.7922 15.3667 18.7695 17.0621 17.0787C18.7574 15.3878 19.786 13.1422 19.9591 10.7541C19.5724 10.8037 19.1831 10.8299 18.7932 10.8324ZM6.86573 13.1332C5.98468 12.254 4.90705 11.597 3.72189 11.2167C2.53672 10.8363 1.27805 10.7434 0.0498958 10.9457C0.267656 13.259 1.28582 15.4238 2.9288 17.0668C4.57179 18.7098 6.73659 19.728 9.0499 19.9457C9.25241 18.7184 9.15995 17.4604 8.78016 16.2758C8.40037 15.0912 7.74415 14.014 6.86573 13.1332Z" fill="#DFFD52"/>
</g>
<defs>
<clipPath id="clip0_9026_4120">
<rect width="20" height="20" fill="white"/>
</clipPath>
</defs>
</svg>
