<svg width="20" height="20" viewBox="0 0 20 20" fill="none" xmlns="http://www.w3.org/2000/svg">
<g clip-path="url(#clip0_9026_4109)">
<g clip-path="url(#clip1_9026_4109)">
<path d="M19.1942 0.0123022C19.0861 -0.00652753 18.9754 -0.00371804 18.8685 0.0205677C18.7616 0.0448535 18.6605 0.090132 18.5712 0.153777C18.4819 0.217422 18.4061 0.298166 18.3483 0.391325C18.2904 0.484484 18.2516 0.588205 18.2342 0.696469L16.675 9.98397L6.03 7.74314C5.30196 7.58987 4.5489 7.60101 3.82571 7.77575C3.10253 7.95048 2.42745 8.2844 1.8497 8.75316C1.27196 9.22192 0.806103 9.81371 0.486106 10.4854C0.16611 11.157 3.86812e-05 11.8916 0 12.6356L0 15.0006C0.00132369 16.3263 0.528533 17.5973 1.46593 18.5347C2.40332 19.4721 3.67432 19.9993 5 20.0006H10.0117C11.5516 20.001 13.0583 19.553 14.3479 18.7115C15.6376 17.8699 16.6543 16.6711 17.2742 15.2615C17.5574 14.5929 17.7456 13.888 17.8333 13.1673L19.8783 0.972302C19.8965 0.864341 19.8932 0.753863 19.8686 0.64718C19.844 0.540497 19.7987 0.439701 19.7352 0.350549C19.6716 0.261398 19.5911 0.185639 19.4983 0.127601C19.4055 0.0695634 19.3021 0.0303843 19.1942 0.0123022ZM9.14917 16.239C9.10963 16.4258 9.00709 16.5935 8.85873 16.7138C8.71036 16.8341 8.52518 16.8997 8.33417 16.8998C8.2759 16.8998 8.2178 16.8937 8.16083 16.8815L4.025 16.0065C3.80874 15.9607 3.61951 15.8309 3.49894 15.6457C3.37837 15.4604 3.33633 15.2348 3.38208 15.0186C3.42783 14.8023 3.55762 14.6131 3.74289 14.4925C3.92816 14.3719 4.15374 14.3299 4.37 14.3756L8.50583 15.2506C8.613 15.2732 8.71467 15.3167 8.80502 15.3786C8.89537 15.4405 8.97263 15.5197 9.03238 15.6114C9.09213 15.7032 9.1332 15.8059 9.15324 15.9136C9.17327 16.0213 9.17189 16.1318 9.14917 16.239ZM12.9117 13.5531C12.8725 13.7402 12.7702 13.9081 12.622 14.0287C12.4738 14.1493 12.2886 14.2153 12.0975 14.2156C12.0398 14.2156 11.9823 14.2097 11.9258 14.1981L4.83333 12.7106C4.71976 12.6954 4.61055 12.6569 4.51253 12.5975C4.41451 12.5381 4.32979 12.4592 4.26366 12.3656C4.19754 12.272 4.15142 12.1658 4.1282 12.0536C4.10498 11.9414 4.10515 11.8256 4.1287 11.7134C4.15226 11.6013 4.19869 11.4952 4.2651 11.4018C4.33151 11.3084 4.41646 11.2297 4.51466 11.1706C4.61285 11.1116 4.72217 11.0734 4.83579 11.0585C4.94941 11.0436 5.06489 11.0522 5.175 11.084L12.2675 12.5715C12.4827 12.617 12.6712 12.7457 12.7918 12.9296C12.9125 13.1135 12.9556 13.3376 12.9117 13.5531Z" fill="#2A2A2A"/>
</g>
</g>
<defs>
<clipPath id="clip0_9026_4109">
<rect width="20" height="20" fill="white"/>
</clipPath>
<clipPath id="clip1_9026_4109">
<rect width="20" height="20" fill="white"/>
</clipPath>
</defs>
</svg>
