<svg width="21" height="20" viewBox="0 0 21 20" fill="none" xmlns="http://www.w3.org/2000/svg">
<g clip-path="url(#clip0_9026_4093)">
<path d="M13.6654 2.08333C13.6654 0.9325 14.5979 0 15.7487 0C16.8995 0 17.832 0.9325 17.832 2.08333C17.832 3.23417 16.8995 4.16667 15.7487 4.16667C14.5979 4.16667 13.6654 3.23417 13.6654 2.08333ZM19.082 8.33333H17.7479L17.2587 7.42083C16.4595 5.9275 14.9112 5 13.2179 5H9.48203C8.8462 5 8.25286 5.285 7.85536 5.78167L6.4387 7.5525C6.00703 8.09167 6.09453 8.87833 6.6337 9.30917C7.17286 9.74 7.96036 9.6525 8.39036 9.11417L9.68203 7.5H11.3404C11.3404 7.5 9.7262 9.9975 9.69703 10.07C9.1587 11.3817 9.6387 12.8842 10.8862 13.6717L14.4979 15.7275V18.75C14.4979 19.4408 15.0579 20 15.7479 20C16.4379 20 16.9979 19.4408 16.9979 18.75V15.485C16.9979 14.7375 16.5945 14.0442 15.9445 13.6742L13.3037 12.1717L15.312 9.08167L15.6604 9.7325C16.0237 10.4117 16.727 10.8333 17.497 10.8333H19.0812C19.7712 10.8333 20.3312 10.2742 20.3312 9.58333C20.3312 8.8925 19.772 8.33333 19.082 8.33333ZM3.2487 3.33333H8.2487C8.93953 3.33333 9.4987 2.77417 9.4987 2.08333C9.4987 1.3925 8.93953 0.833333 8.2487 0.833333H3.2487C2.55786 0.833333 1.9987 1.3925 1.9987 2.08333C1.9987 2.77417 2.55786 3.33333 3.2487 3.33333ZM3.2487 9.16667H1.58203C0.891198 9.16667 0.332031 9.72583 0.332031 10.4167C0.332031 11.1075 0.891198 11.6667 1.58203 11.6667H3.2487C3.93953 11.6667 4.4987 11.1075 4.4987 10.4167C4.4987 9.72583 3.93953 9.16667 3.2487 9.16667ZM4.08203 5H2.41536C1.72453 5 1.16536 5.55917 1.16536 6.25C1.16536 6.94083 1.72453 7.5 2.41536 7.5H4.08203C4.77286 7.5 5.33203 6.94083 5.33203 6.25C5.33203 5.55917 4.77286 5 4.08203 5ZM10.1929 14.7858C9.6837 14.4883 9.05036 14.5925 8.66037 15H6.5812C5.89036 15 5.3312 15.5592 5.3312 16.25C5.3312 16.9408 5.89036 17.5 6.5812 17.5H9.33786C9.78203 17.5 10.1929 17.2642 10.417 16.88L10.642 16.4958C10.9895 15.9 10.7887 15.1342 10.1929 14.7858Z" fill="#DFFD52"/>
</g>
<defs>
<clipPath id="clip0_9026_4093">
<rect width="20" height="20" fill="white" transform="translate(0.332031)"/>
</clipPath>
</defs>
</svg>
