<svg width="21" height="20" viewBox="0 0 21 20" fill="none" xmlns="http://www.w3.org/2000/svg">
<g clip-path="url(#clip0_9044_3634)">
<path d="M20.4946 10.1342C20.4748 11.5929 20.1333 13.0293 19.4946 14.3409C19.4333 14.3402 19.372 14.3467 19.3121 14.36C17.7973 14.8054 16.2243 15.0214 14.6455 15.0009C12.9459 15.0484 11.2497 14.8233 9.6213 14.3342C9.42767 14.2685 9.25343 14.1557 9.1143 14.0059C8.97517 13.8561 8.87551 13.674 8.82433 13.4761C8.77315 13.2781 8.77205 13.0706 8.82113 12.8721C8.87021 12.6736 8.96793 12.4905 9.10547 12.3392C9.38606 12.027 9.6861 11.7328 10.0038 11.4584C10.1677 11.3264 10.363 11.2392 10.5707 11.2051C10.7784 11.1711 10.9913 11.1915 11.1888 11.2642C12.2542 11.6196 13.3698 11.8014 14.493 11.8025C16.605 11.7808 18.6744 11.2055 20.4946 10.1342ZM13.208 10.0209C13.3968 10.0515 13.5903 10.038 13.7731 9.98147C13.9559 9.92491 14.1231 9.82682 14.2617 9.69486C14.4002 9.5629 14.5064 9.40067 14.5718 9.22085C14.6372 9.04103 14.6602 8.84851 14.6388 8.65836C14.253 5.50891 12.8281 2.57798 10.5896 0.329193C10.5045 0.236922 10.4418 0.126284 10.4063 0.00585938C9.08801 0.0155228 7.78486 0.287768 6.57297 0.806693C7.83786 1.75043 8.89678 2.94244 9.68489 4.30973C10.473 5.67702 10.9737 7.1908 11.1563 8.75836C11.1906 8.99955 11.2955 9.22522 11.4577 9.407C11.6199 9.58877 11.8322 9.71855 12.068 9.78003C12.4422 9.88533 12.8231 9.96579 13.208 10.0209ZM17.9363 9.48503C18.7832 9.1742 19.59 8.76353 20.3396 8.26169C19.9959 6.33111 19.093 4.54391 17.7428 3.12178C16.3927 1.69965 14.6548 0.705169 12.7446 0.261693C14.6927 2.60355 15.9239 5.45765 16.2905 8.48169C16.3129 8.6658 16.3767 8.84243 16.4772 8.99834C16.5776 9.15425 16.712 9.28539 16.8704 9.38193C17.0288 9.47847 17.2069 9.53789 17.3915 9.55575C17.5761 9.5736 17.7624 9.54943 17.9363 9.48503ZM14.5013 16.6675C12.4487 16.7016 10.4062 16.3741 8.46713 15.7C8.31104 15.643 8.1448 15.619 7.97894 15.6295C7.81309 15.6401 7.65123 15.685 7.50363 15.7614C7.35603 15.8377 7.22591 15.9439 7.12151 16.0733C7.01711 16.2026 6.9407 16.3521 6.89713 16.5125C6.67391 17.392 6.57324 18.298 6.59797 19.205C8.58094 20.0479 10.7834 20.2269 12.8764 19.7152C14.9695 19.2035 16.8409 18.0286 18.2113 16.3659C16.9888 16.5976 15.7452 16.6987 14.5013 16.6675ZM9.5013 9.02669C9.4484 8.53505 9.35842 8.04811 9.23213 7.57003C9.17755 7.37153 9.07369 7.19005 8.9302 7.04244C8.78672 6.89483 8.60825 6.78586 8.41139 6.72567C8.21452 6.66548 8.00564 6.65602 7.80414 6.69815C7.60264 6.74029 7.41505 6.83266 7.2588 6.96669C4.85646 9.07561 3.14346 11.8579 2.34213 14.9525C2.30141 15.1845 2.27553 15.4189 2.26463 15.6542C2.97996 16.6944 3.88458 17.5909 4.9313 18.2967C5.0203 16.7178 5.43134 15.1737 6.13914 13.7596C6.84695 12.3454 7.83657 11.0909 9.04713 10.0734C9.20274 9.94941 9.32553 9.78915 9.40472 9.60665C9.48391 9.42416 9.51707 9.22501 9.5013 9.02669ZM6.9738 3.42503C6.37038 2.76111 5.67864 2.18322 4.91797 1.70753C3.07079 2.94148 1.68979 4.75822 0.995066 6.86822C0.300343 8.97821 0.331874 11.26 1.08463 13.35C2.16428 10.125 4.15436 7.28138 6.81463 5.16253C6.94292 5.06152 7.04928 4.93543 7.12721 4.79195C7.20514 4.64847 7.25302 4.49061 7.26792 4.32801C7.28281 4.16541 7.26441 4.00148 7.21385 3.84623C7.16328 3.69098 7.0816 3.54766 6.9738 3.42503Z" fill="#2A2A2A"/>
</g>
<defs>
<clipPath id="clip0_9044_3634">
<rect width="20" height="20" fill="white" transform="translate(0.5)"/>
</clipPath>
</defs>
</svg>
