<svg width="17" height="17" viewBox="0 0 17 17" fill="none" xmlns="http://www.w3.org/2000/svg">
<g clip-path="url(#clip0_9193_3887)">
<path d="M13.4393 13.2393L15.2733 16.5H12.9786L11.786 14.38C10.796 14.8787 9.68264 15.1667 8.50064 15.1667C7.31864 15.1667 6.2053 14.8793 5.2153 14.38L4.02264 16.5H1.7293L3.5633 13.2393C2.0953 11.8973 1.16797 9.974 1.16797 7.83333C1.16797 3.79 4.45797 0.5 8.5013 0.5C9.33397 0.5 10.132 0.646 10.8786 0.903333L9.22664 2.55533C8.98864 2.52267 8.74797 2.5 8.5013 2.5C5.56064 2.5 3.16797 4.89267 3.16797 7.83333C3.16797 10.774 5.56064 13.1667 8.5013 13.1667C11.442 13.1667 13.8346 10.774 13.8346 7.83333C13.8346 7.58667 13.812 7.34533 13.7793 7.108L15.4313 5.456C15.6886 6.20267 15.8346 7.00067 15.8346 7.83333C15.8346 9.974 14.9073 11.8973 13.4393 13.2393ZM10.5013 3.16667V4.41933L7.7953 7.12533C7.61397 7.30667 7.5013 7.55667 7.5013 7.83333C7.5013 8.38533 7.9493 8.83333 8.5013 8.83333C8.77797 8.83333 9.02797 8.72067 9.2093 8.53933L11.9153 5.83333H13.168L15.168 3.83333H12.5013V1.16667L10.5013 3.16667ZM9.16797 4.33133V3.916C7.93397 3.70533 6.62397 4.056 5.67264 5.00667C4.11264 6.56667 4.11264 9.104 5.67264 10.6633C7.23264 12.2227 9.76997 12.2233 11.3293 10.6633C12.28 9.71267 12.6313 8.402 12.42 7.168H11.974C10.8686 8.28533 9.97864 9.186 9.9153 9.24867C9.1353 10.0287 7.86664 10.0287 7.08664 9.24867C6.30664 8.46867 6.30664 7.2 7.08664 6.42C7.36664 6.14 8.2073 5.29533 9.1673 4.33067L9.16797 4.33133Z" fill="#DFFD52"/>
</g>
<defs>
<clipPath id="clip0_9193_3887">
<rect width="16" height="16" fill="white" transform="translate(0.5 0.5)"/>
</clipPath>
</defs>
</svg>
