<svg width="17" height="17" viewBox="0 0 17 17" fill="none" xmlns="http://www.w3.org/2000/svg">
<path d="M16.5 8.60467C16.4841 9.77192 16.2109 10.9213 15.6999 11.9708C15.6508 11.9703 15.6019 11.9755 15.5539 11.9862C14.342 12.3426 13.0835 12.5154 11.8203 12.499C10.4606 12.537 9.10349 12.3569 7.8007 11.9655C7.64579 11.913 7.50638 11.8227 7.39507 11.7028C7.28375 11.5829 7.20403 11.4372 7.16308 11.2788C7.12213 11.1204 7.12125 10.9543 7.16052 10.7955C7.19978 10.6367 7.27796 10.4902 7.388 10.3691C7.61249 10.1193 7.85254 9.88383 8.10672 9.66426C8.23788 9.55868 8.39414 9.48887 8.56029 9.46164C8.72644 9.43441 8.8968 9.45069 9.05479 9.50889C9.90718 9.7933 10.7998 9.93875 11.6983 9.93966C13.3881 9.92226 15.0437 9.46195 16.5 8.60467ZM10.6702 8.51398C10.8214 8.5385 10.9761 8.52771 11.1223 8.48246C11.2686 8.4372 11.4024 8.3587 11.5133 8.25311C11.6241 8.14752 11.7091 8.0177 11.7614 7.87381C11.8138 7.72992 11.8321 7.57587 11.815 7.42371C11.5063 4.90352 10.3664 2.55821 8.57542 0.758731C8.50731 0.684895 8.45713 0.596364 8.42874 0.5C7.37404 0.507733 6.33144 0.725582 5.36185 1.14082C6.37384 1.896 7.22104 2.84985 7.85157 3.94395C8.4821 5.03805 8.88269 6.24937 9.02879 7.50373C9.05626 7.69673 9.14015 7.87731 9.26993 8.02277C9.3997 8.16822 9.56957 8.27207 9.75817 8.32126C10.0576 8.40553 10.3623 8.46991 10.6702 8.51398ZM14.4532 8.08521C15.1307 7.83648 15.7762 7.50786 16.376 7.1063C16.101 5.56145 15.3786 4.13134 14.2984 2.99335C13.2182 1.85537 11.8278 1.05959 10.2995 0.704717C11.8581 2.57867 12.8431 4.86251 13.1364 7.28234C13.1544 7.42966 13.2054 7.571 13.2858 7.69576C13.3662 7.82052 13.4737 7.92546 13.6004 8.00271C13.7271 8.07996 13.8696 8.12751 14.0173 8.1418C14.165 8.15609 14.314 8.13674 14.4532 8.08521ZM11.705 13.8326C10.0628 13.8599 8.42864 13.5978 6.8773 13.0584C6.75241 13.0128 6.61941 12.9936 6.48672 13.002C6.35402 13.0105 6.22453 13.0464 6.10644 13.1075C5.98835 13.1686 5.88425 13.2536 5.80072 13.3571C5.71719 13.4606 5.65606 13.5803 5.62121 13.7086C5.44261 14.4123 5.36207 15.1374 5.38186 15.8631C6.96835 16.5376 8.73041 16.6808 10.405 16.2714C12.0795 15.8619 13.5768 14.9218 14.6732 13.5912C13.6951 13.7766 12.7001 13.8576 11.705 13.8326ZM7.70469 7.71845C7.66237 7.32504 7.59038 6.93539 7.48934 6.55283C7.44567 6.394 7.36258 6.24878 7.24778 6.13066C7.13298 6.01253 6.9902 5.92534 6.8327 5.87718C6.6752 5.82902 6.50808 5.82144 6.34686 5.85516C6.18565 5.88888 6.03557 5.96279 5.91056 6.07004C3.98855 7.75759 2.61805 9.98398 1.97694 12.4603C1.94436 12.6459 1.92365 12.8335 1.91494 13.0218C2.48724 13.8542 3.21098 14.5715 4.04842 15.1363C4.11963 13.8728 4.44848 12.6373 5.01477 11.5057C5.58106 10.374 6.37281 9.37024 7.34133 8.55599C7.46582 8.45681 7.56406 8.32857 7.62742 8.18253C7.69077 8.0365 7.71731 7.87714 7.70469 7.71845ZM5.68254 3.23601C5.19977 2.70475 4.64634 2.24232 4.03776 1.86167C2.5599 2.84908 1.45503 4.30283 0.899207 5.99124C0.343388 7.67966 0.368614 9.50556 0.970867 11.178C1.83464 8.59729 3.42683 6.32185 5.5552 4.62635C5.65784 4.54553 5.74293 4.44463 5.80528 4.32981C5.86763 4.215 5.90594 4.08868 5.91785 3.95857C5.92977 3.82846 5.91505 3.69729 5.87459 3.57306C5.83414 3.44882 5.76879 3.33414 5.68254 3.23601Z" fill="#DFFD52"/>
</svg>
