<svg width="17" height="17" viewBox="0 0 17 17" fill="none" xmlns="http://www.w3.org/2000/svg">
<g clip-path="url(#clip0_9367_4307)">
<path d="M1.16819 5.218C1.1622 4.60108 1.27845 3.98908 1.51021 3.41731C1.74198 2.84555 2.08468 2.32534 2.51854 1.88671C2.9524 1.44808 3.46882 1.09971 4.03802 0.861703C4.60721 0.623695 5.2179 0.500763 5.83486 0.5L9.16819 0.5C10.1759 0.50162 11.1561 0.828931 11.9626 1.43312C12.7691 2.03732 13.3587 2.88602 13.6435 3.85267C12.796 3.90027 11.9986 4.26987 11.4146 4.88589C10.8306 5.50191 10.5039 6.31779 10.5015 7.16667V9.83333C10.5015 10.0101 10.5718 10.1797 10.6968 10.3047C10.8218 10.4298 10.9914 10.5 11.1682 10.5C11.345 10.5 11.5146 10.4298 11.6396 10.3047C11.7646 10.1797 11.8349 10.0101 11.8349 9.83333V7.28C11.8233 6.75335 12.0125 6.24202 12.3639 5.84961C12.7153 5.4572 13.2028 5.21306 13.7275 5.16667C13.9991 5.15207 14.2707 5.193 14.5259 5.28696C14.7811 5.38091 15.0144 5.52592 15.2116 5.71311C15.4089 5.9003 15.5659 6.12575 15.673 6.37567C15.7802 6.62559 15.8352 6.89474 15.8349 7.16667V9.21667C15.8092 9.99879 15.5998 10.7639 15.2236 11.4501C14.8475 12.1363 14.3151 12.7243 13.6695 13.1667H2.38619L2.13486 12.8073C1.50556 11.9105 1.16801 10.8416 1.16819 9.746V7.46267C1.57175 7.70262 2.03202 7.83057 2.50152 7.83333H8.50152C8.67833 7.83333 8.8479 7.7631 8.97293 7.63807C9.09795 7.51305 9.16819 7.34348 9.16819 7.16667C9.16819 6.98986 9.09795 6.82029 8.97293 6.69526C8.8479 6.57024 8.67833 6.5 8.50152 6.5H2.50152C2.15577 6.50312 1.82256 6.37066 1.57331 6.13101C1.32407 5.89137 1.17864 5.56361 1.16819 5.218ZM2.50152 14.5V15.1667C2.50152 15.5203 2.642 15.8594 2.89205 16.1095C3.14209 16.3595 3.48123 16.5 3.83486 16.5H11.8349C12.1885 16.5 12.5276 16.3595 12.7777 16.1095C13.0277 15.8594 13.1682 15.5203 13.1682 15.1667V14.5H2.50152Z" fill="#DFFD52"/>
</g>
<defs>
<clipPath id="clip0_9367_4307">
<rect width="16" height="16" fill="white" transform="translate(0.5 0.5)"/>
</clipPath>
</defs>
</svg>
