<svg width="16" height="17" viewBox="0 0 16 17" fill="none" xmlns="http://www.w3.org/2000/svg">
<path d="M0.340947 16.4921C0.245103 16.3839 0.149258 16.2964 0.261771 16.1506C0.374284 16.0048 0.536803 16.134 0.620146 16.0756C0.703489 16.0173 0.695154 15.8424 0.790999 15.8424H1.24522V11.4317C1.24522 10.5404 2.2495 9.61575 3.13293 9.60742H7.15006C7.10839 9.80734 7.10422 9.98644 7.21257 10.1697H3.19544C2.5787 10.1697 1.9578 10.7153 1.84112 11.3151L1.80362 11.59V15.8466H2.25783C2.36618 15.8466 2.43285 16.0631 2.45786 16.0798C2.52453 16.1256 2.71622 16.059 2.7954 16.134C2.91624 16.2464 2.83707 16.4297 2.70789 16.5005H0.340947V16.4921Z" fill="#DFFD52"/>
<path d="M12.3403 16.4924C12.2236 16.4174 12.1736 16.3217 12.232 16.18C12.2903 16.0384 12.5778 16.1176 12.6195 16.0842C12.6612 16.0509 12.6695 15.8385 12.7945 15.8385H13.2488V11.4903C13.2488 10.8322 12.507 10.1658 11.8569 10.1658H8.21484L8.36069 9.60353H11.9194C12.782 9.59936 13.8072 10.5282 13.8072 11.3986V15.8427H14.2614C14.3656 15.8427 14.4197 16.0759 14.4364 16.0884C14.5072 16.1342 14.6906 16.0259 14.7906 16.1551C14.8906 16.2842 14.8364 16.4174 14.7114 16.4966H12.3362L12.3403 16.4924Z" fill="#DFFD52"/>
<path d="M10.9162 5.34078C10.8746 5.39076 10.8245 5.67814 10.7204 5.81559C10.3745 6.28207 9.08268 6.54446 8.51595 6.57778C7.94922 6.6111 8.12007 6.61943 8.05756 6.50698C7.86588 6.13629 7.74086 5.66981 7.54084 5.30746C7.34082 4.94511 6.79909 4.84931 6.53656 5.22C6.27403 5.59068 6.61573 6.01551 6.74075 6.41951C6.86576 6.82352 6.77408 6.46533 6.71158 6.44867C5.88231 6.23625 5.23641 5.07422 6.21569 4.58275C6.69908 4.34118 7.72836 4.48279 8.30343 4.45364C9.73276 4.387 10.8412 3.82889 12.1414 3.32493L14.6042 0.700987C15.2917 0.155374 16.1502 0.992536 15.6293 1.69225L13.0873 4.42448L12.8831 4.56193L10.9246 5.33245L10.9162 5.34078Z" fill="#DFFD52"/>
<path d="M4.12332 6.59832C4.83217 6.59832 5.40681 6.02584 5.40681 5.31967C5.40681 4.61349 4.83217 4.04102 4.12332 4.04102C3.41448 4.04102 2.83984 4.61349 2.83984 5.31967C2.83984 6.02584 3.41448 6.59832 4.12332 6.59832Z" fill="#DFFD52"/>
<path d="M6.89614 5.12394C7.07533 5.08645 7.25451 5.14893 7.36703 5.2947L8.40048 7.66458C8.28797 8.37679 8.31297 9.19729 8.17129 9.89284C8.05461 10.4801 7.36286 10.451 7.25451 9.89701L7.46287 7.78953L6.5586 5.66955C6.50026 5.44464 6.66695 5.17808 6.89614 5.13227V5.12394Z" fill="#DFFD52"/>
</svg>
