<svg width="16" height="16" viewBox="0 0 16 16" fill="none" xmlns="http://www.w3.org/2000/svg">
<g clip-path="url(#clip0_9193_3915)">
<path d="M6.66667 12C6.66667 12.6593 6.47117 13.3037 6.1049 13.8519C5.73863 14.4001 5.21803 14.8273 4.60895 15.0796C3.99986 15.3319 3.32964 15.3979 2.68303 15.2693C2.03643 15.1407 1.44249 14.8232 0.976312 14.357C0.510137 13.8908 0.192668 13.2969 0.0640506 12.6503C-0.0645668 12.0037 0.00144428 11.3335 0.253736 10.7244C0.506029 10.1153 0.93327 9.59471 1.48143 9.22843C2.0296 8.86216 2.67406 8.66667 3.33333 8.66667C4.21706 8.66772 5.0643 9.01925 5.68919 9.64415C6.31408 10.269 6.66561 11.1163 6.66667 12ZM12.6667 8.66667C12.0074 8.66667 11.3629 8.86216 10.8148 9.22843C10.2666 9.59471 9.83936 10.1153 9.58707 10.7244C9.33478 11.3335 9.26877 12.0037 9.39738 12.6503C9.526 13.2969 9.84347 13.8908 10.3096 14.357C10.7758 14.8232 11.3698 15.1407 12.0164 15.2693C12.663 15.3979 13.3332 15.3319 13.9423 15.0796C14.5514 14.8273 15.072 14.4001 15.4382 13.8519C15.8045 13.3037 16 12.6593 16 12C15.9989 11.1163 15.6474 10.269 15.0225 9.64415C14.3976 9.01925 13.5504 8.66772 12.6667 8.66667ZM8.434 8.82733C8.50697 8.88991 8.56554 8.96753 8.6057 9.05487C8.64586 9.14221 8.66666 9.2372 8.66667 9.33333V12C8.66667 12.1768 8.59643 12.3464 8.47141 12.4714C8.34638 12.5964 8.17681 12.6667 8 12.6667C7.82319 12.6667 7.65362 12.5964 7.5286 12.4714C7.40357 12.3464 7.33333 12.1768 7.33333 12V9.63933L6.04134 8.52933C5.68577 8.22015 5.45124 7.795 5.37933 7.32933C5.364 7.33333 5.34933 7.33333 5.33333 7.33333C4.8029 7.33333 4.29419 7.12262 3.91912 6.74755C3.54405 6.37247 3.33333 5.86377 3.33333 5.33333C3.33333 3.46 5.68067 2.66667 6.61533 2.66667C7.49133 2.67627 8.34353 2.95305 9.058 3.46C9.08733 3.48133 11.8047 6.19333 11.8047 6.19333C11.8683 6.25483 11.9191 6.32839 11.9541 6.40973C11.989 6.49107 12.0074 6.57855 12.0082 6.66707C12.0089 6.75559 11.9921 6.84337 11.9585 6.9253C11.925 7.00723 11.8755 7.08167 11.8129 7.14426C11.7503 7.20686 11.6759 7.25636 11.594 7.28988C11.512 7.3234 11.4243 7.34027 11.3357 7.3395C11.2472 7.33873 11.1597 7.32034 11.0784 7.2854C10.9971 7.25046 10.9235 7.19967 10.862 7.136L8.644 4.92C8.644 4.92 6.988 6.44 6.87533 6.54667C6.81008 6.6107 6.75888 6.68762 6.72497 6.77252C6.69107 6.85742 6.67521 6.94845 6.67841 7.03982C6.68161 7.13119 6.70379 7.22089 6.74355 7.30321C6.78331 7.38554 6.83977 7.45869 6.90934 7.518L8.434 8.82733ZM12.6667 1.66667C12.6667 1.9963 12.5689 2.31854 12.3858 2.59262C12.2026 2.8667 11.9424 3.08032 11.6378 3.20647C11.3333 3.33261 10.9982 3.36562 10.6749 3.30131C10.3515 3.237 10.0546 3.07827 9.82149 2.84518C9.5884 2.61209 9.42967 2.31512 9.36536 1.99182C9.30105 1.66852 9.33406 1.3334 9.4602 1.02886C9.58635 0.724317 9.79997 0.46402 10.0741 0.280884C10.3481 0.0977483 10.6704 0 11 0C11.442 0 11.866 0.175595 12.1785 0.488155C12.4911 0.800716 12.6667 1.22464 12.6667 1.66667Z" fill="#DFFD52"/>
</g>
<defs>
<clipPath id="clip0_9193_3915">
<rect width="16" height="16" fill="white"/>
</clipPath>
</defs>
</svg>
