<svg width="16" height="17" viewBox="0 0 16 17" fill="none" xmlns="http://www.w3.org/2000/svg">
<g clip-path="url(#clip0_9367_4323)">
<path d="M0.015625 8.18199C0.0811366 6.43316 0.721011 4.75463 1.83629 3.40599L2.57363 5.80599C2.61522 5.9408 2.61298 6.08533 2.56721 6.21879C2.52145 6.35224 2.43453 6.46774 2.31896 6.54865L0.015625 8.18199ZM7.60896 2.37399C7.72276 2.4565 7.85973 2.50093 8.00029 2.50093C8.14086 2.50093 8.27783 2.4565 8.39163 2.37399L10.4176 0.875321C8.83854 0.372627 7.14199 0.374957 5.56429 0.881987L7.60896 2.37399ZM13.6756 6.54465L15.9803 8.18199C15.9148 6.43316 15.2749 4.75463 14.1596 3.40599L13.4263 5.80199C13.3845 5.93659 13.3864 6.08098 13.4318 6.21442C13.4772 6.34785 13.5637 6.46347 13.679 6.54465H13.6756ZM4.46629 12.9553C4.42275 12.8218 4.33813 12.7054 4.22451 12.6228C4.1109 12.5402 3.9741 12.4956 3.83362 12.4953L1.07429 12.4907C2.05019 14.1779 3.60614 15.4528 5.45229 16.078L4.46629 12.9553ZM12.1603 12.4953C12.0196 12.4959 11.8827 12.541 11.7692 12.6241C11.6557 12.7072 11.5713 12.824 11.5283 12.958L10.5116 16.0913C12.3716 15.4695 13.9401 14.1892 14.9216 12.4913L12.1603 12.4953ZM9.10496 9.60266L9.59229 8.10066C9.61409 8.03375 9.61415 7.96167 9.59247 7.89473C9.5708 7.82779 9.5285 7.76942 9.47163 7.72799L8.19563 6.79999C8.13866 6.75858 8.07005 6.73627 7.99963 6.73627C7.9292 6.73627 7.86059 6.75858 7.80363 6.79999L6.52629 7.72799C6.46917 7.76937 6.42664 7.82781 6.40484 7.8949C6.38304 7.96199 6.38308 8.03426 6.40496 8.10132L6.89296 9.60266C6.91463 9.66961 6.95694 9.72799 7.01383 9.76942C7.07071 9.81086 7.13925 9.83322 7.20962 9.83332H8.78963C8.86011 9.83337 8.9288 9.81106 8.98582 9.76962C9.04284 9.72817 9.08525 9.66972 9.10696 9.60266H9.10496ZM8.99963 16.4333C8.66804 16.4767 8.33403 16.499 7.99963 16.5C7.65257 16.4975 7.30606 16.4724 6.96229 16.4247L5.73829 12.5507C5.60981 12.1477 5.35658 11.7961 5.01518 11.5465C4.67378 11.2968 4.26188 11.1622 3.83896 11.162L0.462292 11.156C0.301582 10.6998 0.182867 10.2298 0.107625 9.75199L3.08896 7.63332C3.4345 7.39076 3.69413 7.04479 3.83047 6.64524C3.96681 6.24569 3.97282 5.81317 3.84762 5.40999L2.90363 2.33865C3.28945 2.01939 3.70438 1.73705 4.14296 1.49532L6.82363 3.45132C7.16578 3.7007 7.57824 3.83505 8.00163 3.83505C8.42501 3.83505 8.83747 3.7007 9.17963 3.45132L11.8376 1.48732C12.2831 1.73171 12.7043 2.01789 13.0956 2.34199L12.1516 5.40932C12.0261 5.81239 12.0317 6.24491 12.1677 6.64458C12.3037 7.04425 12.563 7.39045 12.9083 7.63332L15.8916 9.75199C15.8165 10.2296 15.6977 10.6993 15.537 11.1553L12.159 11.162C11.7366 11.1624 11.3253 11.2969 10.9843 11.5461C10.6433 11.7953 10.3903 12.1464 10.2616 12.5487L8.99963 16.4333ZM8.78963 11.1667C9.14168 11.1667 9.48469 11.0552 9.76949 10.8483C10.0543 10.6413 10.2662 10.3495 10.375 10.0147L10.8623 8.51266C10.9719 8.178 10.9723 7.81718 10.8635 7.48226C10.7547 7.14735 10.5423 6.85567 10.257 6.64932L8.97896 5.72132C8.69463 5.5137 8.35168 5.40182 7.99963 5.40182C7.64757 5.40182 7.30462 5.5137 7.02029 5.72132L5.74229 6.64932C5.45634 6.85594 5.24355 7.14819 5.13472 7.48378C5.02589 7.81937 5.02668 8.18088 5.13696 8.51599L5.62496 10.018C5.73367 10.3524 5.94563 10.6438 6.23037 10.8502C6.51511 11.0566 6.85795 11.1674 7.20962 11.1667H8.78963Z" fill="#DFFD52"/>
</g>
<defs>
<clipPath id="clip0_9367_4323">
<rect width="16" height="16" fill="white" transform="translate(0 0.5)"/>
</clipPath>
</defs>
</svg>
