<svg width="16" height="17" viewBox="0 0 16 17" fill="none" xmlns="http://www.w3.org/2000/svg">
<path d="M1.21614 16.4818C0.504911 16.3942 0.0724082 15.706 0.351132 15.1387C0.98547 15.4348 1.62942 15.7268 2.33103 15.8895C2.26376 16.194 1.80723 16.4443 1.46603 16.4818C1.12483 16.5194 1.27381 16.4902 1.21614 16.4818Z" fill="#DFFD52"/>
<path d="M13.5081 16.4814C13.2775 16.398 12.9267 16.3062 12.8594 16.0768L14.7864 15.5137C14.8249 15.9892 14.3972 16.3563 13.9022 16.4814H13.5081Z" fill="#DFFD52"/>
<path d="M9.07387 8.73633L9.17959 9.72077L11.9909 10.5926C13.6536 11.6646 14.4802 13.4458 15.1962 15.0726C14.509 15.3146 13.8266 15.5899 13.1154 15.7817C12.952 15.8276 12.1254 16.0571 12.0437 15.9486C11.7746 14.7306 11.1403 13.5834 10.6213 12.4321C9.8764 12.0567 9.00659 11.9274 8.20406 11.6813C8.16561 10.8011 7.83403 9.95853 7.59375 9.11175L9.06907 8.73633H9.07387Z" fill="#DFFD52"/>
<path d="M6.11751 9.36186C6.08387 9.64551 6.09348 9.93333 6.07907 10.2212C6.04543 10.9678 5.97815 11.7187 6.00698 12.4695C6.03582 13.2204 6.03582 12.5821 6.04543 12.6405L5.5024 12.7031C5.51201 12.3319 5.45915 11.9773 5.5024 11.6102L3.91655 12.6239C3.79161 13.1202 3.76277 13.6417 3.65225 14.1464C3.54172 14.6511 3.436 15.0516 3.22455 15.4312C3.0131 15.8108 2.99388 15.8316 2.85932 15.8191C2.73918 15.8066 2.37877 15.6815 2.2346 15.6356C1.44168 15.3895 0.687199 15.0558 0 14.6344L1.85015 11.0221C1.97029 10.8427 2.1481 10.6883 2.35954 10.5924L4.40672 9.88328L4.37308 9.38689C4.95456 9.41609 5.52643 9.41191 6.1031 9.35352L6.11751 9.36186Z" fill="#DFFD52"/>
<path d="M7.30577 9.2073C7.53163 9.91226 7.79594 10.6422 7.88724 11.3722C7.94491 11.8186 7.97855 12.3066 7.79594 12.7321L7.31538 12.6028C7.35863 12.4318 7.42591 12.2023 7.42591 12.0271C7.42591 11.8519 7.39707 11.5683 7.38266 11.5307C7.36824 11.4932 7.15679 11.4139 7.08471 11.3222C7.01263 11.2304 7.00782 11.0469 6.86365 10.9509C6.81079 11.0093 6.39271 11.2805 6.33984 11.2304L6.44557 9.34912L7.30577 9.20312V9.2073Z" fill="#DFFD52"/>
<path d="M6.02318 3.89548C7.10603 3.89548 7.98386 3.13538 7.98386 2.19774C7.98386 1.2601 7.10603 0.5 6.02318 0.5C4.94033 0.5 4.0625 1.2601 4.0625 2.19774C4.0625 3.13538 4.94033 3.89548 6.02318 3.89548Z" fill="#DFFD52"/>
<path d="M13.5805 3.71289C13.5853 4.14254 13.5613 4.58053 13.619 5.01018C13.6766 5.43983 13.6911 5.54411 13.8689 5.72765C13.8016 5.7944 13.6959 5.79857 13.5998 5.80691C12.5425 5.89034 9.66879 5.56497 8.96717 6.35336C8.90951 6.4201 8.87106 6.50353 8.82781 6.57861L9.00081 8.25132C7.55433 8.75188 5.92043 9.06474 4.35861 8.91874C4.33459 8.90623 4.32017 8.84365 4.32017 8.81446C4.28653 8.59755 4.25289 8.28469 4.24328 8.06778C4.23367 7.85087 4.23367 7.9343 4.28172 7.90927L5.68976 7.72573C5.99251 7.43374 6.39618 7.56722 6.76141 7.37117C7.48225 6.97906 7.19872 5.99045 6.35293 5.93205C5.50715 5.87365 5.84354 6.02382 5.67054 6.01131C5.49754 5.99879 5.44468 5.86531 5.31493 5.89868L3.59933 6.11976L3.61855 6.30747C4.12795 6.26159 4.69981 6.11559 5.2044 6.09056C5.70898 6.06553 5.56962 6.13228 5.68015 6.3617C5.79068 6.59112 5.99251 7.44625 5.57923 7.57139L2.85447 7.92179C1.97024 7.80916 1.90776 7.26688 2.06154 6.61615C2.33066 5.47737 3.36866 4.64727 4.69501 4.49293C5.83393 4.35945 7.04494 4.34694 8.18867 4.24265C9.12576 4.15923 10.0628 4.02157 10.9999 3.9298C11.8553 3.84637 12.7203 3.78797 13.5757 3.71289H13.5805Z" fill="#DFFD52"/>
<path d="M13.7969 3.77873L15.1472 3.65359C15.8152 3.55765 16.2862 4.24592 15.796 4.68391C15.3058 5.1219 14.3591 4.87579 13.8834 4.98842L13.8305 4.91751L13.7969 3.77873Z" fill="#DFFD52"/>
<path d="M6.00922 7.36505C6.04286 6.96878 6.03325 6.5433 5.79297 6.1929C6.37444 5.93428 7.16737 6.28885 6.9367 6.90203C6.79734 7.27328 6.40328 7.32334 6.00922 7.36505Z" fill="#DFFD52"/>
</svg>
