<svg width="17" height="17" viewBox="0 0 17 17" fill="none" xmlns="http://www.w3.org/2000/svg">
<path d="M2.74073 12.1737C3.04492 12.1153 3.38244 12.3404 3.70747 12.382C4.03249 12.4237 3.87831 12.3195 3.95332 12.4154C4.03666 12.5529 3.78247 13.1155 3.65747 13.2113C3.42411 13.3905 3.16576 13.1947 2.91991 13.1947C2.66989 13.1947 2.36153 13.4072 2.13652 13.1947C1.9115 12.9821 1.949 12.7988 2.06568 12.6196C2.18235 12.4404 2.62405 12.1903 2.74073 12.1695V12.1737Z" fill="#DFFD52"/>
<path d="M12.3463 8.29659C12.338 8.25075 12.3505 8.22574 12.3755 8.18824C12.4338 8.09655 13.0839 7.59229 13.1881 7.56312C13.5172 7.47144 13.5339 7.91319 13.6423 8.14239C13.7506 8.3716 14.4131 9.04673 14.3715 9.18425C14.3298 9.32178 13.6381 9.30094 13.4922 9.23009C13.2006 9.0884 13.2047 8.62998 13.0172 8.45495C12.8297 8.27992 12.5505 8.3591 12.3463 8.30076V8.29659Z" fill="#DFFD52"/>
<path d="M4.61695 9.89373C4.74196 9.86873 5.37118 10.2563 5.41285 10.3647C5.45452 10.473 5.38785 11.0273 5.25034 11.0898C5.13366 11.144 4.7878 11.0148 4.66696 10.9564C4.48778 10.8689 4.24609 10.6105 4.24609 10.4063C4.24609 10.2021 4.47528 9.92291 4.61695 9.8979V9.89373Z" fill="#DFFD52"/>
<path d="M11.0712 2.10062C11.1254 2.05477 11.2171 2.04644 11.2796 2.07561C11.3421 2.10478 11.6004 2.3965 11.7213 2.47985C11.988 2.65905 12.3338 2.72573 12.5588 2.95494C12.5963 3.10497 12.0588 3.31751 11.9296 3.30084C11.7004 3.27166 11.6463 2.96327 11.4671 2.82158C11.2879 2.67989 10.9337 2.63821 10.967 2.32566C11.0004 2.0131 11.0295 2.12979 11.067 2.09645L11.0712 2.10062Z" fill="#DFFD52"/>
<path d="M1.55317 4.93768C1.68235 4.91685 1.74902 4.91685 1.85736 4.99186C1.9657 5.06687 2.12821 5.27941 2.14905 5.32525C2.28656 5.57947 1.79486 5.57947 1.62401 5.63364C1.45316 5.68782 1.15731 5.90869 1.02813 5.85035C0.898955 5.79201 0.778112 5.40443 0.857285 5.27524C0.936458 5.14605 1.43233 4.95435 1.549 4.93768H1.55317Z" fill="#DFFD52"/>
<path d="M16.1538 5.32563C16.0913 5.38814 15.7788 5.41731 15.6663 5.45065C15.4996 5.50066 15.2037 5.69236 15.0829 5.67986C14.9037 5.66319 14.7746 5.22561 14.8662 5.08808C14.9579 4.95056 15.5538 4.74219 15.6454 4.74219C15.7955 4.74219 15.8996 4.86304 15.9913 4.96306C16.0621 5.03807 16.2497 5.23811 16.1538 5.3298V5.32563Z" fill="#DFFD52"/>
<path d="M3.8671 6.77736C4.00045 6.74819 4.58382 6.77736 4.7005 6.83571C4.81718 6.89405 5.00052 7.41081 4.92552 7.51916C4.85051 7.62752 4.42965 7.40248 4.30047 7.39414C3.92544 7.36497 3.59208 7.63168 3.70043 7.01074C3.80877 6.38979 3.76293 6.80237 3.87127 6.77736H3.8671Z" fill="#DFFD52"/>
<path d="M8.18569 0.529297V3.58819L7.96484 3.6507V0.529297H8.18569Z" fill="#DFFD52"/>
<path d="M8.18153 6.24234L8.18569 6.32985L7.96484 6.33402L7.96901 6.14648L8.18153 6.24234Z" fill="#DFFD52"/>
<path d="M6.93717 16.4977C6.8455 16.4894 6.74549 16.5061 6.65381 16.4977C6.5163 16.4811 6.20795 16.4019 6.09127 16.3227C5.87459 16.1727 5.42872 15.51 5.75791 15.31C5.99127 15.1683 6.19961 15.5267 6.33712 15.6392C6.47464 15.7518 6.62881 15.8143 6.78716 15.8101C6.9455 15.8059 7.08301 15.6934 7.16635 15.6934C7.24969 15.6934 7.64972 15.7768 7.64972 15.8893C7.64972 16.056 7.10385 16.4477 6.933 16.4977H6.93717Z" fill="#DFFD52"/>
<path d="M10.4579 8.74199C10.4995 8.78367 10.562 8.88369 10.587 8.94203C10.8162 9.77968 11.2121 10.6423 11.4204 11.4758C11.4704 11.68 11.4913 11.8009 11.3788 11.9968C11.2038 12.3093 10.7037 12.351 10.4662 12.0843C10.2287 11.8176 10.3704 11.9092 10.3412 11.8342C10.1245 11.3133 9.98283 10.7049 9.81199 10.1631C9.75365 10.1589 9.71198 10.1964 9.67031 10.2256C9.43279 10.4048 8.90775 10.9674 8.65774 11.0216C8.40772 11.0758 8.16603 10.9299 7.97018 10.6924L7.3243 15.3015C7.07428 15.9058 6.22839 15.7641 6.19922 15.1098L6.89094 10.1589C7.79934 9.85053 8.68274 9.46296 9.42446 8.85035L9.45363 8.91286C9.72865 8.64197 10.1203 8.41693 10.4579 8.73783V8.74199Z" fill="#DFFD52"/>
<path d="M9.43911 7.30034V8.47139C8.95574 8.92564 8.34736 9.28821 7.74315 9.55076C7.13894 9.8133 7.20561 9.7758 6.93892 9.82581V6.97112C6.69724 6.49186 5.71383 5.57503 5.61382 5.11244C5.45964 4.39148 5.48881 3.53299 5.35547 2.79952C5.40131 2.37444 5.92218 2.30776 6.08886 2.70783L6.36388 4.95825L7.48896 6.45435C8.03484 6.50853 8.66405 6.40018 9.19742 6.46269C9.58078 6.50853 10.0642 6.74191 10.4517 6.82526L11.1517 5.28747C11.2976 5.07494 11.6059 5.0541 11.7601 5.27497C11.8768 5.44167 11.831 5.55002 11.7684 5.71672C11.5976 6.1793 11.3184 6.81692 11.0934 7.25867C10.8684 7.70042 10.9142 7.65874 10.6392 7.64207L9.43077 7.30034H9.43911Z" fill="#DFFD52"/>
<path d="M11.9263 14.9857C11.9554 14.9857 11.9804 14.9982 12.0013 15.0191C12.1096 15.1108 11.9679 15.4316 11.9138 15.5525C11.8096 15.7817 11.7096 15.9151 11.4721 16.0151C11.3762 16.0568 11.047 16.1526 10.9553 16.1526C10.6595 16.1568 9.95944 15.7734 10.0803 15.4066C10.2011 15.0399 10.7428 15.3025 10.9512 15.2733C11.1595 15.2441 11.7012 14.9607 11.9304 14.9816L11.9263 14.9857Z" fill="#DFFD52"/>
<path d="M10.2811 11.9473C10.5562 12.6391 11.5521 12.4432 11.5646 11.6973C11.8896 11.7014 11.8729 11.9473 11.7896 12.189C11.5979 12.76 10.9395 13.01 10.427 12.6599C9.91445 12.3099 10.027 12.089 10.2811 11.9473Z" fill="#DFFD52"/>
<path d="M6.3146 3.67959C6.21876 3.29202 6.29376 2.85027 6.09375 2.49604C6.22293 2.48354 6.36044 2.53354 6.45211 2.62523C6.54378 2.71691 6.83131 3.27535 6.83547 3.32952C6.85631 3.54206 6.47295 3.63791 6.3146 3.68376V3.67959Z" fill="#DFFD52"/>
<path d="M5.37676 3.83797C5.32259 3.85047 5.31426 3.81714 5.28092 3.79213C5.19341 3.72545 4.73088 3.29204 4.71838 3.22953C4.67254 2.96698 5.08507 2.85446 5.23508 2.68359L5.37676 3.83797Z" fill="#DFFD52"/>
<path d="M12.306 5.4997C12.4019 5.60388 12.3769 5.67473 12.3019 5.77058C12.1685 5.94561 11.956 6.12898 11.7227 6.11231C11.806 5.84559 12.0227 5.59555 11.9102 5.30383C11.931 5.28716 12.2727 5.46636 12.306 5.4997Z" fill="#DFFD52"/>
<path d="M11.0657 5.20837L10.7698 5.896C10.5156 5.7293 10.7615 5.14169 11.0657 5.20837Z" fill="#DFFD52"/>
<path d="M9.4522 4.19937C9.53137 4.27021 9.66472 4.31189 9.73972 4.39524L9.72306 4.47442C9.07717 4.53693 8.68131 5.06619 8.1396 5.32874C7.5979 5.59129 7.2187 5.50794 7.25204 4.84949C7.29787 3.86597 8.42713 3.34088 9.21885 3.94932C9.31886 4.02434 9.3772 4.13686 9.4522 4.19937ZM8.93133 4.12019C8.78549 4.15769 8.88966 4.3619 9.023 4.39107C9.33553 4.45775 9.13551 4.06601 8.93133 4.12019Z" fill="#DFFD52"/>
<path d="M9.59335 4.64508C9.8392 5.21185 9.65586 5.90364 9.05164 6.13702C8.82663 5.97449 8.53911 5.46606 8.63078 5.19518C8.72245 4.9243 9.52251 4.5784 9.59335 4.64508Z" fill="#DFFD52"/>
<path d="M8.879 6.20902C8.41646 6.31737 7.85809 6.07566 7.69141 5.61724C7.97476 5.57557 8.22895 5.44638 8.47063 5.30469L8.59147 5.76311L8.879 6.20902Z" fill="#DFFD52"/>
<path d="M8.93197 4.1204C9.14032 4.06622 9.33617 4.45796 9.02364 4.39128C8.8903 4.36211 8.78196 4.1579 8.93197 4.1204Z" fill="white"/>
</svg>
