<svg width="17" height="17" viewBox="0 0 17 17" fill="none" xmlns="http://www.w3.org/2000/svg">
<g clip-path="url(#clip0_9193_3904)">
<path d="M11.1667 2.16667C11.1667 1.246 11.9127 0.5 12.8333 0.5C13.754 0.5 14.5 1.246 14.5 2.16667C14.5 3.08733 13.754 3.83333 12.8333 3.83333C11.9127 3.83333 11.1667 3.08733 11.1667 2.16667ZM15.5 7.16667H14.4327L14.0413 6.43667C13.402 5.242 12.1633 4.5 10.8087 4.5H7.82C7.31133 4.5 6.83667 4.728 6.51867 5.12533L5.38533 6.542C5.04 6.97333 5.11 7.60267 5.54133 7.94733C5.97267 8.292 6.60267 8.222 6.94667 7.79133L7.98 6.5H9.30667C9.30667 6.5 8.01533 8.498 7.992 8.556C7.56133 9.60533 7.94533 10.8073 8.94333 11.4373L11.8327 13.082V15.5C11.8327 16.0527 12.2807 16.5 12.8327 16.5C13.3847 16.5 13.8327 16.0527 13.8327 15.5V12.888C13.8327 12.29 13.51 11.7353 12.99 11.4393L10.8773 10.2373L12.484 7.76533L12.7627 8.286C13.0533 8.82933 13.616 9.16667 14.232 9.16667H15.4993C16.0513 9.16667 16.4993 8.71933 16.4993 8.16667C16.4993 7.614 16.052 7.16667 15.5 7.16667ZM2.83333 3.16667H6.83333C7.386 3.16667 7.83333 2.71933 7.83333 2.16667C7.83333 1.614 7.386 1.16667 6.83333 1.16667H2.83333C2.28067 1.16667 1.83333 1.614 1.83333 2.16667C1.83333 2.71933 2.28067 3.16667 2.83333 3.16667ZM2.83333 7.83333H1.5C0.947333 7.83333 0.5 8.28067 0.5 8.83333C0.5 9.386 0.947333 9.83333 1.5 9.83333H2.83333C3.386 9.83333 3.83333 9.386 3.83333 8.83333C3.83333 8.28067 3.386 7.83333 2.83333 7.83333ZM3.5 4.5H2.16667C1.614 4.5 1.16667 4.94733 1.16667 5.5C1.16667 6.05267 1.614 6.5 2.16667 6.5H3.5C4.05267 6.5 4.5 6.05267 4.5 5.5C4.5 4.94733 4.05267 4.5 3.5 4.5ZM8.38867 12.3287C7.98133 12.0907 7.47467 12.174 7.16267 12.5H5.49933C4.94667 12.5 4.49933 12.9473 4.49933 13.5C4.49933 14.0527 4.94667 14.5 5.49933 14.5H7.70467C8.06 14.5 8.38867 14.3113 8.568 14.004L8.748 13.6967C9.026 13.22 8.86533 12.6073 8.38867 12.3287Z" fill="#DFFD52"/>
</g>
<defs>
<clipPath id="clip0_9193_3904">
<rect width="16" height="16" fill="white" transform="translate(0.5 0.5)"/>
</clipPath>
</defs>
</svg>
