<svg width="17" height="17" viewBox="0 0 17 17" fill="none" xmlns="http://www.w3.org/2000/svg">
<g clip-path="url(#clip0_9367_4353)">
<path d="M7.83333 3.49908C7.83315 2.68734 7.60318 1.89224 7.17 1.20575C8.37924 0.578027 9.75585 0.348279 11.1034 0.549286C12.451 0.750293 13.7006 1.37179 14.674 2.32508C15.2843 2.93715 15.7616 3.66875 16.0758 4.47399C16.3901 5.27923 16.5345 6.14072 16.5 7.00441C16.4388 8.79387 15.6942 10.4918 14.4193 11.7491C13.9037 12.2686 13.3145 12.7095 12.6707 13.0577L6.358 6.74775C6.82106 6.34253 7.19223 5.84308 7.44667 5.28281C7.7011 4.72255 7.83293 4.11441 7.83333 3.49908ZM6.5 3.49908C6.5 2.90574 6.32405 2.32572 5.99441 1.83237C5.66477 1.33902 5.19623 0.954505 4.64805 0.727442C4.09987 0.500379 3.49667 0.440969 2.91473 0.556725C2.33279 0.67248 1.79824 0.958203 1.37868 1.37776C0.959123 1.79732 0.673401 2.33187 0.557646 2.91381C0.44189 3.49575 0.5013 4.09895 0.728363 4.64713C0.955426 5.19531 1.33994 5.66385 1.83329 5.99349C2.32664 6.32313 2.90666 6.49908 3.5 6.49908C4.29538 6.4982 5.05793 6.18184 5.62035 5.61943C6.18277 5.05701 6.49912 4.29446 6.5 3.49908ZM5.206 7.48108C4.66718 7.71311 4.08666 7.83267 3.5 7.83241C3.39467 7.83241 3.29067 7.82375 3.18733 7.81641C3.21979 8.39484 3.33196 8.96601 3.52067 9.51375C3.61633 9.85147 3.73894 10.181 3.88733 10.4991C3.9216 10.5604 3.93487 10.6313 3.92512 10.7008C3.91537 10.7704 3.88314 10.8349 3.83333 10.8844L1.29067 12.6604V12.6697C1.05482 12.863 0.8626 13.1041 0.726673 13.3771C0.590746 13.6501 0.514196 13.9487 0.502065 14.2534C0.489934 14.5581 0.542497 14.862 0.656292 15.1449C0.770088 15.4278 0.942533 15.6834 1.16227 15.8948C1.382 16.1062 1.64404 16.2687 1.93113 16.3716C2.21821 16.4744 2.52382 16.5152 2.82783 16.4914C3.13183 16.4675 3.42734 16.3795 3.69488 16.2332C3.96242 16.0869 4.19592 15.8855 4.38 15.6424L4.38667 15.6464L6.1 13.1657C6.14849 13.1101 6.21407 13.0721 6.28645 13.0578C6.35884 13.0434 6.43395 13.0535 6.5 13.0864C7.43166 13.5646 8.46217 13.8184 9.50933 13.8277C10.1228 13.8422 10.7349 13.7658 11.326 13.6011L5.206 7.48108Z" fill="#DFFD52"/>
</g>
<defs>
<clipPath id="clip0_9367_4353">
<rect width="16" height="16" fill="white" transform="translate(0.5 0.5)"/>
</clipPath>
</defs>
</svg>
