<svg width="17" height="17" viewBox="0 0 17 17" fill="none" xmlns="http://www.w3.org/2000/svg">
<g clip-path="url(#clip0_9367_4310)">
<path d="M9.24525 0.538583C11.1012 0.709594 12.8387 1.52471 14.1566 2.84259C15.4745 4.16047 16.2896 5.89801 16.4606 7.75392C15.4792 7.90011 14.4771 7.81455 13.5347 7.50407C12.5923 7.19359 11.7356 6.66682 11.0333 5.96592C10.3322 5.26368 9.80528 4.40703 9.49479 3.46456C9.18431 2.5221 9.09884 1.52002 9.24525 0.538583ZM15.5346 9.16592C14.4449 9.1664 13.3675 8.93517 12.374 8.48754C11.3804 8.03992 10.4934 7.38614 9.77181 6.56958C9.0502 5.75303 8.51047 4.79236 8.18844 3.75131C7.8664 2.71026 7.76941 1.61264 7.90392 0.53125C5.99191 0.668152 4.1935 1.49038 2.83909 2.84687C1.48468 4.20337 0.665215 6.00303 0.53125 7.91525C1.69208 7.75409 2.87446 7.86423 3.98556 8.23701C5.09665 8.60979 6.1062 9.23506 6.93494 10.0637C7.76367 10.8924 8.38903 11.9019 8.76189 13.013C9.13476 14.124 9.24499 15.3064 9.08392 16.4672C10.9948 16.3338 12.7934 15.5156 14.1496 14.1629C15.5059 12.8102 16.3288 11.0138 16.4672 9.10325C16.1579 9.14299 15.8465 9.16391 15.5346 9.16592ZM5.99258 11.0066C5.28775 10.3032 4.42564 9.77764 3.47751 9.47334C2.52938 9.16904 1.52244 9.09474 0.539917 9.25658C0.714125 11.1072 1.52866 12.8391 2.84304 14.1535C4.15743 15.4678 5.88927 16.2824 7.73992 16.4566C7.90193 15.4747 7.82796 14.4683 7.52413 13.5207C7.2203 12.573 6.69532 11.7112 5.99258 11.0066Z" fill="#DFFD52"/>
</g>
<defs>
<clipPath id="clip0_9367_4310">
<rect width="16" height="16" fill="white" transform="translate(0.5 0.5)"/>
</clipPath>
</defs>
</svg>
