<svg width="126" height="40" viewBox="0 0 126 40" fill="none" xmlns="http://www.w3.org/2000/svg">
<path d="M0 20.008C0 9.37402 9.30748 1.11255 19.8941 2.11523C32.8651 3.34373 49.7759 4.65116 63 4.65116C76.2241 4.65116 93.1349 3.34373 106.106 2.11523C116.693 1.11255 126 9.37401 126 20.008V20.008C126 30.6364 116.701 38.8951 106.12 37.8945C93.0982 36.6632 76.1242 35.3488 63 35.3488C49.8758 35.3488 32.9018 36.6632 19.8799 37.8945C9.2987 38.8951 0 30.6364 0 20.008V20.008Z" fill="#DFFD52"/>
<path d="M16.892 25L20.636 16.6H22.556L26.312 25H24.272L21.2 17.584H21.968L18.884 25H16.892ZM18.764 23.2L19.28 21.724H23.6L24.128 23.2H18.764ZM30.8675 25.096C30.3235 25.096 29.8475 24.976 29.4395 24.736C29.0315 24.496 28.7115 24.132 28.4795 23.644C28.2555 23.148 28.1435 22.524 28.1435 21.772C28.1435 21.012 28.2515 20.388 28.4675 19.9C28.6835 19.412 28.9955 19.048 29.4035 18.808C29.8115 18.568 30.2995 18.448 30.8675 18.448C31.4755 18.448 32.0195 18.588 32.4995 18.868C32.9875 19.14 33.3715 19.524 33.6515 20.02C33.9395 20.516 34.0835 21.1 34.0835 21.772C34.0835 22.452 33.9395 23.04 33.6515 23.536C33.3715 24.032 32.9875 24.416 32.4995 24.688C32.0195 24.96 31.4755 25.096 30.8675 25.096ZM27.0515 27.328V18.544H28.8395V19.864L28.8035 21.784L28.9235 23.692V27.328H27.0515ZM30.5435 23.56C30.8555 23.56 31.1315 23.488 31.3715 23.344C31.6195 23.2 31.8155 22.996 31.9595 22.732C32.1115 22.46 32.1875 22.14 32.1875 21.772C32.1875 21.396 32.1115 21.076 31.9595 20.812C31.8155 20.548 31.6195 20.344 31.3715 20.2C31.1315 20.056 30.8555 19.984 30.5435 19.984C30.2315 19.984 29.9515 20.056 29.7035 20.2C29.4555 20.344 29.2595 20.548 29.1155 20.812C28.9715 21.076 28.8995 21.396 28.8995 21.772C28.8995 22.14 28.9715 22.46 29.1155 22.732C29.2595 22.996 29.4555 23.2 29.7035 23.344C29.9515 23.488 30.2315 23.56 30.5435 23.56ZM39.1527 25.096C38.6087 25.096 38.1327 24.976 37.7247 24.736C37.3167 24.496 36.9967 24.132 36.7647 23.644C36.5407 23.148 36.4287 22.524 36.4287 21.772C36.4287 21.012 36.5367 20.388 36.7527 19.9C36.9687 19.412 37.2807 19.048 37.6887 18.808C38.0967 18.568 38.5847 18.448 39.1527 18.448C39.7607 18.448 40.3047 18.588 40.7847 18.868C41.2727 19.14 41.6567 19.524 41.9367 20.02C42.2247 20.516 42.3687 21.1 42.3687 21.772C42.3687 22.452 42.2247 23.04 41.9367 23.536C41.6567 24.032 41.2727 24.416 40.7847 24.688C40.3047 24.96 39.7607 25.096 39.1527 25.096ZM35.3367 27.328V18.544H37.1247V19.864L37.0887 21.784L37.2087 23.692V27.328H35.3367ZM38.8287 23.56C39.1407 23.56 39.4167 23.488 39.6567 23.344C39.9047 23.2 40.1007 22.996 40.2447 22.732C40.3967 22.46 40.4727 22.14 40.4727 21.772C40.4727 21.396 40.3967 21.076 40.2447 20.812C40.1007 20.548 39.9047 20.344 39.6567 20.2C39.4167 20.056 39.1407 19.984 38.8287 19.984C38.5167 19.984 38.2367 20.056 37.9887 20.2C37.7407 20.344 37.5447 20.548 37.4007 20.812C37.2567 21.076 37.1847 21.396 37.1847 21.772C37.1847 22.14 37.2567 22.46 37.4007 22.732C37.5447 22.996 37.7407 23.2 37.9887 23.344C38.2367 23.488 38.5167 23.56 38.8287 23.56ZM43.6218 25V16.096H45.4938V25H43.6218ZM48.0472 27.424C47.7112 27.424 47.3792 27.372 47.0512 27.268C46.7232 27.164 46.4552 27.02 46.2472 26.836L46.9312 25.504C47.0752 25.632 47.2392 25.732 47.4232 25.804C47.6152 25.876 47.8032 25.912 47.9872 25.912C48.2512 25.912 48.4592 25.848 48.6112 25.72C48.7712 25.6 48.9152 25.396 49.0432 25.108L49.3792 24.316L49.5232 24.112L51.8392 18.544H53.6392L50.7232 25.396C50.5152 25.916 50.2752 26.324 50.0032 26.62C49.7392 26.916 49.4432 27.124 49.1152 27.244C48.7952 27.364 48.4392 27.424 48.0472 27.424ZM49.1512 25.252L46.2712 18.544H48.2032L50.4352 23.944L49.1512 25.252Z" fill="black"/>
<circle cx="15" cy="15" r="15" transform="matrix(-1 0 0 1 119 5)" fill="#2A2A2A"/>
<path d="M105.019 25.114L110.133 20.0004M110.133 20.0004L105.019 14.8867M110.133 20.0004H97.8601" stroke="#DFFD52" stroke-width="2" stroke-linecap="round" stroke-linejoin="round"/>
</svg>
