<svg width="24" height="24" viewBox="0 0 24 24" fill="none" xmlns="http://www.w3.org/2000/svg">
<path d="M0.00735814 6.50294C0.155009 5.40552 1.28055 4.645 2.35278 4.88639C3.68515 5.18697 4.30915 6.82226 3.45254 7.90738C3.34591 8.04272 2.97854 8.30346 2.93342 8.37435C2.90764 8.41537 2.91526 8.43646 2.91936 8.47865C2.93459 8.63216 3.36114 9.43603 3.46661 9.62177C4.32966 11.1446 6.03702 13.0547 7.9975 12.3516C9.98317 11.6391 11.012 8.52083 11.3923 6.64532C9.78864 6.2633 9.0832 4.33446 10.0429 2.97924C11.1474 1.41953 13.5532 1.72186 14.241 3.49719C14.7496 4.81023 13.985 6.32833 12.6139 6.64532C13.0475 9.12491 14.9576 13.9458 18.2833 12.0943C19.5594 11.3836 20.5964 9.74422 21.0892 8.40482C20.0322 7.71227 19.8172 6.24689 20.7646 5.35571C21.8819 4.30458 23.795 4.98424 23.9989 6.50294V7.01737C23.8623 7.632 23.5354 8.14819 22.9618 8.43822C22.7749 8.53255 22.3313 8.60345 22.2769 8.73645L20.4406 18.2248H3.56504L1.72878 8.73645C1.6737 8.60345 1.23016 8.53255 1.04384 8.43822C0.470232 8.14819 0.143291 7.632 0.00677223 7.01737C0.022006 6.8539 -0.0143208 6.66113 0.00677223 6.50294H0.00735814Z" fill="#233102"/>
<path d="M4.02429 19.2383L19.8991 19.2266C21.5654 19.54 21.4811 21.8661 19.8048 22.08H4.20065C2.56888 21.8737 2.4265 19.639 4.02429 19.2377V19.2383Z" fill="#233102"/>
</svg>
