<svg width="154" height="154" viewBox="0 0 154 154" fill="none" xmlns="http://www.w3.org/2000/svg">
<rect width="154" height="154" rx="77" fill="#252525"/>
<path d="M73.8912 41.9731L74.1453 41.8217L72.5192 35.6675C73.6879 35.6675 74.8567 35.6675 76.0255 35.6675C82.8348 35.9198 89.5934 38.0889 94.6242 42.7802C99.6549 47.4715 95.6405 44.0917 96.047 44.3944C96.606 44.8988 98.4354 45.3528 99.2992 45.9582C100.163 46.5635 101.383 48.5813 101.383 50.0946C101.383 51.6079 101.484 50.5486 101.23 50.5486C100.824 48.5308 99.096 47.6228 97.419 46.7653L98.4862 48.1777C99.0451 49.0353 99.4009 50.3468 99.1976 51.4062C98.9943 52.4655 98.2829 51.8097 97.978 51.6079C97.6731 51.4062 96.7584 49.5902 96.4027 49.1362C92.3882 44.344 87.7132 47.1184 84.2069 50.7504C85.0707 50.7504 85.8838 50.1955 86.6968 49.9433C89.0852 49.2875 91.2703 49.2875 93.2013 51.0531C90.7113 51.0531 88.577 52.6673 86.3411 53.6257C88.4246 55.4417 90.4064 58.1153 93.5062 57.7117C96.606 57.3082 94.7766 57.2073 95.3356 56.9551L93.7603 59.4773C92.0325 61.5455 89.0852 61.3437 86.8493 60.2339C86.7985 60.4862 87.0018 60.5366 87.1542 60.6375C88.6787 61.6968 90.4064 62.6048 92.3374 62.6553C91.1178 64.9757 91.0162 67.6493 90.7113 70.2219C91.067 70.2724 90.9146 70.121 90.9654 69.9193C92.2866 65.5306 96.7584 60.0322 99.8582 56.5515C102.958 53.0708 100.773 55.4922 101.332 55.1391C101.637 55.0886 103.923 55.6435 104.279 55.8453C104.635 56.0471 104.482 55.8453 104.432 56.0471C102.755 57.6108 101.027 59.0737 99.7566 60.9906C98.4862 62.9075 97.3174 65.3793 96.7076 67.6997C99.1976 64.7739 100.824 60.9402 104.025 58.6197C104.025 60.4357 105.397 61.6464 107.227 61.7473C109.056 61.8482 110.021 61.0915 111.089 62.3526C112.156 63.6137 111.546 64.1686 111.089 65.1775C110.631 66.1864 109.462 67.2962 108.7 68.3555C106.464 71.4326 105.956 75.115 103.669 78.2426C98.537 85.1535 88.2213 84.8003 84.156 77.1328C76.1271 78.747 67.8949 73.6521 64.6427 66.489L63.5756 62.9579C62.4576 68.4059 64.9984 74.1566 69.2161 77.5868C73.4339 81.017 71.8586 78.9488 72.9257 81.3701C73.9928 83.7915 74.8059 87.1712 74.5518 90.097C73.7388 89.3908 73.1798 88.4828 72.6208 87.6252C71.198 85.5066 69.8767 82.9339 68.7588 80.6135C67.6408 78.293 68.6572 79.655 68.3014 80.109C69.0129 83.8924 70.5373 88.0288 72.7224 91.2068C74.9075 94.3848 72.9765 91.4086 72.7733 91.5094C64.846 88.281 57.2236 84.3463 50.2109 79.4028C51.3289 76.6284 53.4632 74.0052 55.8007 72.0884C56.6646 73.9548 57.7825 75.7708 59.1546 77.2841C60.5266 78.7975 60.7807 78.5452 61.1364 78.9992C61.4921 79.4532 61.7462 80.3108 62.0511 80.8152C63.0674 82.4295 64.2362 83.8923 65.7606 85.0526L68.0982 86.5659L65.3541 82.6312C62.7625 78.6461 61.5429 73.9044 60.7299 69.2635L60.4758 71.2308C60.425 72.6937 60.5266 74.1566 60.7299 75.569C56.6138 70.575 55.8515 63.4624 57.6809 57.409C57.3252 57.3586 57.4776 57.5099 57.376 57.6613C56.3089 59.5277 55.1401 62.6553 55.0385 64.7739C54.9368 66.8926 55.3434 67.0439 55.1401 67.6493C54.9368 68.2546 54.1238 68.7086 53.9713 69.0113C52.1928 66.7917 50.9732 62.9579 51.3797 60.133C51.7862 57.3082 53.1075 55.9462 53.7681 54.7859C54.4287 53.6257 55.7499 51.4566 56.4613 51.1539C57.1727 50.8513 57.8333 51.8097 58.2907 52.0115C59.307 52.4655 60.3741 52.8186 61.4921 53.1213L61.7462 52.7682C61.7462 52.6168 60.4758 51.5071 60.2217 51.2548C58.3923 49.2371 56.9695 46.5131 56.5121 43.8395C55.445 37.3826 59.9676 33.9524 62.7117 28.908C65.4557 23.8635 64.6935 24.3175 65.9131 22.1484C67.5392 25.0238 67.59 28.4035 68.4031 31.5311C69.2161 34.6586 69.9784 35.9702 71.0963 37.8366C72.2143 39.7031 73.129 40.6615 74.1453 42.074L73.8912 41.9731ZM64.9984 29.6142L64.6935 29.7655C62.9658 34.6082 58.2399 37.6349 58.9005 43.2342C59.5611 48.8335 61.3905 47.976 63.5247 49.4893C64.5919 47.6228 64.8968 45.1006 63.8296 43.1333C64.9984 42.4271 66.3704 43.5873 66.9294 44.5962C67.4884 45.6051 66.9294 45.3024 67.2851 45.2015C67.7425 42.9315 68.3523 41.0146 67.7933 38.6942C67.2343 36.3737 65.6082 32.6409 64.9984 29.5638V29.6142Z" fill="#DFFD53"/>
<path d="M48.8422 78.2919C48.639 78.3423 48.639 78.2414 48.5373 78.191C47.8259 77.6865 46.6572 76.7785 45.9965 76.1732C45.3359 75.5679 45.3359 75.6183 45.3359 75.3661L49.6045 64.6719C50.1635 66.6896 51.5863 68.3543 52.7551 70.019C50.8749 72.3394 49.198 75.2652 48.8422 78.2919Z" fill="#DFFD53"/>
<path d="M113.477 69.111C113.731 69.3632 113.681 70.019 113.477 70.2712C113.071 70.927 111.597 71.0783 110.835 72.5412C109.565 74.8616 109.666 79.0989 106.617 79.9061C106.82 79.0485 107.227 78.2918 107.532 77.4847C108.345 75.1643 108.853 71.7845 110.784 70.1198C112.715 68.4552 112.868 68.5056 113.427 69.0605L113.477 69.111Z" fill="#DFFD53"/>
<path d="M114.596 61.8972C113.783 60.737 113.021 60.4848 112.868 58.921C112.767 57.3572 113.275 56.1466 111.852 55.0368C109.718 53.3721 106.313 54.1288 103.976 52.8172C105.043 50.295 104.89 48.1259 103.467 45.8055C102.095 43.5355 100.876 43.4346 98.9447 42.123C98.4874 41.8204 97.9284 41.0637 97.4711 40.6601C93.5582 37.3308 88.9848 34.5059 83.8524 33.3962C84.7163 28.8562 83.1409 23.7613 80.4477 20.0788C78.8216 17.8593 77.9577 18.4142 76.3824 20.2302C74.7563 22.0966 73.5367 24.2657 72.3171 26.3844L70.9451 29.6128C70.5386 26.3844 69.878 21.3904 67.4388 19.0195C65.8635 17.5062 64.7964 17.708 63.6276 19.4231C62.1031 21.6931 61.1376 24.6188 59.7656 27.0402C57.4789 31.0253 54.3283 34.1024 53.2103 38.6928C52.3973 41.9717 52.753 44.8975 54.0234 48.025C51.1269 50.1941 49.8056 53.8261 48.4844 57.105C44.8765 66.0337 37 83.0334 37 83.0334C41.3194 88.2796 47.0616 96.8047 49.5007 103.161L58.3935 103.312L55.243 111.383C64.5423 118.546 73.2826 126.567 80.4477 135.849L80.7018 136C88.934 135.395 96.8613 132.872 103.874 128.786C103.874 128.635 103.874 128.534 103.874 128.383C103.874 127.828 104.026 127.273 104.128 126.718C104.128 126.617 104.23 126.214 104.23 126.012C104.23 125.003 104.382 124.045 104.585 123.086C104.585 123.187 104.535 123.288 104.484 123.338C104.23 123.338 104.382 123.086 104.382 122.935C104.687 119.606 105.348 116.327 105.449 112.947L101.536 107.348C101.435 106.894 103.264 105.683 103.162 105.027C103.061 104.371 100.774 101.244 100.215 100.336C99.707 99.4783 99.148 98.4189 98.8431 97.4605L98.4874 96.441C97.9792 94.9277 98.4874 96.441 97.9792 94.9277C97.8945 94.6754 97.8776 94.787 97.7252 94.333C97.4711 93.9188 97.5727 93.9692 97.4711 93.6666C97.3694 93.5152 97.1154 93.2232 97.0645 93.0214C97.0137 92.9205 96.9629 92.8701 96.8613 92.7692C96.8105 92.6683 96.7596 92.5674 96.7088 92.4665C95.2352 91.4576 93.8123 90.3479 92.3895 89.1876L93.6091 87.7752C96.099 87.8256 98.4874 87.4221 100.723 86.2619C101.231 86.0096 103.112 84.5467 103.264 84.4963C103.518 84.4459 104.585 84.799 104.992 84.8494C108.397 85.1521 110.836 83.891 113.072 81.3688C117.493 76.3748 118.458 67.3957 114.545 61.8972H114.596ZM49.6024 64.6717C50.1613 66.6894 51.5842 68.3541 52.753 70.0188C50.8728 72.3392 49.1958 75.265 48.8401 78.2916C48.6369 78.3421 48.6369 78.2412 48.5352 78.1908C47.8238 77.6863 46.655 76.7783 45.9944 76.173C45.7912 76.0216 45.3338 75.6181 45.3338 75.3659L49.6024 64.6717ZM66.5749 100.84C62.4588 97.6623 58.546 93.2736 54.5823 89.793C51.1269 86.7663 46.7567 83.7396 43.8602 80.1581C43.0471 79.1492 43.7585 78.9979 44.2667 78.0394C48.6369 81.6714 53.4644 85.0007 58.4952 87.7752C66.3717 92.1638 74.9088 95.1905 83.3442 98.3685L77.5004 107.549C77.3479 107.65 77.1955 107.549 77.043 107.448C75.8234 106.994 73.8924 105.582 72.7237 104.825C70.8435 103.615 68.4043 102.202 66.6766 100.84H66.5749ZM75.4169 81.4696C75.5694 81.3183 76.4841 82.3272 76.6365 82.4785C78.8216 84.9503 79.6855 88.0779 79.4822 91.3567C79.4822 91.7603 79.1773 93.879 78.8724 93.9294L76.1792 92.7187L76.4332 89.6921C76.4332 86.9176 76.23 84.0927 75.4169 81.4192V81.4696ZM84.5638 125.558C84.3605 125.558 84.3097 125.508 84.2081 125.356C83.141 123.944 82.0738 121.724 81.0575 120.16C78.3643 115.974 75.6202 112.342 72.5712 108.407C72.4696 108.256 71.6565 107.247 71.7582 107.146L77.6528 110.929C78.3134 109.92 78.9232 108.861 79.6347 107.852C79.8887 107.549 81.2608 105.683 81.464 105.733L84.8687 109.517V118.899C84.9195 118.899 84.5638 125.508 84.5638 125.508V125.558ZM95.2352 108.81C95.4384 107.802 95.6417 106.641 95.9974 105.683C96.0482 105.532 95.9974 105.481 96.2515 105.532C96.5056 107.146 97.1154 108.71 97.3694 110.273C98.03 114.158 98.03 119.404 97.3694 123.338C97.1662 124.7 96.7088 126.012 96.5056 127.324C96.3023 127.324 96.3531 127.071 96.3023 126.97C95.0319 120.614 93.6091 114.511 90.5601 108.71L91.7289 105.38C92.5927 106.238 93.5074 107.095 94.3205 107.953C94.4729 108.104 94.9811 108.962 95.1843 108.76L95.2352 108.81ZM94.2188 104.371L88.4258 97.965L92.0846 91.609C93.3042 95.7454 93.6599 100.084 94.2697 104.321L94.2188 104.371ZM103.467 78.1908C98.3349 85.1016 88.0193 84.7485 83.954 77.081C75.9251 78.6952 67.6929 73.6003 64.4407 66.4372L63.3735 62.9061C62.2556 68.3541 64.7964 74.1048 69.0141 77.535C70.8435 79.0483 71.6565 78.897 72.7237 81.3183C73.9433 83.9919 74.6039 87.1194 74.3498 90.0452C73.5367 89.339 72.9778 88.431 72.4188 87.5734C70.9959 85.4547 69.6747 82.8821 68.5568 80.5616C68.4551 80.3094 68.4551 79.6032 68.0994 80.0572C68.8108 83.8405 70.3353 87.977 72.5204 91.155C72.5712 91.2559 72.7745 91.3567 72.5712 91.4576C64.6439 88.2292 57.0215 84.2945 50.0089 79.351C51.1269 76.5765 53.2611 73.9534 55.5987 72.0365C56.4625 73.903 57.5805 75.719 58.9525 77.2323C59.4607 77.7872 60.5786 78.4934 60.9343 78.9474C61.2392 79.351 61.5441 80.259 61.849 80.7634C62.8654 82.3776 64.0341 83.8405 65.5586 85.0007L67.8961 86.5141L65.1521 82.5794C62.5605 78.5943 61.3409 73.8525 60.5278 69.2117L60.2737 71.179C60.2229 72.6419 60.3246 74.1048 60.5278 75.5172C56.4117 70.5232 55.6495 63.4106 57.4789 57.3572C57.1231 57.3068 57.2756 57.4581 57.174 57.6094C56.1068 59.4759 54.9381 62.6034 54.8364 64.7221C54.8364 65.5292 55.1413 66.9921 54.9381 67.5974C54.8872 67.8497 53.9217 68.6568 53.7693 68.9594C51.9907 66.7399 50.7711 62.9061 51.1777 60.0812C51.3301 58.921 52.9054 55.8943 53.566 54.7341C53.9726 53.9775 55.5479 51.4048 56.2593 51.1021C56.5642 50.9508 57.6313 51.7579 58.0887 51.9597C59.105 52.4137 60.1721 52.7668 61.2901 53.0695L61.5441 52.7163C61.5441 52.565 60.2737 51.4552 60.0197 51.203C58.1903 49.1852 56.7674 46.4612 56.3101 43.7877C55.243 37.3308 59.7656 33.9006 62.5096 28.8562C63.6784 26.6871 64.4915 24.2657 65.7111 22.0966C67.3372 24.9719 67.388 28.3517 68.201 31.4793C68.76 33.5475 69.7763 35.9184 70.8943 37.7848C71.809 39.2981 72.9269 40.6097 73.9433 42.0221L74.1973 41.8708L72.5712 35.7166C73.74 35.7166 74.9088 35.7166 76.0775 35.7166C82.8869 35.9688 89.6454 38.1379 94.6762 42.8292C95.1843 43.2832 95.6925 44.1408 96.099 44.4435C96.658 44.9479 98.4874 45.4019 99.3513 46.0072C100.571 46.8648 101.435 48.6304 101.435 50.1437C101.435 50.295 101.536 50.5977 101.282 50.5977C100.876 48.5799 99.148 47.6719 97.4711 46.8144L98.5382 48.2268C99.0972 49.0844 99.4529 50.3959 99.2496 51.4552C99.148 51.9092 98.3349 51.8588 98.0301 51.657C97.9284 51.5561 96.8105 49.6392 96.4548 49.1852C92.4403 44.393 87.7652 47.1675 84.2589 50.7995C85.1228 50.7995 85.9358 50.2446 86.7489 49.9924C89.1372 49.3366 91.3223 49.3366 93.2533 51.1021C90.7125 51.1021 88.6291 52.7163 86.3932 53.6748C88.4766 55.4908 90.4585 58.1643 93.5582 57.7608C94.2188 57.6599 94.8286 57.2563 95.3876 57.0041L93.8123 59.5263C92.0846 61.5946 89.1372 61.3928 86.9013 60.283C86.8505 60.5352 87.0538 60.5857 87.2062 60.6866C88.7307 61.7459 90.4585 62.6539 92.3895 62.7043C91.1699 65.0248 91.0683 67.6983 90.7634 70.271C91.1191 70.3214 90.9666 70.1701 91.0174 69.9683C92.3387 65.5797 96.8105 60.0812 99.9102 56.6006C100.368 56.0961 100.825 55.5412 101.384 55.1881C101.689 55.1377 103.976 55.6926 104.331 55.8943C104.433 55.9448 104.535 55.8943 104.484 56.0961C102.807 57.6599 101.079 59.1228 99.8086 61.0397C98.4366 63.0574 97.3694 65.4283 96.7597 67.7488C99.2496 64.823 100.876 60.9892 104.077 58.6688C104.077 60.4848 105.449 61.6954 107.279 61.7963C108.651 61.8972 110.073 61.1406 111.141 62.4017C111.954 63.3601 111.598 64.2177 111.141 65.2265C110.531 66.4372 109.514 67.3452 108.752 68.4045C106.516 71.4817 106.008 75.1641 103.721 78.2916L103.467 78.1908ZM91.1699 55.3395C91.0683 55.4403 89.6962 54.4315 89.7979 54.3306L90.865 53.9775C91.1191 53.9775 91.0174 55.0872 91.1699 55.3395ZM113.529 70.271C113.122 70.9268 111.649 71.0781 110.887 72.541C109.616 74.8614 109.718 79.0988 106.669 79.9059C106.872 79.0483 107.279 78.2916 107.583 77.4845C108.397 75.1641 108.905 71.7843 110.836 70.1197C111.293 69.7161 112.919 68.5054 113.478 69.0603C113.732 69.3125 113.681 69.9683 113.478 70.2205L113.529 70.271Z" fill="#252525"/>
<path d="M83.2945 98.3681L77.4507 107.549C77.2982 107.65 77.1458 107.549 76.9933 107.448C75.7737 106.994 73.8427 105.582 72.674 104.825C70.7938 103.614 68.3546 102.202 66.6268 100.84C62.5107 97.6619 58.5979 93.2733 54.6343 89.7926C50.6706 86.3119 46.8086 83.7393 43.9121 80.1577C41.0156 76.5762 43.8105 78.9975 44.3186 78.0391C48.6888 81.6711 53.5163 85.0004 58.5471 87.7748C66.4236 92.1635 74.9607 95.1901 83.3961 98.3681H83.2945Z" fill="#252525"/>
<path d="M84.5638 125.559C84.3605 125.559 84.3097 125.508 84.2081 125.357C83.1409 123.944 82.0738 121.725 81.0575 120.161C78.3642 115.974 75.6201 112.342 72.5712 108.408C69.5222 104.473 71.6565 107.247 71.7581 107.146L77.6528 110.93C78.3134 109.921 78.9232 108.862 79.6346 107.853C80.346 106.844 81.2607 105.684 81.464 105.734L84.8687 109.517V118.9C84.9195 118.9 84.5638 125.508 84.5638 125.508V125.559Z" fill="#252525"/>
<path d="M95.2376 108.811C95.4408 107.802 95.6441 106.642 95.9998 105.684C96.3555 104.725 95.9998 105.482 96.2539 105.532C96.508 107.147 97.1178 108.71 97.3718 110.274C98.0325 114.158 98.0325 119.405 97.3718 123.339C97.1686 124.701 96.7112 126.013 96.508 127.324C96.3047 127.324 96.3555 127.072 96.3047 126.971C95.0343 120.615 93.6115 114.511 90.5625 108.71L91.7313 105.381C92.5951 106.239 93.5098 107.096 94.3229 107.954C95.1359 108.811 94.9835 108.963 95.1868 108.761L95.2376 108.811Z" fill="#252525"/>
<path d="M92.0337 91.6598C93.2533 95.7963 93.609 100.134 94.2188 104.372L88.4258 97.9654L92.0845 91.6094L92.0337 91.6598Z" fill="#252525"/>
<path d="M75.418 81.4704C75.5704 81.319 76.4851 82.3279 76.6376 82.4793C78.8226 84.951 79.6865 88.0786 79.4833 91.3575C79.28 94.6363 79.1784 93.8797 78.8735 93.9301L76.1802 92.7195L76.4343 89.6928C76.4343 86.9184 76.231 84.0935 75.418 81.4199V81.4704Z" fill="#DFFD53"/>
<path d="M91.1704 55.3405C91.0687 55.4414 89.6967 54.4325 89.7983 54.3316L90.8655 53.9785C91.1196 53.9785 91.0179 55.0883 91.1704 55.3405Z" fill="#DFFD53"/>
<path d="M92.9133 128.74C91.4623 128.165 90.1697 127.187 88.8809 126.323C85.5387 123.995 82.189 121.442 78.9002 119C72.2064 114.063 65.6747 108.837 58.8722 104.073L61.3622 98.0422L51.9712 96.3664C49.0072 91.6471 44.9828 87.7558 40.9068 84.0362L44.3981 77.1224L44.7414 77.1112C53.7173 83.5035 63.6507 89.4112 71.1923 97.4371C78.4956 105.187 86.6216 116.99 91.8575 126.282C97.0934 135.573 92.8258 127.837 92.9133 128.74Z" fill="#DFFD53"/>
<path d="M96.358 125.753C96.1255 126.033 93.8746 122.626 93.6914 122.317C91.8154 119.295 90.4876 116.1 89.2038 112.838C87.92 109.576 88.1307 108.374 86.1442 106.475C84.1577 104.576 83.3586 104.396 83.267 104.242C82.5394 102.484 83.6023 99.2511 84.4136 97.5759C84.6376 97.5289 87.418 100.13 87.6691 100.482C88.697 102.004 89.1835 104.275 90.247 105.962C92.6251 109.69 95.9858 111.995 96.6584 116.775C97.3311 121.554 96.6725 122.85 96.414 125.741L96.358 125.753Z" fill="#DFFD53"/>
<path d="M86.7418 88.4656C89.1956 91.3555 91.0131 95.0784 92.434 98.5972C93.855 102.116 92.7188 98.8255 92.488 99.1073C90.7276 96.7052 88.525 94.6884 86.235 92.8065L86.7977 88.4535L86.7418 88.4656Z" fill="#DFFD53"/>
</svg>
