<svg width="160" height="160" viewBox="0 0 160 160" fill="none" xmlns="http://www.w3.org/2000/svg">
<path d="M67.9773 20.0049C68.084 20.1116 68.7242 22.0322 68.8309 22.2989C70.5915 28.0609 70.2714 31.9555 73.6858 37.4507C77.1003 42.9458 76.4067 41.3453 76.6201 41.452C76.8336 41.5587 77.047 41.5054 76.9403 41.2919L75.233 34.6764C83.3957 34.2496 92.5721 36.3303 98.7075 41.9322C99.8279 42.9458 100.255 44.0662 101.642 44.7598C103.029 45.4533 103.509 45.4 104.309 45.9868C105.643 46.9472 106.924 49.6145 106.658 51.215C106.017 49.3477 104.737 48.3874 102.923 47.7472C103.99 49.1343 104.631 50.948 104.257 52.2821C103.937 53.4218 102.977 52.6019 102.923 52.5488C102.603 52.3354 101.268 49.5614 100.575 48.8145C96.2542 44.7598 91.3459 47.9073 87.9848 51.4818C89.1051 51.5885 90.0113 50.575 91.0783 50.2549C93.3724 49.6681 96.0408 50.0413 97.8547 51.7485C94.9204 52.5488 92.9998 53.5091 90.6523 54.6829C90.6523 54.6829 91.0356 55.2845 91.4522 55.67C91.8687 56.0555 92.5188 56.6571 92.5188 56.6571C93.8526 57.7774 95.293 58.9512 97.107 59.0045C98.9209 59.0579 98.6008 58.6844 99.4544 58.7378C98.6542 60.1249 98.014 61.5654 96.4134 62.1522C94.8129 62.7391 92.7322 62.419 90.7582 61.7788C92.3054 63.1659 94.3861 64.2329 96.5201 64.2863C95.4531 66.9538 95.0796 69.8348 94.9196 72.6624C95.293 72.7158 95.133 72.5557 95.1863 72.3423C96.8402 67.4874 100.361 62.7391 103.723 58.8445C104.096 58.4177 106.123 56.0702 106.497 56.0169C106.87 55.9635 109.218 56.6037 109.698 56.7638C110.178 56.9238 109.911 56.7104 109.858 56.9772C105.803 60.2849 102.709 64.553 101.482 69.7281C104.256 66.6337 105.857 62.5257 109.271 60.0182C109.644 61.8321 110.925 63.2193 112.899 63.326C114.873 63.4327 116.208 62.5255 117.328 64.0193C118.928 66.6869 116.047 68.9276 114.927 70.4214C112.686 73.5691 111.779 77.9439 109.859 81.0917C107.938 84.2394 106.871 84.026 105.857 84.8262C100.949 88.6142 94.1193 87.7074 89.7979 83.0659C88.9976 82.1589 87.9314 81.4651 87.1845 80.5581C83.3966 81.145 80.4081 80.7716 76.9403 79.2244C71.3384 76.7169 66.7502 71.0085 65.5231 64.8731C65.5231 64.7131 65.3639 64.8196 65.3105 64.8196C65.2572 64.8196 64.9363 65.8868 64.8829 66.1002C64.5094 71.6487 67.1237 77.1439 71.3384 80.5584C75.5531 83.9728 73.4724 81.8922 74.2193 82.7458C76.14 84.9865 77.3671 90.7484 77.1537 93.6828C76.9403 96.6171 77.2604 94.0562 76.9403 94.0029C75.1263 91.7088 73.6325 89.1479 72.2454 86.5337C70.8582 83.9195 71.285 84.1863 70.7515 83.386C70.218 82.5857 70.5915 83.0125 70.3247 83.0659C70.9116 87.5474 72.7789 91.8155 75.1263 95.6034C72.7789 94.8031 70.4848 93.7361 68.244 92.6691C63.9759 90.6417 59.6545 88.2943 55.6532 85.7868C51.6518 83.2793 50.9049 82.7458 50.8516 82.4257C51.8119 79.9182 53.8392 76.9838 55.8666 75.2233C57.8939 73.4627 56.6668 74.5297 56.8269 74.6364C57.7339 76.8771 59.121 78.9578 60.8816 80.6651C62.6422 82.3723 61.8952 81.3586 62.2687 81.7855C62.8022 82.4257 63.1223 83.4927 63.5491 84.2396C64.4027 85.7334 66.0033 87.5474 67.3371 88.561C68.6708 89.5747 69.7379 90.2149 69.8446 90.1082C68.9909 88.3476 67.6572 86.9072 66.6435 85.1999C64.2427 81.0919 62.9623 76.2369 62.2153 71.542L62.1095 72.022L61.8427 71.7552C62.0561 74.1024 61.7885 75.7565 61.7885 77.6774C58.6408 73.9428 57.5205 68.4477 57.7872 63.5927C58.054 58.7378 58.3749 60.018 58.6417 58.4174C58.5883 58.3107 58.3749 58.4174 58.3749 58.4174C58.3749 58.6842 57.6813 60.018 57.5746 60.2847C56.8811 61.8853 55.9199 64.5705 55.8666 66.2777C55.8132 67.985 56.4001 68.8046 55.8666 69.7116C55.3331 70.6185 54.9854 70.9549 54.6403 70.9549C54.5336 70.9549 54.747 71.8086 54.6403 71.7552C54.4269 71.5952 53.039 68.1809 52.8789 67.7541C50.5848 61.8855 52.2387 58.5777 55.4398 53.7761C58.6408 48.9745 56.9336 51.2686 57.6805 51.3753C58.4274 51.482 59.5478 52.4423 60.1347 52.6557C60.7215 52.8691 62.162 53.4027 62.6955 53.456C63.229 53.5094 63.069 53.456 63.1223 53.296C63.229 52.9225 61.6293 51.5885 61.3092 51.215C60.5623 50.3614 59.6011 48.9212 59.0676 47.9075C53.8926 37.7174 61.7885 32.5957 65.6832 24.2729C66.27 23.0459 66.8569 20.9118 67.4971 19.9515C68.1373 18.9912 67.6038 19.578 67.8172 19.7914L67.9773 20.0049ZM69.4177 45.2399C69.5245 43.9595 70.058 42.7324 70.218 41.3986C70.5381 37.7708 68.5108 33.3426 67.3904 29.8215C66.27 26.3003 67.0169 27.6874 66.6435 28.0075C64.8829 33.1292 59.8679 36.597 60.2414 42.4657C60.7757 45.6132 60.8282 46.4137 61.7352 47.534C62.6422 48.6544 63.5491 48.7078 64.6161 49.2946C65.6832 49.8815 65.203 49.9882 65.4698 49.5614C66.5901 47.6941 66.6435 44.7598 65.6832 42.7858C66.9636 42.2523 68.3507 43.1592 68.8842 44.2796C69.4177 45.4 68.9376 45.2399 69.4177 45.1866V45.2399Z" fill="#DDFB53"/>
<path d="M90.758 134.815C90.758 134.815 89.6376 134.495 89.4242 134.495C88.7306 134.335 88.8373 134.655 87.9837 134.069C83.5022 131.294 78.914 126.973 74.5392 123.772C68.884 119.664 62.802 116.089 57.2535 111.821V111.501C57.5202 110.754 60.0811 105.472 59.8677 105.206C59.5476 104.832 51.0648 103.498 49.9444 103.018C46.85 97.7898 42.742 93.415 38.3672 89.2002L42.3152 81.6777H42.8487C52.932 89.4136 63.6556 96.4026 71.925 106.219C77.2601 112.568 82.1685 119.93 86.4365 127.026C87.9304 129.534 89.4776 132.148 90.7046 134.815H90.758Z" fill="#DDFB53"/>
<path d="M91.8342 133.212C91.5141 133.479 90.7138 131.611 90.6071 131.451C88.8999 127.717 87.8862 123.022 87.1926 118.967C86.4991 114.912 87.0326 112.245 83.8315 108.35C80.6304 104.456 82.9245 107.55 82.7645 107.283C81.9109 105.789 84.4184 101.628 85.3253 100.294C85.5387 100.134 86.1789 101.041 86.2856 101.255C88.6865 104.296 88.4197 105.256 89.22 108.83C90.0202 112.405 93.8082 117.207 94.0749 121.955C94.3417 125.903 93.0079 129.584 91.7808 133.212H91.8342Z" fill="#DDFB53"/>
<path d="M49.4063 81.3525C49.1929 81.3525 49.0329 81.3525 48.8728 81.2991C48.5527 81.1391 47.379 80.1788 47.0589 79.912C46.7388 79.6452 45.5117 78.6849 45.5117 78.2581L50.1533 66.5742C50.7401 68.7616 52.3407 70.4688 53.5144 72.3895C51.5404 75.057 49.6731 77.9914 49.353 81.4058L49.4063 81.3525Z" fill="#DDFB53"/>
<path d="M82.3841 98.6982C82.1707 98.8582 79.5032 97.4711 79.023 97.2577C79.6632 93.1497 79.1831 88.9883 78.3828 84.9336C79.4498 85.5738 80.3568 86.8009 80.997 87.8679C82.9177 91.1223 83.1311 95.017 82.3841 98.6448V98.6982Z" fill="#DDFB53"/>
<path d="M112.269 83.0727C112.162 82.966 113.23 80.4585 113.39 80.085C114.35 77.2041 114.723 73.6829 117.444 71.869C120.165 70.055 119.632 70.4285 119.845 71.6556C120.058 72.8826 118.351 73.3628 117.604 74.003C116.057 75.3368 115.79 78.3778 115.043 80.2451C114.297 82.1124 113.656 82.9126 112.269 83.0193V83.0727Z" fill="#DDFB53"/>
<path d="M87.564 92.4549C89.378 96.4563 90.5517 100.778 91.1919 105.099C90.9785 105.099 90.9252 104.832 90.8718 104.726C90.2316 103.605 89.6981 102.378 89.0045 101.258C88.311 100.138 86.9772 98.3236 85.9102 96.8831C85.9102 96.6697 87.1372 93.0952 87.3506 92.615C87.564 92.1348 87.2973 92.3482 87.6174 92.4549H87.564Z" fill="#DDFB53"/>
<path d="M95.1857 54.6836L95.3458 56.1241C95.1857 56.2841 94.1183 55.7506 94.012 55.2705C93.9347 54.9213 94.9723 54.7369 95.1857 54.6836Z" fill="#DDFB53"/>
</svg>
