<svg width="150" height="150" viewBox="0 0 150 150" fill="none" xmlns="http://www.w3.org/2000/svg">
<rect width="150" height="150" rx="75" fill="#252525"/>
<path d="M71.575 36.3654L71.8552 36.1985L70.0617 29.4108C71.3508 29.4108 72.6399 29.4108 73.929 29.4108C81.4393 29.6889 88.8935 32.0813 94.4422 37.2556C99.9909 42.4299 95.5631 38.7022 96.0115 39.036C96.628 39.5924 98.6457 40.0931 99.5985 40.7607C100.551 41.4284 101.896 43.6539 101.896 45.323C101.896 46.9921 102.009 45.8237 101.728 45.8237C101.28 43.5982 99.3743 42.5968 97.5248 41.6509L98.7018 43.2088C99.3183 44.1546 99.7106 45.6012 99.4864 46.7696C99.2622 47.9379 98.4776 47.2147 98.1413 46.9921C97.805 46.7696 96.7962 44.7666 96.4038 44.2659C91.9761 38.9804 86.8198 42.0404 82.9525 46.0463C83.9053 46.0463 84.8021 45.4343 85.6988 45.1561C88.3331 44.4328 90.7431 44.4328 92.8729 46.3801C90.1266 46.3801 87.7726 48.1605 85.3065 49.2176C87.6044 51.2205 89.7903 54.1693 93.2092 53.7242C96.628 53.2791 94.6103 53.1678 95.2269 52.8897L93.4894 55.6715C91.5838 57.9526 88.3331 57.7301 85.867 56.5061C85.8109 56.7843 86.0351 56.8399 86.2033 56.9512C87.8847 58.1195 89.7903 59.121 91.9201 59.1767C90.5749 61.736 90.4629 64.6847 90.1266 67.5222C90.5189 67.5779 90.3508 67.411 90.4068 67.1884C91.864 62.348 96.7962 56.2835 100.215 52.4446C103.634 48.6056 101.224 51.2762 101.84 50.8867C102.177 50.8311 104.699 51.4431 105.091 51.6656C105.483 51.8882 105.315 51.6656 105.259 51.8882C103.41 53.6129 101.504 55.2264 100.103 57.3406C98.7018 59.4548 97.4127 62.1811 96.7401 64.7404C99.4864 61.5134 101.28 57.285 104.811 54.7257C104.811 56.7286 106.324 58.0639 108.342 58.1752C110.36 58.2865 111.424 57.4519 112.601 58.8428C113.778 60.2338 113.106 60.8458 112.601 61.9585C112.097 63.0713 110.808 64.2953 109.967 65.4637C107.501 68.8575 106.941 72.919 104.419 76.3685C98.7578 83.9908 87.3803 83.6014 82.8965 75.1445C74.041 76.9249 64.9614 71.3056 61.3744 63.4051L60.1974 59.5105C58.9644 65.5193 61.7667 71.8619 66.4186 75.6453C71.0706 79.4286 69.3331 77.1475 70.5101 79.818C71.6871 82.4886 72.5838 86.2163 72.3036 89.4433C71.4068 88.6644 70.7903 87.6629 70.1738 86.7171C68.6045 84.3803 67.1473 81.5428 65.9142 78.9835C64.6812 76.4242 65.8021 77.9264 65.4098 78.4271C66.1945 82.5999 67.8759 87.1622 70.2859 90.6673C72.6959 94.1724 70.5661 90.8898 70.3419 91.0011C61.5986 87.4403 53.1915 83.1006 45.457 77.6482C46.6901 74.5881 49.044 71.695 51.6222 69.5808C52.575 71.6394 53.808 73.6423 55.3213 75.3114C56.8346 76.9805 57.1148 76.7024 57.5072 77.2031C57.8995 77.7038 58.1797 78.6497 58.516 79.206C59.6369 80.9864 60.926 82.5999 62.6074 83.8796L65.1856 85.5487L62.1591 81.209C59.3007 76.8136 57.9555 71.5837 57.0588 66.4651L56.7785 68.635C56.7225 70.2485 56.8346 71.8619 57.0588 73.4198C52.519 67.9117 51.6783 60.0668 53.696 53.3904C53.3036 53.3347 53.4718 53.5017 53.3597 53.6686C52.1827 55.7271 50.8936 59.1767 50.7815 61.5134C50.6694 63.8502 51.1178 64.0171 50.8936 64.6847C50.6694 65.3524 49.7727 65.8531 49.6045 66.1869C47.6429 63.7389 46.2977 59.5105 46.7461 56.3948C47.1945 53.2791 48.6517 51.7769 49.3803 50.4973C50.1089 49.2176 51.5662 46.8252 52.3508 46.4914C53.1355 46.1576 53.8641 47.2147 54.3685 47.4372C55.4895 47.9379 56.6664 48.3274 57.8995 48.6612L58.1797 48.2718C58.1797 48.1049 56.7785 46.8808 56.4983 46.6027C54.4806 44.3772 52.9113 41.3728 52.4069 38.424C51.2299 31.3024 56.2181 27.5191 59.2446 21.9554C62.2712 16.3917 61.4305 16.8924 62.7756 14.5C64.5691 17.6713 64.6251 21.399 65.5219 24.8485C66.4186 28.298 67.2594 29.7446 68.4924 31.8032C69.7254 33.8617 70.7343 34.9188 71.8552 36.4767L71.575 36.3654ZM61.7667 22.7343L61.4305 22.9012C59.5249 28.2424 54.3125 31.5806 55.0411 37.7563C55.7697 43.9321 57.7874 42.9862 60.1414 44.6553C61.3184 42.5968 61.6546 39.8149 60.4777 37.6451C61.7667 36.8661 63.28 38.1458 63.8965 39.2585C64.513 40.3713 63.8965 40.0375 64.2889 39.9262C64.7933 37.4225 65.4658 35.3083 64.8493 32.749C64.2328 30.1897 62.4393 26.0725 61.7667 22.6787V22.7343Z" fill="#DFFD53"/>
<path d="M43.9415 76.4244C43.7173 76.48 43.7173 76.3687 43.6052 76.3131C42.8205 75.7567 41.5314 74.7553 40.8028 74.0876C40.0742 73.42 40.0742 73.4756 40.0742 73.1974L44.7822 61.4023C45.3987 63.6278 46.968 65.4639 48.2571 67.2999C46.1834 69.8592 44.3338 73.0861 43.9415 76.4244Z" fill="#DFFD53"/>
<path d="M115.234 66.2984C115.515 66.5766 115.459 67.2999 115.234 67.5781C114.786 68.3014 113.161 68.4683 112.32 70.0818C110.919 72.6411 111.031 77.3146 107.668 78.2048C107.892 77.2589 108.341 76.4244 108.677 75.5342C109.574 72.9749 110.134 69.2472 112.264 67.4112C114.394 65.5751 114.562 65.6308 115.178 66.2428L115.234 66.2984Z" fill="#DFFD53"/>
<path d="M116.467 58.3418C115.57 57.0622 114.729 56.784 114.561 55.0592C114.449 53.3345 115.009 51.9992 113.44 50.7752C111.086 48.9392 107.331 49.7737 104.753 48.3271C105.93 45.5453 105.762 43.1529 104.192 40.5936C102.679 38.0899 101.334 37.9786 99.2042 36.5321C98.6998 36.1982 98.0833 35.3637 97.5788 34.9186C93.2632 31.2465 88.219 28.1309 82.5582 26.9068C83.511 21.8995 81.7736 16.2801 78.8031 12.2186C77.0096 9.77058 76.0568 10.3826 74.3193 12.3855C72.5258 14.4441 71.1807 16.8365 69.8355 19.1733L68.3223 22.734C67.8739 19.1733 67.1453 13.6652 64.455 11.0502C62.7176 9.38112 61.5406 9.60367 60.2515 11.4953C58.5701 13.999 57.5052 17.226 55.9919 19.8965C53.4698 24.2919 49.9949 27.6858 48.7618 32.7487C47.8651 36.3652 48.2574 39.5921 49.6586 43.0416C46.4639 45.434 45.0067 49.4399 43.5495 53.0563C39.5701 62.9041 30.8828 81.6538 30.8828 81.6538C35.6468 87.4401 41.9801 96.8428 44.6704 103.853L54.4786 104.02L51.0037 112.922C61.2603 120.822 70.9004 129.669 78.8031 139.906L79.0833 140.073C88.1629 139.405 96.9063 136.623 104.641 132.117C104.641 131.95 104.641 131.839 104.641 131.672C104.641 131.06 104.809 130.448 104.921 129.836C104.921 129.724 105.033 129.279 105.033 129.057C105.033 127.944 105.201 126.887 105.425 125.83C105.425 125.941 105.369 126.052 105.313 126.108C105.033 126.108 105.201 125.83 105.201 125.663C105.538 121.991 106.266 118.374 106.378 114.647L102.063 108.471C101.951 107.97 103.968 106.635 103.856 105.912C103.744 105.188 101.222 101.739 100.605 100.737C100.045 99.7915 99.4284 98.6232 99.0921 97.566L98.6998 96.4416C98.1393 94.7725 98.6998 96.4416 98.1393 94.7725C98.0459 94.4943 98.0272 94.6173 97.8591 94.1165C97.5789 93.6597 97.6909 93.7154 97.5789 93.3815C97.4668 93.2146 97.1865 92.8925 97.1305 92.67C97.0744 92.5587 97.0184 92.5031 96.9063 92.3918C96.8502 92.2805 96.7942 92.1692 96.7381 92.058C95.1128 90.9452 93.5435 89.7212 91.9741 88.4416L93.3193 86.8837C96.0656 86.9393 98.6998 86.4943 101.166 85.2146C101.726 84.9364 103.8 83.3229 103.968 83.2673C104.248 83.2117 105.425 83.6011 105.874 83.6568C109.629 83.9906 112.319 82.5996 114.785 79.8178C119.661 74.3097 120.726 64.4063 116.411 58.3418H116.467ZM44.7825 61.4019C45.399 63.6274 46.9683 65.4634 48.2574 67.2994C46.1837 69.8587 44.3341 73.0857 43.9418 76.4239C43.7176 76.4796 43.7176 76.3683 43.6055 76.3126C42.8208 75.7563 41.5318 74.7548 40.8031 74.0872C40.579 73.9202 40.0745 73.4751 40.0745 73.197L44.7825 61.4019ZM63.5022 101.294C58.9624 97.7886 54.6468 92.9482 50.2751 89.1092C46.4639 85.771 41.6439 82.4327 38.4492 78.4825C37.5524 77.3697 38.3371 77.2028 38.8975 76.1457C43.7176 80.1516 49.0421 83.8237 54.5907 86.8837C63.278 91.7241 72.6939 95.0624 81.9978 98.5675L75.5523 108.693C75.3842 108.805 75.2161 108.693 75.0479 108.582C73.7028 108.081 71.573 106.524 70.2839 105.689C68.2102 104.354 65.5199 102.796 63.6143 101.294H63.5022ZM73.2544 79.9291C73.4226 79.7621 74.4314 80.8749 74.5995 81.0418C77.0096 83.768 77.9624 87.2175 77.7382 90.8339C77.7382 91.279 77.4019 93.6158 77.0656 93.6714L74.0951 92.3362L74.3754 88.9979C74.3754 85.9379 74.1512 82.8222 73.2544 79.8734V79.9291ZM83.3429 128.556C83.1187 128.556 83.0627 128.5 82.9506 128.333C81.7736 126.776 80.5966 124.328 79.4756 122.603C76.5051 117.985 73.4786 113.979 70.1158 109.639C70.0037 109.472 69.1069 108.36 69.219 108.248L75.7205 112.421C76.4491 111.308 77.1217 110.14 77.9063 109.027C78.1866 108.693 79.6998 106.635 79.924 106.691L83.6792 110.863V121.212C83.7352 121.212 83.3429 128.5 83.3429 128.5V128.556ZM95.1128 110.084C95.337 108.972 95.5612 107.692 95.9535 106.635C96.0095 106.468 95.9535 106.412 96.2337 106.468C96.514 108.248 97.1865 109.973 97.4668 111.698C98.1954 115.982 98.1954 121.768 97.4668 126.108C97.2426 127.61 96.7381 129.057 96.514 130.503C96.2898 130.503 96.3458 130.225 96.2898 130.114C94.8886 123.104 93.3193 116.371 89.9565 109.973L91.2455 106.301C92.1983 107.247 93.2072 108.193 94.1039 109.139C94.2721 109.305 94.8325 110.251 95.0567 110.029L95.1128 110.084ZM93.9918 105.188L87.6025 98.1224L91.6379 91.1121C92.983 95.6744 93.3753 100.459 94.0479 105.133L93.9918 105.188ZM104.192 76.3126C98.5316 83.9349 87.1541 83.5455 82.6703 75.0886C73.8149 76.869 64.7353 71.2497 61.1482 63.3492L59.9713 59.4546C58.7382 65.4634 61.5406 71.806 66.1925 75.5894C68.2102 77.2585 69.1069 77.0916 70.2839 79.7621C71.629 82.7109 72.3577 86.1604 72.0774 89.3874C71.1807 88.6085 70.5642 87.607 69.9476 86.6612C68.3783 84.3244 66.9211 81.4869 65.6881 78.9276C65.576 78.6494 65.576 77.8705 65.1836 78.3712C65.9683 82.544 67.6497 87.1063 70.0597 90.6114C70.1158 90.7227 70.34 90.834 70.1158 90.9452C61.3724 87.3844 52.9654 83.0447 45.2309 77.5923C46.4639 74.5323 48.8179 71.6391 51.396 69.5249C52.3488 71.5835 53.5819 73.5864 55.0952 75.2555C55.6556 75.8675 56.8887 76.6465 57.281 77.1472C57.6173 77.5923 57.9536 78.5938 58.2898 79.1501C59.4108 80.9305 60.6999 82.544 62.3813 83.8237L64.9594 85.4928L61.9329 81.1531C59.0745 76.7577 57.7294 71.5278 56.8326 66.4092L56.5524 68.5791C56.4963 70.1926 56.6084 71.806 56.8326 73.3639C52.2928 67.8558 51.4521 60.0109 53.4698 53.3345C53.0775 53.2789 53.2456 53.4458 53.1335 53.6127C51.9565 55.6713 50.6674 59.1208 50.5553 61.4575C50.5553 62.3477 50.8916 63.9612 50.6674 64.6288C50.6114 64.907 49.5465 65.7972 49.3784 66.131C47.4167 63.683 46.0716 59.4546 46.52 56.3389C46.6881 55.0592 48.4256 51.721 49.1542 50.4414C49.6025 49.6068 51.34 46.7693 52.1247 46.4355C52.4609 46.2686 53.6379 47.1588 54.1424 47.3813C55.2633 47.882 56.4403 48.2715 57.6733 48.6053L57.9536 48.2159C57.9536 48.049 56.5524 46.8249 56.2721 46.5468C54.2544 44.3213 52.6851 41.3169 52.1807 38.3681C51.0037 31.2465 55.9919 27.4632 59.0185 21.8995C60.3075 19.5071 61.2043 16.8365 62.5494 14.4441C64.3429 17.6154 64.399 21.3431 65.2957 24.7926C65.9122 27.0737 67.0332 29.6887 68.2662 31.7473C69.2751 33.4164 70.5081 34.8629 71.6291 36.4208L71.9093 36.2539L70.1158 29.4661C71.4049 29.4661 72.6939 29.4661 73.983 29.4661C81.4933 29.7443 88.9476 32.1367 94.4963 37.311C95.0567 37.8117 95.6172 38.7576 96.0656 39.0914C96.6821 39.6477 98.6998 40.1485 99.6526 40.8161C100.998 41.762 101.951 43.7093 101.951 45.3784C101.951 45.5453 102.063 45.8791 101.782 45.8791C101.334 43.6536 99.4284 42.6522 97.5788 41.7063L98.7558 43.2642C99.3724 44.21 99.7647 45.6566 99.5405 46.8249C99.4284 47.3257 98.5317 47.27 98.1954 47.0475C98.0833 46.9362 96.8502 44.822 96.4579 44.3213C92.0302 39.0357 86.8739 42.0958 83.0066 46.1017C83.9594 46.1017 84.8562 45.4897 85.7529 45.2115C88.3871 44.4882 90.7972 44.4882 92.9269 46.4355C90.1246 46.4355 87.8267 48.2159 85.3606 49.273C87.6585 51.2759 89.8444 54.2247 93.2632 53.7796C93.9918 53.6683 94.6644 53.2232 95.2809 52.945L93.5435 55.7269C91.6379 58.008 88.3871 57.7855 85.9211 56.5614C85.865 56.8396 86.0892 56.8953 86.2573 57.0065C87.9388 58.1749 89.8444 59.1764 91.9741 59.232C90.629 61.7913 90.5169 64.7401 90.1806 67.5776C90.573 67.6332 90.4048 67.4663 90.4609 67.2438C91.9181 62.4033 96.8502 56.3389 100.269 52.4999C100.774 51.9436 101.278 51.3315 101.894 50.9421C102.231 50.8865 104.753 51.4985 105.145 51.721C105.257 51.7766 105.369 51.721 105.313 51.9436C103.464 53.6683 101.558 55.2818 100.157 57.396C98.6437 59.6215 97.4668 62.2364 96.7942 64.7957C99.5405 61.5688 101.334 57.3404 104.865 54.7811C104.865 56.784 106.378 58.1193 108.396 58.2306C109.909 58.3418 111.479 57.5073 112.656 58.8982C113.552 59.9553 113.16 60.9011 112.656 62.0139C111.983 63.3492 110.862 64.3507 110.021 65.519C107.555 68.9129 106.995 72.9744 104.473 76.4239L104.192 76.3126ZM90.629 51.109C90.5169 51.2203 89.0036 50.1075 89.1157 49.9963L90.2927 49.6068C90.573 49.6068 90.4609 50.8308 90.629 51.109ZM115.29 67.5776C114.841 68.3009 113.216 68.4678 112.375 70.0813C110.974 72.6406 111.086 77.3141 107.723 78.2043C107.948 77.2585 108.396 76.4239 108.732 75.5337C109.629 72.9744 110.189 69.2467 112.319 67.4107C112.824 66.9656 114.617 65.6303 115.234 66.2423C115.514 66.5205 115.458 67.2438 115.234 67.522L115.29 67.5776Z" fill="#252525"/>
<path d="M81.9428 98.5663L75.4974 108.692C75.3293 108.804 75.1611 108.692 74.993 108.581C73.6478 108.08 71.5181 106.522 70.229 105.688C68.1552 104.353 65.465 102.795 63.5594 101.293C59.0196 97.7874 54.7039 92.947 50.3323 89.108C45.9606 85.269 41.701 82.4315 38.5063 78.4813C35.3116 74.5311 38.3942 77.2016 38.9547 76.1445C43.7747 80.1504 49.0992 83.8225 54.6479 86.8825C63.3352 91.7229 72.7511 95.0612 82.0549 98.5663H81.9428Z" fill="#252525"/>
<path d="M83.3415 128.557C83.1173 128.557 83.0612 128.501 82.9491 128.334C81.7722 126.776 80.5952 124.328 79.4742 122.603C76.5037 117.986 73.4772 113.98 70.1144 109.64C66.7515 105.3 69.1055 108.36 69.2176 108.249L75.7191 112.422C76.4477 111.309 77.1203 110.141 77.9049 109.028C78.6896 107.915 79.6984 106.636 79.9226 106.691L83.6778 110.864V121.213C83.7338 121.213 83.3415 128.501 83.3415 128.501V128.557Z" fill="#252525"/>
<path d="M95.1134 110.085C95.3376 108.972 95.5617 107.693 95.9541 106.636C96.3464 105.579 95.9541 106.413 96.2343 106.469C96.5145 108.249 97.1871 109.974 97.4673 111.699C98.196 115.983 98.196 121.769 97.4673 126.109C97.2432 127.611 96.7387 129.057 96.5145 130.504C96.2904 130.504 96.3464 130.226 96.2904 130.115C94.8892 123.104 93.3199 116.372 89.957 109.974L91.2461 106.302C92.1989 107.248 93.2078 108.194 94.1045 109.139C95.0013 110.085 94.8331 110.252 95.0573 110.03L95.1134 110.085Z" fill="#252525"/>
<path d="M91.5809 91.1689C92.926 95.7312 93.3184 100.516 93.9909 105.189L87.6016 98.1236L91.637 91.1133L91.5809 91.1689Z" fill="#252525"/>
<path d="M73.2539 79.9287C73.422 79.7618 74.4309 80.8745 74.599 81.0414C77.0091 83.7677 77.9619 87.2172 77.7377 90.8336C77.5135 94.45 77.4014 93.6154 77.0651 93.6711L74.0946 92.3358L74.3748 88.9975C74.3748 85.9375 74.1507 82.8218 73.2539 79.873V79.9287Z" fill="#DFFD53"/>
<path d="M90.6286 51.1096C90.5165 51.2209 89.0032 50.1082 89.1153 49.9969L90.2923 49.6074C90.5725 49.6074 90.4604 50.8314 90.6286 51.1096Z" fill="#DFFD53"/>
<path d="M92.552 132.065C90.9516 131.43 89.526 130.352 88.1045 129.398C84.4182 126.831 80.7237 124.015 77.0964 121.322C69.7135 115.876 62.5095 110.112 55.0067 104.858L57.753 98.2066L47.3953 96.3583C44.1262 91.1532 39.6875 86.8613 35.1919 82.7588L39.0426 75.1333L39.4212 75.1209C49.3212 82.1713 60.2771 88.6871 68.595 97.5392C76.6501 106.087 85.6127 119.105 91.3875 129.353C97.1624 139.601 92.4555 131.068 92.552 132.065Z" fill="#DFFD53"/>
<path d="M96.3535 128.771C96.097 129.08 93.6145 125.323 93.4124 124.982C91.3433 121.649 89.8787 118.125 88.4628 114.527C87.0469 110.929 87.2792 109.604 85.0883 107.509C82.8973 105.415 82.0159 105.216 81.9149 105.046C81.1124 103.107 82.2847 99.5413 83.1796 97.6936C83.4266 97.6418 86.4932 100.51 86.7701 100.899C87.9038 102.577 88.4404 105.082 89.6134 106.943C92.2363 111.054 95.943 113.597 96.6849 118.869C97.4267 124.141 96.7003 125.57 96.4152 128.758L96.3535 128.771Z" fill="#DFFD53"/>
<path d="M85.7451 87.6454C88.4515 90.8328 90.4561 94.939 92.0233 98.82C93.5905 102.701 92.3373 99.0719 92.0828 99.3826C90.1412 96.7332 87.7119 94.5089 85.1861 92.4333L85.8067 87.6321L85.7451 87.6454Z" fill="#DFFD53"/>
</svg>
