<svg width="28" height="29" viewBox="0 0 28 29" fill="none" xmlns="http://www.w3.org/2000/svg">
<rect y="0.5" width="28" height="28" rx="14" fill="#DFFD52"/>
<path fill-rule="evenodd" clip-rule="evenodd" d="M8.4475 22.5983C8.29868 22.5837 8.1505 22.5632 8.00333 22.5367C7.89524 22.5173 7.79417 22.4698 7.71028 22.3989C7.62639 22.3281 7.56265 22.2364 7.52547 22.133C7.4883 22.0297 7.479 21.9184 7.49852 21.8104C7.51805 21.7023 7.56569 21.6013 7.63667 21.5175C7.97855 21.1145 8.21201 20.6309 8.315 20.1125C8.33417 20.0167 8.29667 19.8483 8.10333 19.66C6.72833 18.3225 5.875 16.5083 5.875 14.5C5.875 10.3083 9.565 7 14 7C18.435 7 22.125 10.3083 22.125 14.5C22.125 18.6917 18.435 22 14 22C13.3058 22 12.6308 21.9192 11.9858 21.7675C10.9315 22.4301 9.68651 22.7224 8.4475 22.5983Z" fill="#233102"/>
</svg>
