<svg width="21" height="20" viewBox="0 0 21 20" fill="none" xmlns="http://www.w3.org/2000/svg">
<path fill-rule="evenodd" clip-rule="evenodd" d="M10.1167 18.6258L10.175 18.6592L10.1983 18.6725C10.2909 18.7225 10.3944 18.7487 10.4996 18.7487C10.6048 18.7487 10.7083 18.7225 10.8008 18.6725L10.8242 18.66L10.8833 18.6258C11.2093 18.4326 11.5273 18.2263 11.8367 18.0075C12.6376 17.4421 13.3859 16.8056 14.0725 16.1058C15.6925 14.4475 17.375 11.9558 17.375 8.75C17.375 6.92664 16.6507 5.17795 15.3614 3.88864C14.072 2.59933 12.3234 1.875 10.5 1.875C8.67664 1.875 6.92795 2.59933 5.63864 3.88864C4.34933 5.17795 3.625 6.92664 3.625 8.75C3.625 11.955 5.30833 14.4475 6.9275 16.1058C7.61387 16.8056 8.36189 17.442 9.1625 18.0075C9.47214 18.2263 9.79045 18.4326 10.1167 18.6258ZM10.5 11.25C11.163 11.25 11.7989 10.9866 12.2678 10.5178C12.7366 10.0489 13 9.41304 13 8.75C13 8.08696 12.7366 7.45107 12.2678 6.98223C11.7989 6.51339 11.163 6.25 10.5 6.25C9.83696 6.25 9.20107 6.51339 8.73223 6.98223C8.26339 7.45107 8 8.08696 8 8.75C8 9.41304 8.26339 10.0489 8.73223 10.5178C9.20107 10.9866 9.83696 11.25 10.5 11.25Z" fill="#2A2A2A"/>
</svg>
