<svg width="22" height="22" viewBox="0 0 22 22" fill="none" xmlns="http://www.w3.org/2000/svg">
<circle cx="11" cy="11" r="11" fill="#DFFD52"/>
<path fill-rule="evenodd" clip-rule="evenodd" d="M6.16895 9.70505C6.39594 8.85715 6.84214 8.08393 7.4627 7.46315C8.08326 6.84236 8.85631 6.39588 9.70414 6.16859C10.552 5.94129 11.4447 5.9412 12.2926 6.16831C13.1404 6.39542 13.9136 6.84174 14.5343 7.46239L15.8029 8.73105H13.6809C13.5483 8.73105 13.4212 8.78373 13.3274 8.8775C13.2336 8.97127 13.1809 9.09844 13.1809 9.23105C13.1809 9.36366 13.2336 9.49084 13.3274 9.58461C13.4212 9.67838 13.5483 9.73105 13.6809 9.73105H17.0089C17.1416 9.73105 17.2687 9.67838 17.3625 9.58461C17.4563 9.49084 17.5089 9.36366 17.5089 9.23105V5.90305C17.5089 5.77045 17.4563 5.64327 17.3625 5.5495C17.2687 5.45573 17.1416 5.40305 17.0089 5.40305C16.8763 5.40305 16.7492 5.45573 16.6554 5.5495C16.5616 5.64327 16.5089 5.77045 16.5089 5.90305V8.02305L15.2423 6.75639C14.4976 6.01136 13.5699 5.47551 12.5524 5.20272C11.535 4.92993 10.4636 4.92982 9.44612 5.20239C8.42861 5.47496 7.50079 6.01061 6.75594 6.75548C6.0111 7.50036 5.47548 8.4282 5.20295 9.44572C5.18596 9.50919 5.18165 9.57539 5.19025 9.64053C5.19884 9.70567 5.22019 9.76848 5.25306 9.82537C5.28593 9.88226 5.32969 9.93212 5.38183 9.9721C5.43397 10.0121 5.49348 10.0414 5.55695 10.0584C5.62042 10.0754 5.68662 10.0797 5.75176 10.0711C5.8169 10.0625 5.87971 10.0411 5.9366 10.0083C5.99349 9.9754 6.04335 9.93165 6.08333 9.87951C6.12331 9.82736 6.15263 9.76786 6.16961 9.70439L6.16895 9.70505ZM16.4409 11.9397C16.3775 11.9227 16.3114 11.9183 16.2462 11.9268C16.1811 11.9354 16.1183 11.9567 16.0614 11.9895C16.0045 12.0223 15.9546 12.066 15.9146 12.1181C15.8746 12.1702 15.8453 12.2296 15.8283 12.2931C15.6013 13.141 15.1551 13.9142 14.5345 14.535C13.914 15.1557 13.1409 15.6022 12.2931 15.8295C11.4453 16.0568 10.5525 16.0569 9.70467 15.8298C8.85679 15.6027 8.08364 15.1564 7.46295 14.5357L6.19495 13.2671H8.31695C8.44956 13.2671 8.57673 13.2144 8.6705 13.1206C8.76427 13.0268 8.81695 12.8997 8.81695 12.7671C8.81695 12.6344 8.76427 12.5073 8.6705 12.4135C8.57673 12.3197 8.44956 12.2671 8.31695 12.2671H4.98828C4.85567 12.2671 4.7285 12.3197 4.63473 12.4135C4.54096 12.5073 4.48828 12.6344 4.48828 12.7671V16.0951C4.48828 16.2277 4.54096 16.3548 4.63473 16.4486C4.7285 16.5424 4.85567 16.5951 4.98828 16.5951C5.12089 16.5951 5.24807 16.5424 5.34183 16.4486C5.4356 16.3548 5.48828 16.2277 5.48828 16.0951V13.9751L6.75495 15.2417C7.49968 15.9867 8.42743 16.5226 9.44493 16.7953C10.4624 17.0681 11.5338 17.0681 12.5513 16.7955C13.5688 16.5228 14.4967 15.9871 15.2415 15.2422C15.9863 14.4972 16.5218 13.5693 16.7943 12.5517C16.8285 12.4237 16.8105 12.2874 16.7443 12.1726C16.678 12.0579 16.5689 11.9741 16.4409 11.9397Z" fill="black"/>
</svg>
