<svg width="127" height="47" viewBox="0 0 127 47" fill="none" xmlns="http://www.w3.org/2000/svg">
<g clip-path="url(#clip0_9193_3852)">
<path d="M0 23.3947C0 11.0465 10.9341 1.52799 23.2135 2.82987C35.6788 4.15147 50.9339 5.43809 63.0818 5.43809C75.2298 5.43809 90.4849 4.15147 102.95 2.82987C115.23 1.52799 126.164 11.0465 126.164 23.3947V23.3947C126.164 35.7354 115.242 45.2503 102.97 43.9502C90.4539 42.6242 75.144 41.3295 63.0818 41.3295C51.0197 41.3295 35.7098 42.6242 23.1934 43.9502C10.9214 45.2503 0 35.7354 0 23.3947V23.3947Z" fill="#DFFD52"/>
<path d="M0.078125 23.7435C0.078125 11.3377 11.069 1.7781 23.4051 3.09166C35.8277 4.41443 50.9925 5.69754 63.0781 5.69754C75.1638 5.69754 90.3286 4.41443 102.751 3.09166C115.087 1.7781 126.078 11.3377 126.078 23.7435V23.7435C126.078 36.1416 115.1 45.6976 102.772 44.3858C90.2981 43.0586 75.0787 41.7673 63.0781 41.7673C51.0776 41.7673 35.8581 43.0586 23.3846 44.3858C11.056 45.6976 0.078125 36.1416 0.078125 23.7435V23.7435Z" fill="#88AF01" fill-opacity="0.5"/>
<path d="M18.7303 28.2266V17.0266H20.8743L27.4823 25.0906H26.4423V17.0266H29.0023V28.2266H26.8743L20.2503 20.1626H21.2903V28.2266H18.7303ZM35.7482 28.3546C34.7669 28.3546 33.9029 28.1626 33.1562 27.7786C32.4202 27.3946 31.8496 26.8719 31.4442 26.2106C31.0389 25.5386 30.8362 24.7759 30.8362 23.9226C30.8362 23.0586 31.0336 22.2959 31.4282 21.6346C31.8336 20.9626 32.3829 20.4399 33.0762 20.0666C33.7696 19.6826 34.5536 19.4906 35.4282 19.4906C36.2709 19.4906 37.0282 19.6719 37.7002 20.0346C38.3829 20.3866 38.9216 20.8986 39.3162 21.5706C39.7109 22.2319 39.9082 23.0266 39.9082 23.9546C39.9082 24.0506 39.9029 24.1626 39.8922 24.2906C39.8816 24.4079 39.8709 24.5199 39.8602 24.6266H32.8682V23.1706H38.5482L37.5882 23.6026C37.5882 23.1546 37.4976 22.7652 37.3162 22.4346C37.1349 22.1039 36.8842 21.8479 36.5642 21.6666C36.2442 21.4746 35.8709 21.3786 35.4442 21.3786C35.0176 21.3786 34.6389 21.4746 34.3082 21.6666C33.9882 21.8479 33.7376 22.1092 33.5562 22.4506C33.3749 22.7812 33.2842 23.1759 33.2842 23.6346V24.0186C33.2842 24.4879 33.3856 24.9039 33.5882 25.2666C33.8016 25.6186 34.0949 25.8906 34.4682 26.0826C34.8522 26.2639 35.3002 26.3546 35.8122 26.3546C36.2709 26.3546 36.6709 26.2852 37.0122 26.1466C37.3642 26.0079 37.6842 25.7999 37.9722 25.5226L39.3002 26.9626C38.9056 27.4106 38.4096 27.7572 37.8122 28.0026C37.2149 28.2372 36.5269 28.3546 35.7482 28.3546ZM40.2476 28.2266L44.1036 23.1706L44.0556 24.5466L40.3596 19.6186H43.1596L45.4956 22.8346L44.4396 22.8666L46.8556 19.6186H49.5116L45.7996 24.4986V23.1546L49.6396 28.2266H46.8076L44.3596 24.8026L45.3996 24.9466L42.9676 28.2266H40.2476ZM54.3712 28.3546C53.3579 28.3546 52.5686 28.0986 52.0032 27.5866C51.4379 27.0639 51.1552 26.2906 51.1552 25.2666V17.7146H53.6512V25.2346C53.6512 25.5972 53.7472 25.8799 53.9392 26.0826C54.1312 26.2746 54.3926 26.3706 54.7232 26.3706C55.1179 26.3706 55.4539 26.2639 55.7312 26.0506L56.4032 27.8106C56.1472 27.9919 55.8379 28.1306 55.4752 28.2266C55.1232 28.3119 54.7552 28.3546 54.3712 28.3546ZM49.8272 21.5386V19.6186H55.7952V21.5386H49.8272Z" fill="#2A2A2A"/>
<circle cx="17.4019" cy="17.4019" r="17.4019" transform="matrix(-1 0 0 1 122.355 5.43945)" fill="#2A2A2A"/>
<path d="M106.142 28.7731L112.074 22.8407M112.074 22.8407L106.142 16.9082M112.074 22.8407H97.8363" stroke="#DFFD52" stroke-width="2" stroke-linecap="round" stroke-linejoin="round"/>
</g>
<defs>
<clipPath id="clip0_9193_3852">
<rect width="126.164" height="46.7676" fill="white"/>
</clipPath>
</defs>
</svg>
